<?xml version="1.0" encoding="utf-8"?>
<!-- Generator: Adobe Illustrator 22.0.1, SVG Export Plug-In . SVG Version: 6.00 Build 0)  -->
<svg version="1.1" id="Capa_1" xmlns="http://www.w3.org/2000/svg" xmlns:xlink="http://www.w3.org/1999/xlink" x="0px" y="0px"
	 viewBox="0 0 566.9 566.9" style="enable-background:new 0 0 566.9 566.9;" xml:space="preserve">
<style type="text/css">
	.st0{fill:#FFFFFF;}
	.st1{fill:#192B48;}
	.st2{fill:#E5BD29;}
	.st3{fill:#C85C6E;}
	.st4{fill:#4E78B6;}
	.st5{fill:#AA7D64;}
	.st6{fill:none;}
	.st7{fill:#FAF7F5;}
</style>
<g>
	<path class="st1" d="M283.5,138.5c-11.3,9-18.4,22.3-19.7,36.7c0,10.9,8.8,19.7,19.7,19.7s19.7-8.8,19.7-19.7
		C301.9,160.7,294.8,147.5,283.5,138.5z"/>
	<path class="st1" d="M125.9,529.6c0,5.4,4.4,9.8,9.8,9.8h295.4c5.4,0,9.8-4.4,9.8-9.8c0-5.4-4.4-9.8-9.8-9.8H135.8
		C130.3,519.8,125.9,524.2,125.9,529.6z"/>
	<polygon class="st1" points="231.5,431.2 208.5,500.1 358.4,500.1 335.4,431.2 	"/>
	<polygon class="st1" points="162.4,178 189.3,173.8 171.6,149 	"/>
	<rect x="96.4" y="76.7" class="st1" width="19.7" height="19.7"/>
	<polygon class="st1" points="180.6,332.7 220.4,332.7 198.3,192.3 159.4,198.4 	"/>
	<path class="st1" d="M47.2,391.8c0,10.9,8.8,19.7,19.7,19.7h433.2c10.9,0,19.7-8.8,19.7-19.7v-39.4H47.2V391.8z M273.6,372.1h19.7
		v19.7h-19.7V372.1z"/>
	<rect x="450.9" y="76.7" class="st1" width="19.7" height="19.7"/>
	<rect x="273.6" y="372.1" class="st4" width="19.7" height="19.7"/>
	<path class="st4" d="M500.1,7.8H66.8c-21.8,0-39.4,17.6-39.4,39.4v344.6c0,21.8,17.6,39.4,39.4,39.4h143.9l-23,68.9h-52
		c-16.3,0-29.5,13.2-29.5,29.5c0,3.4,0.6,6.7,1.8,9.8c0,0,4.5,19.7,29.1,19.7h294c16.3,0,29.5-13.2,29.5-29.5
		c0-16.3-13.2-29.5-29.5-29.5h-52l-23-68.9h143.9c21.8,0,39.4-17.6,39.4-39.4V47.2C539.5,25.4,521.8,7.8,500.1,7.8z M431.2,519.8
		c5.4,0,9.8,4.4,9.8,9.8c0,5.4-4.4,9.8-9.8,9.8H135.8c-5.4,0-9.8-4.4-9.8-9.8c0-5.4,4.4-9.8,9.8-9.8H431.2z M358.4,500.1H208.5
		l23-68.9h104L358.4,500.1z M519.8,391.8c0,10.9-8.8,19.7-19.7,19.7H66.8c-10.9,0-19.7-8.8-19.7-19.7v-39.4h472.6V391.8z
		 M198.3,192.3l22.1,140.4h-39.8l-21.2-134.3L198.3,192.3z M162.4,178l9.2-29l17.7,24.8L162.4,178z M267.3,253.9l-1.5-20.5
		c-0.4-4.9,1.3-9.7,4.7-13.3c7-7.1,18.4-7.3,25.6-0.3c0.1,0.1,0.2,0.2,0.3,0.3c3.4,3.6,5.1,8.4,4.7,13.3l-1.5,20.5H267.3z
		 M298.2,273.6l-4.2,59.1h-21.1l-4.2-59.1H298.2z M283.5,194.8c-10.9,0-19.7-8.8-19.7-19.7c1.3-14.4,8.4-27.7,19.7-36.7
		c11.3,9,18.4,22.3,19.7,36.7C303.2,186,294.3,194.8,283.5,194.8z M354.4,279.1l3.6-19.4l19.4,3.6L381,244l-19.4-3.6l3.6-19.4
		l19.4,3.6l3.6-19.4l-19.4-3.6l3.6-19.3l19.4,3.6l3.6-19.4l-19.4-3.6l3.6-19.4l38.7,7.2l-33.9,181.9h-40.1l6.4-34.2l19.4,3.6
		l3.6-19.4L354.4,279.1z M519.8,332.7H404.6l35.1-187.9c1-5.3-2.5-10.5-7.9-11.5c0,0,0,0,0,0l-58.1-10.8c-5.3-1-10.5,2.5-11.5,7.9
		c0,0,0,0,0,0l-37.8,202.4h-10.7l7-97.8c0.7-10.3-2.9-20.5-9.9-28.1c-0.6-0.6-1.3-1.1-2-1.7c8.9-7.4,14-18.3,14-29.9
		c0-34.5-32.5-56.5-33.9-57.4c-3.3-2.2-7.6-2.2-10.9,0c-1.4,0.9-33.9,23-33.9,57.4c0,11.5,5.2,22.5,14,29.9c-0.6,0.6-1.4,1.1-2,1.7
		c-7,7.6-10.6,17.8-9.9,28.1l7,97.8h-12.8l-24.2-153.2c-0.2-1.5-0.8-2.9-1.7-4.2l-38.4-53.8c-3.2-4.4-9.3-5.5-13.7-2.3
		c-1.7,1.2-3,3-3.7,5l-20,63c-0.5,1.5-0.6,3-0.3,4.5l22.2,140.9H47.2V47.2c0-10.9,8.8-19.7,19.7-19.7h433.2
		c10.9,0,19.7,8.8,19.7,19.7V332.7z"/>
	<rect x="96.4" y="135.8" class="st4" width="19.7" height="19.7"/>
	<rect x="96.4" y="175.2" class="st4" width="19.7" height="19.7"/>
	<rect x="96.4" y="214.5" class="st4" width="19.7" height="19.7"/>
	<rect x="96.4" y="253.9" class="st4" width="19.7" height="19.7"/>
	<rect x="96.4" y="293.3" class="st4" width="19.7" height="19.7"/>
	<rect x="450.9" y="135.8" class="st4" width="19.7" height="19.7"/>
	<rect x="450.9" y="175.2" class="st4" width="19.7" height="19.7"/>
	<rect x="450.9" y="214.5" class="st4" width="19.7" height="19.7"/>
	<rect x="450.9" y="253.9" class="st4" width="19.7" height="19.7"/>
	<rect x="450.9" y="293.3" class="st4" width="19.7" height="19.7"/>
	<path class="st4" d="M125.9,57H86.5c-5.4,0-9.8,4.4-9.8,9.8v39.4c0,5.4,4.4,9.8,9.8,9.8h39.4c5.4,0,9.8-4.4,9.8-9.8V66.8
		C135.8,61.4,131.4,57,125.9,57z M116.1,96.4H96.4V76.7h19.7V96.4z"/>
	<path class="st4" d="M480.4,57H441c-5.4,0-9.8,4.4-9.8,9.8v39.4c0,5.4,4.4,9.8,9.8,9.8h39.4c5.4,0,9.8-4.4,9.8-9.8V66.8
		C490.2,61.4,485.8,57,480.4,57z M470.5,96.4h-19.7V76.7h19.7V96.4z"/>
	<rect x="155.5" y="76.7" class="st4" width="19.7" height="19.7"/>
	<rect x="194.8" y="76.7" class="st4" width="19.7" height="19.7"/>
	<rect x="234.2" y="76.7" class="st4" width="19.7" height="19.7"/>
	<rect x="273.6" y="76.7" class="st4" width="19.7" height="19.7"/>
	<rect x="313" y="76.7" class="st4" width="19.7" height="19.7"/>
	<rect x="352.4" y="76.7" class="st4" width="19.7" height="19.7"/>
	<rect x="391.8" y="76.7" class="st4" width="19.7" height="19.7"/>
</g>
</svg>
