<?xml version="1.0" encoding="utf-8"?>
<!-- Generator: Adobe Illustrator 22.0.1, SVG Export Plug-In . SVG Version: 6.00 Build 0)  -->
<svg version="1.1" id="Capa_1" xmlns="http://www.w3.org/2000/svg" xmlns:xlink="http://www.w3.org/1999/xlink" x="0px" y="0px"
	 viewBox="0 0 566.9 566.9" style="enable-background:new 0 0 566.9 566.9;" xml:space="preserve">
<style type="text/css">
	.st0{fill:#FFFFFF;}
	.st1{fill:#192B48;}
	.st2{fill:#E5BD29;}
	.st3{fill:#C85C6E;}
	.st4{fill:#4E78B6;}
	.st5{fill:#AA7D64;}
	.st6{fill:none;}
	.st7{fill:#FAF7F5;}
</style>
<path class="st4" d="M283.7,294.9c-24.9,0-49.2-8.7-68.2-24.5c-19.6-16.2-32.5-38.3-37.4-64c-3.5-18.8-0.9-37.5,8.1-57.2
	c14.3-31.4,34.4-59,53.8-84.6c9.3-12.2,19.4-24.2,29.2-35.8l2-2.4c2.2-2.6,5.3-4.5,9.3-6.3h5.8c4.7,1.9,8.5,5.7,13,11
	c27,32.1,54.7,67.1,75.1,106c7.9,15.1,15.9,33.3,15.6,54c-0.8,47.9-38.1,92.6-84.9,101.7C298.1,294.2,290.9,294.9,283.7,294.9z
	 M274.5,57.3c-1.4,1.7-2.7,3.3-3.9,4.9c-2.6,3.2-5,6.2-7.4,9.3c-20.5,26.5-39.7,51-54.9,84c-4.5,9.9-10.6,23.8-10.5,35.4
	c0.2,47.2,38.8,85.6,86.1,85.6c0,0,0,0,0,0c7,0,14-0.9,20.9-2.6c23.7-6,44.5-23.4,55.7-46.7c10.1-21,11.1-43.6,2.7-62.1
	c-17.5-38.4-41.3-70.1-70.6-107.6l-9-11.5L274.5,57.3z"/>
<path class="st4" d="M507.6,375.9c-16-11.1-85.7-58.4-85.7-58.4s69.7-46.8,86-58.2c3.6-2.5,5.6-5.9,5.6-9.5c0-3.4-1.9-6.7-5.4-9.1
	c-22.8-15.9-47.1-32.7-74.4-51.4c-2.1-1.4-4.4-2.2-6.7-2.2c-3.5,0-6.6,1.7-8.6,4.6c-3.5,5.1-2.2,11.4,3.2,15.2
	c3.9,2.8,7.9,5.5,11.8,8.2c1.9,1.3,3.7,2.6,5.6,3.9l44.5,30.8L283.9,387.8l-4.4-2.6c-7-4.2-196-135-196-135l14.3-10.4
	c4.8-3.3,9.5-6.6,14.3-9.9c10.9-7.5,22.3-15.3,33.2-23.1c3-2.1,4.8-5.3,4.8-8.8c0-3.4-1.5-6.5-4.4-8.6c-1.9-1.4-3.9-2.1-6.1-2.1
	c-2.4,0-5,0.9-7.5,2.6c-8.3,5.7-69.6,48.5-69.6,48.5c-3.9,2.5-6.4,6.8-6.4,11.7c0,5.3,3,9.9,7.4,12.2l82,57.3l-83.1,54.5
	c-3.3,2.8-5.5,7-5.5,11.6c0,4.8,2.2,9,5.7,11.8l0,0.2l212.5,146.8c4.4,3.1,6.8,3.4,8.2,3.4c1.4,0,3.7-0.3,8.1-3.3
	c16.8-11.3,33.6-22.7,50.3-34l10.2-6.9c11.5-7.8,23.4-15.8,35-23.8c3.8-2.6,5.2-6,4.3-10.8c-0.8-4.3-3.1-6.9-7.4-8.2
	c-1.1-0.3-2.1-0.5-3.1-0.5c-2.3,0-4.7,0.9-7.3,2.6c-19.3,13.1-39,26.4-58,39.3l-16.9,11.5c-2.4,1.6-4.9,3.3-7.3,4.9l-7.9,5.3
	L83.4,385.7l81.5-53.2l32.8,22.7c25.8,17.8,51.5,35.6,77.2,53.3c4.7,3.2,7.1,3.6,8.5,3.6c1.4,0,3.8-0.4,8.5-3.6
	c11.6-8,23.2-16,34.8-24l25.2-17.4c11.8-8.1,52.7-36.4,52.7-36.4l79.2,54.8l-9.2,6.5c-2.6,1.8-5.1,3.6-7.6,5.4
	c-5.5,3.9-10.7,7.5-15.9,11.3c-5.8,4.1-7.2,10.2-3.6,15.5c2.1,3,5.1,4.7,8.5,4.7c2.4,0,4.8-0.8,7.1-2.4c10.2-7,20.6-14.3,30.6-21.4
	c5-3.5,10-7,15-10.5c2-1.4,3.4-3.2,4.2-5.3C515.2,382.4,510.6,377.9,507.6,375.9z"/>
</svg>
