<?xml version="1.0" encoding="utf-8"?>
<!-- Generator: Adobe Illustrator 22.0.1, SVG Export Plug-In . SVG Version: 6.00 Build 0)  -->
<svg version="1.1" id="Capa_1" xmlns="http://www.w3.org/2000/svg" xmlns:xlink="http://www.w3.org/1999/xlink" x="0px" y="0px"
	 viewBox="0 0 566.9 566.9" style="enable-background:new 0 0 566.9 566.9;" xml:space="preserve">
<style type="text/css">
	.st0{fill:#FFFFFF;}
	.st1{fill:#192B48;}
	.st2{fill:#E5BD29;}
	.st3{fill:#C85C6E;}
	.st4{fill:#4E78B6;}
	.st5{fill:#AA7D64;}
	.st6{fill:none;}
	.st7{fill:#FAF7F5;}
</style>
<g>
	<g transform="translate(1 1)">
		<g>
			<polygon class="st0" points="495.8,64.9 495.8,433.5 456.5,457.4 145.9,457.4 145.9,64.9 			"/>
		</g>
		<polygon class="st1" points="495.8,47 495.8,415.6 430.9,457.4 145.9,457.4 145.9,64.9 		"/>
		<g>
			<path class="st0" d="M111.8,337.9v179.2c0,4.5-1.8,8.9-5,12.1c-3.2,3.2-7.5,5-12.1,5H52.1c-9.4,0-17-7.7-17.1-17.1V337.9
				c0-9.4,7.7-17,17.1-17.1h42.7C104.1,320.9,111.8,328.5,111.8,337.9z"/>
		</g>
		<g>
			<g>
				<path class="st0" d="M86.2,337.9v179.2c0,2.8-0.5,5.5-1.4,8.1c-1.2,4.8-5.1,8.3-10,9H46.4c-6.3,0-11.4-7.7-11.4-17.1V337.9
					c0-9.4,5.1-17.1,11.4-17.1h28.4C81.1,320.9,86.2,328.6,86.2,337.9z"/>
			</g>
			<path class="st0" d="M518.7,419.6l-22.9,13.9l-39.3,23.9L358.8,517c-9.4,5.7-20.1,8.7-31.1,8.7H111.8l-2-0.4c1.3-2.5,2-5.3,2-8.1
				V337.9h23.9c3.4,0,6.8,0.3,10.2,0.8c14.1,1.8,27.3,7.4,38.4,16.3c13.8,11,31,17,48.6,17.1h44.6c15,0,28.9,7.9,36.6,20.7l0.8,1.3
				c7.3,12.2,5.3,27.7-4.7,37.7h20.1c3.7,0,7.3-0.6,10.8-1.8l154.6-51.5l3.3-1.1c9.6-3.1,20.1,0.2,26.1,8.2v0.1
				c4,5.3,5.5,12,4.3,18.4C528.2,410.6,524.3,416.2,518.7,419.6z"/>
		</g>
		<g>
			<path class="st0" d="M137.4,39.3h375.5c4.7,0,8.5,3.8,8.5,8.5v34.1c0,4.7-3.8,8.5-8.5,8.5H137.4c-4.7,0-8.5-3.8-8.5-8.5V47.8
				C128.9,43.1,132.7,39.3,137.4,39.3z"/>
		</g>
		<path class="st1" d="M138,39.3h374.3c5,0,9.1,3.8,9.1,8.5v34.1c0,4.7-4.1,8.5-9.1,8.5H138c-5,0-9.1-3.8-9.1-8.5V47.8
			C128.9,43.1,133,39.3,138,39.3z"/>
		<path class="st0" d="M188.6,124.6h119.5c4.7,0,8.5,3.8,8.5,8.5v85.3c0,4.7-3.8,8.5-8.5,8.5H188.6c-4.7,0-8.5-3.8-8.5-8.5v-85.3
			C180.1,128.4,183.9,124.6,188.6,124.6z"/>
		<g>
			<path class="st0" d="M495.8,378.5l3.3-1.1c9.6-3.1,20.1,0.2,26.1,8.2v0.1c4,5.3,5.5,12,4.3,18.4s-5.2,12.1-10.8,15.5l-23.6,8.5
				c5.6-3.4,9.6-9,10.8-15.5c1.3-6.5-0.3-13.2-4.3-18.4v-0.1c-6.1-8-16.6-11.3-26.1-8.2l-3.3,1.1L495.8,378.5z"/>
		</g>
		<g>
			<path class="st1" d="M135.3,525.3l2,0.4h-2.3C135.2,525.5,135.3,525.4,135.3,525.3z"/>
			<path class="st1" d="M171.5,90.5v248.2c-3.4-0.5-6.8-0.8-10.2-0.8h-15.4V90.5h-8.5c-4.7,0-8.5-3.8-8.5-8.5V47.8
				c0-4.7,3.8-8.5,8.5-8.5H163c-4.7,0-8.5,3.8-8.5,8.5v34.1c0,4.7,3.8,8.5,8.5,8.5L171.5,90.5L171.5,90.5z"/>
		</g>
	</g>
	<g>
		<path class="st1" d="M138.4,339.7V91.1c-3.6-11.7,8.9-7.3,16.1-8.1h350.8c0.2,0.1,0,0.5,0.1,0.7v295.9h-17.1V100H155.5v239.7
			H138.4z"/>
		<g>
			<path class="st4" d="M143.7,279.3c0.5,0.2,1,0.4,1.5,0.5c0.6,0.1,1.1,0.2,1.7,0.2c2.3,0,4.4-0.9,6.1-2.5c2.1-2,3-4.9,2.4-7.7
				c-0.6-2.8-2.5-5.1-5.2-6.2c-1-0.4-2.1-0.7-3.2-0.7c-3.4,0-6.6,2.1-7.9,5.3c-1.3,3.2-0.6,6.9,1.8,9.3l1.3,1
				C142.6,278.9,143.1,279.1,143.7,279.3z"/>
			<path class="st4" d="M533,381.4c-6.5-8.6-16.9-13.4-27.7-12.6V100h8.5c9.4,0,17.1-7.6,17.1-17.1V48.8c0-9.4-7.6-17.1-17.1-17.1
				H138.4c-9.4,0-17.1,7.6-17.1,17.1v34.1c0,9.4,7.6,17.1,17.1,17.1v137.3c0,4.7,3.8,8.5,8.5,8.5c4.7,0,8.5-3.8,8.5-8.5V100h332.8
				v273.4L339.5,423c-2.6,0.9-5.4,1.3-8.1,1.3h-4.9c4.1-11.1,2.9-23.5-3.2-33.6l-0.8-1.3c-9.3-15.4-25.9-24.8-43.9-24.9H234
				c-15.7,0-31-5.4-43.3-15.2c-10.3-8.2-22.3-13.9-35.2-16.8v-27c0-4.7-3.8-8.5-8.5-8.5c-4.7,0-8.5,3.8-8.5,8.5v24.9
				c-0.6,0-1.1-0.1-1.7-0.1h-16.9c-3.6-10.2-13.2-17-24-17.1H53.1c-14.1,0-25.6,11.5-25.6,25.6v179.2c0,14.1,11.5,25.6,25.6,25.6
				h42.7c7.2,0,14.1-3.1,18.9-8.5h214c12.5,0,24.8-3.4,35.5-10l160-97.4c7.7-4.7,13-12.4,14.7-21.2c1.7-8.6-0.2-17.4-5.3-24.5
				C533.4,381.9,533.2,381.7,533,381.4z M397.2,82.9H148.7c-2-0.2-4-0.2-6,0h-4.3V48.8h375.5l0,34.1H397.2z M95.7,526.7H53.1
				c-4.7,0-8.5-3.8-8.5-8.5V338.9c0-4.7,3.8-8.5,8.5-8.5h42.7c4.7,0,8.5,3.8,8.5,8.5v179.2C104.3,522.9,100.4,526.7,95.7,526.7z
				 M522.1,403.4c-0.8,4.1-3.3,7.7-6.8,9.9l-160,97.4c-8,4.9-17.2,7.5-26.6,7.5H121.3V347.5h15.3c15.7,0,31,5.4,43.3,15.2
				c15.3,12.2,34.4,18.9,54,18.9h44.6c12,0,23.1,6.3,29.3,16.6l0.8,1.3c4.7,7.8,4.2,17.6-1.3,24.8h-51.9l0,0
				c-16.8,0-33.3,5-47.3,14.3l-6.2,4.2c-3.9,2.6-4.9,7.9-2.3,11.8s7.9,5,11.8,2.4l6.2-4.2c11.2-7.5,24.4-11.5,37.9-11.5h75.9
				c4.6,0,9.1-0.7,13.5-2.2l158-52.7c5.8-2,12.2-0.2,16.1,4.5c0.2,0.2,0.3,0.5,0.5,0.7C522,395.1,522.9,399.3,522.1,403.4z"/>
			<path class="st4" d="M309.1,117.1H189.6c-9.4,0-17.1,7.6-17.1,17.1v85.3c0,9.4,7.6,17.1,17.1,17.1h119.5
				c9.4,0,17.1-7.6,17.1-17.1v-85.3C326.1,124.7,318.5,117.1,309.1,117.1z M189.6,219.5v-85.3h119.5l0,85.3L189.6,219.5L189.6,219.5
				z"/>
			<path class="st4" d="M368.8,134.1h93.9c4.7,0,8.5-3.8,8.5-8.5c0-4.7-3.8-8.5-8.5-8.5h-93.9c-4.7,0-8.5,3.8-8.5,8.5
				C360.3,130.3,364.1,134.1,368.8,134.1z"/>
			<path class="st4" d="M368.8,168.3h93.9c4.7,0,8.5-3.8,8.5-8.5c0-4.7-3.8-8.5-8.5-8.5h-93.9c-4.7,0-8.5,3.8-8.5,8.5
				C360.3,164.5,364.1,168.3,368.8,168.3z"/>
			<path class="st0" d="M357.6,284.7c-0.6-0.6-1.4-1.2-2.2-1.5c-0.2-0.1-0.4-0.3-0.7-0.4c-0.1-0.1-0.3,0-0.4-0.1
				c-0.4-0.1-0.9-0.2-1.3-0.3c-1.3-0.2-2.6-0.1-3.8,0.3c-0.1,0-0.3,0-0.4,0.1c-0.2,0.1-0.4,0.2-0.6,0.3c-0.8,0.4-1.6,0.9-2.2,1.5
				c-0.2,0.2-0.4,0.3-0.6,0.5l-25.6,29.5c-2,2.3-2.6,5.5-1.6,8.4c1,2.9,3.4,5,6.4,5.6s6.1-0.5,8.1-2.8l10.6-12.2V356
				c0,4.7,3.8,8.5,8.5,8.5s8.5-3.8,8.5-8.5v-42.3l10.6,12.2c3.1,3.6,8.5,3.9,12,0.8c3.6-3.1,3.9-8.5,0.8-12l-25.6-29.5
				C358,285,357.8,284.9,357.6,284.7z"/>
			<path class="st0" d="M437.1,364.5c2.3,0,4.4-0.9,6-2.5c1.6-1.6,2.5-3.8,2.5-6v-42.3l10.6,12.2c3.1,3.6,8.5,3.9,12,0.8
				c3.6-3.1,3.9-8.5,0.8-12l-25.6-29.5c-0.2-0.2-0.4-0.3-0.6-0.5c-0.3-0.3-0.6-0.6-1-0.8c-0.4-0.3-0.8-0.5-1.2-0.7
				c-0.2-0.1-0.4-0.3-0.6-0.4c-0.1-0.1-0.3,0-0.4-0.1c-0.4-0.1-0.9-0.2-1.4-0.3c-1.3-0.2-2.6-0.1-3.8,0.3c-0.1,0-0.3,0-0.4,0.1
				c-0.2,0.1-0.4,0.2-0.6,0.3c-0.8,0.4-1.6,0.9-2.2,1.5c-0.2,0.2-0.4,0.3-0.6,0.5L405,314.7c-3.1,3.6-2.7,8.9,0.8,12s8.9,2.7,12-0.8
				l10.6-12.2V356c0,2.3,0.9,4.4,2.5,6C432.6,363.6,434.8,364.5,437.1,364.5z"/>
		</g>
	</g>
</g>
</svg>
