<?xml version="1.0" encoding="utf-8"?>
<!-- Generator: Adobe Illustrator 22.0.1, SVG Export Plug-In . SVG Version: 6.00 Build 0)  -->
<svg version="1.1" id="Capa_1" xmlns="http://www.w3.org/2000/svg" xmlns:xlink="http://www.w3.org/1999/xlink" x="0px" y="0px"
	 viewBox="0 0 566.9 566.9" style="enable-background:new 0 0 566.9 566.9;" xml:space="preserve">
<style type="text/css">
	.st0{fill:#FFFFFF;}
	.st1{fill:#192B48;}
	.st2{fill:#E5BD29;}
	.st3{fill:#C85C6E;}
	.st4{fill:#4E78B6;}
	.st5{fill:#AA7D64;}
	.st6{fill:none;}
	.st7{fill:#FAF7F5;}
</style>
<g id="Page-1_4_">
	<g id="_x30_17---Colour-Palette">
		<path id="Shape_169_" class="st1" d="M196,380.6c0.6,5-16,34.7-19.7,38.4l-85.2,30.5c-1,1-1.9,2-2.7,3.1c-0.4,0.4-0.7,0.8-0.9,1.2
			c-0.1,0.2-0.3,0.4-0.4,0.5c-0.4,0.6-0.9,1.2-1.3,1.9c-0.7,1-1.4,2.1-2,3.2c-0.5,0.9-0.9,1.7-1.3,2.6c-0.1,0.1-0.1,0.3-0.2,0.3
			c-0.3,0.9-0.7,1.7-1,2.6c-0.4,1.1-0.8,2.3-1.1,3.4c-0.3,1.1-0.6,2.3-0.8,3.5c-0.3,1.2-0.4,2.3-0.5,3.5c-0.2,1.4-0.3,2.9-0.3,4.4
			v-77.1c0-5.2-2.4-10.1-6.4-13.3l-29.9-23.9c-4-3.2-6.4-8.1-6.4-13.3V44.6c0-9.4,7.7-17,17.1-17.1h93.9c9.4,0,17,7.7,17.1,17.1
			v271.9l-4.3,22.5c-3.7,3.7,17.7,9.8,18.1,14.9L196,380.6z"/>
		<path id="Shape_168_" class="st1" d="M170.4,380.6c0.6,5-16,34.7-19.7,38.4l-72,25.9v-42.2c0-5.2-2.4-10.1-6.4-13.3l-29.9-23.9
			c-4-3.2-6.4-8.1-6.4-13.3V44.6c0-9.4,7.7-17,17.1-17.1h68.3c9.4,0,17,7.7,17.1,17.1v271.9l-4.3,22.5c-3.7,3.7,17.7,9.8,18.1,14.9
			L170.4,380.6z"/>
		<path id="Shape_167_" class="st1" d="M459.3,202.2l-17.1,17.1L266.9,394.6l-17.9,17c-5.2,0-10.1,2.4-13.3,6.4l-9.2,11.6
			l-14.7,18.3c-2,2.5-4.8,4.4-7.9,5.5c-1.8,0.6-3.6,0.9-5.5,0.9l-77.1-8.5c-11.7,0-22.2-3.7-30,3.7l37.3-37.2
			c0.1-0.1,0.1-0.1,0.1-0.2l17-16.9c3.7-3.6,5.5-8.8,4.9-13.9l-4.3-38.1c-0.5-5.1,1.3-10.2,4.9-13.9l217.4-217.4
			c3.2-3.2,7.5-5,12.1-5s8.9,1.8,12.1,5l66.4,66.3c3.2,3.2,5,7.5,5,12.1C464.3,194.7,462.5,199,459.3,202.2z"/>
		<path id="Shape_166_" class="st1" d="M442.2,219.3L266.9,394.6l-17.9,17c-5.2,0-10.1,2.4-13.3,6.4l-9.2,11.6
			c-3.1,1-5.8,2.9-7.9,5.5l-14.7,18.3c-1.8,0.6-3.6,0.9-5.5,0.9l-77.1-8.5c-11.7,0-22.2-3.7-30,3.7l37.3-37.2
			c0.1-0.1,0.1-0.1,0.1-0.2l17-16.9c3.7-3.6,5.5-8.8,4.9-13.9l-4.3-38.1c-0.5-5.1,1.3-10.2,4.9-13.9l200.4-200.4
			c3.2-3.2,7.5-5,12.1-5c4.5,0,8.9,1.8,12.1,5l66.4,66.3c3.2,3.2,5,7.5,5,12.1C447.2,211.7,445.4,216.1,442.2,219.3z"/>
		<g id="Rectangle-path_34_">
			<path class="st0" d="M74.4,70.2h51.2c2.4,0,4.3,1.9,4.3,4.3v51.2c0,2.4-1.9,4.3-4.3,4.3H74.4c-2.4,0-4.3-1.9-4.3-4.3V74.5
				C70.1,72.1,72,70.2,74.4,70.2z"/>
		</g>
		<g id="Rectangle-path_33_">
			<path class="st0" d="M74.4,70.2h34.1c2.4,0,4.3,1.9,4.3,4.3v51.2c0,2.4-1.9,4.3-4.3,4.3H74.4c-2.4,0-4.3-1.9-4.3-4.3V74.5
				C70.1,72.1,72,70.2,74.4,70.2z"/>
		</g>
		<g id="Rectangle-path_32_">
			<path class="st0" d="M74.4,164.1h51.2c2.4,0,4.3,1.9,4.3,4.3v51.2c0,2.4-1.9,4.3-4.3,4.3H74.4c-2.4,0-4.3-1.9-4.3-4.3v-51.2
				C70.1,166,72,164.1,74.4,164.1z"/>
		</g>
		<g id="Rectangle-path_31_">
			<path class="st0" d="M74.4,164.1h34.1c2.4,0,4.3,1.9,4.3,4.3v51.2c0,2.4-1.9,4.3-4.3,4.3H74.4c-2.4,0-4.3-1.9-4.3-4.3v-51.2
				C70.1,166,72,164.1,74.4,164.1z"/>
		</g>
		<g id="Rectangle-path_30_">
			<path class="st0" d="M74.4,257.9h51.2c2.4,0,4.3,1.9,4.3,4.3v51.2c0,2.4-1.9,4.3-4.3,4.3H74.4c-2.4,0-4.3-1.9-4.3-4.3v-51.2
				C70.1,259.8,72,257.9,74.4,257.9z"/>
		</g>
		<g id="Rectangle-path_29_">
			<path class="st0" d="M74.4,257.9h34.1c2.4,0,4.3,1.9,4.3,4.3v51.2c0,2.4-1.9,4.3-4.3,4.3H74.4c-2.4,0-4.3-1.9-4.3-4.3v-51.2
				C70.1,259.8,72,257.9,74.4,257.9z"/>
		</g>
		<g id="Shape_165_">
			<path class="st0" d="M413.9,199.2l-36.2,36.2c-0.8,0.8-1.9,1.3-3,1.3s-2.2-0.5-3-1.3l-1.2-1.2l-35-35c-1.6-1.7-1.6-4.4,0-6.1
				l26.5-26.4l9.7-9.8c0.8-0.8,1.9-1.3,3-1.3s2.2,0.5,3,1.3l36.2,36.2c0.8,0.8,1.3,1.9,1.3,3C415.2,197.3,414.7,198.4,413.9,199.2z"
				/>
		</g>
		<g id="Shape_164_">
			<path class="st0" d="M396.9,207.8l-26.4,26.5l-35-35c-1.6-1.7-1.6-4.4,0-6.1l26.5-26.4l34.9,34.9c0.8,0.8,1.3,1.9,1.3,3
				C398.1,205.9,397.7,207,396.9,207.8z"/>
		</g>
		<g id="Shape_163_">
			<path class="st0" d="M347.6,265.6l-36.3,36.2c-0.8,0.8-1.9,1.3-3,1.3s-2.2-0.5-3-1.3l-1.3-1.3l-35-34.9c-1.6-1.7-1.6-4.4,0-6.1
				l26.5-26.4l9.8-9.8c0.8-0.8,1.9-1.3,3-1.3s2.2,0.5,3,1.3l36.3,36.2C349.3,261.2,349.3,263.9,347.6,265.6z"/>
		</g>
		<g id="Shape_162_">
			<path class="st0" d="M330.6,274.1l-26.5,26.4l-35-34.9c-1.6-1.7-1.6-4.4,0-6.1l26.5-26.4l35,34.9
				C332.2,269.8,332.2,272.5,330.6,274.1z"/>
		</g>
		<g id="Shape_161_">
			<path class="st0" d="M281.2,332l-36.2,36.2c-1.7,1.6-4.4,1.6-6.1,0l-1.2-1.2l-35-35c-0.8-0.8-1.3-1.9-1.3-3c0-1.1,0.5-2.2,1.3-3
				l26.5-26.4l9.7-9.8c0.8-0.8,1.9-1.3,3-1.3c1.1,0,2.2,0.5,3,1.3l36.2,36.2C282.9,327.6,282.9,330.3,281.2,332z"/>
		</g>
		<g id="Shape_160_">
			<path class="st0" d="M264.2,340.5L237.8,367l-35-35c-0.8-0.8-1.3-1.9-1.3-3c0-1.1,0.5-2.2,1.3-3l26.5-26.4l34.9,34.9
				C265.8,336.2,265.8,338.8,264.2,340.5z"/>
		</g>
		<path id="Shape_159_" class="st1" d="M530.9,411.5v93.9c0,9.4-7.7,17-17.1,17.1H121.3c-1.5,0-2.9-0.1-4.4-0.3
			c-1.3-0.1-2.6-0.3-3.8-0.5c-0.1,0-0.3-0.1-0.4-0.1c-0.9-0.2-1.8-0.4-2.7-0.7c-0.6-0.2-1.2-0.3-1.7-0.5c-0.6-0.2-1.2-0.4-1.7-0.6
			c-0.3-0.1-0.4-0.2-0.7-0.3c-0.8-0.3-1.5-0.6-2.2-0.9c-0.5-0.2-1.1-0.4-1.5-0.8c-1.3-0.6-2.5-1.3-3.7-2c-0.2-0.1-0.4-0.2-0.6-0.3
			c-0.7-0.4-1.3-0.9-1.9-1.4c-0.2-0.1-0.4-0.2-0.5-0.3c-0.5-0.3-0.9-0.6-1.3-1c-2.2-1.7-4.1-3.6-5.8-5.8c-0.4-0.4-0.7-0.8-1-1.3
			c-0.1-0.1-0.3-0.3-0.3-0.5c-0.5-0.6-1-1.2-1.4-1.9c-0.1-0.2-0.2-0.4-0.3-0.6c-0.8-1.2-1.4-2.4-2-3.7c-0.3-0.5-0.6-1-0.8-1.5
			c-0.3-0.8-0.7-1.5-0.9-2.2c-0.1-0.3-0.2-0.4-0.3-0.7c-0.2-0.6-0.4-1.1-0.6-1.7c-0.2-0.5-0.3-1.1-0.5-1.7c-0.3-1-0.6-2.1-0.8-3.2
			c-0.3-1.3-0.4-2.6-0.5-3.8c-0.3-2.9-0.3-5.8,0-8.7c0.1-1.2,0.3-2.3,0.5-3.5c0.2-1.2,0.4-2.4,0.8-3.5c0.3-1.1,0.7-2.3,1.1-3.4
			c0.3-0.9,0.7-1.7,1-2.6c0.1-0.1,0.1-0.3,0.2-0.3c0.4-0.9,0.8-1.7,1.3-2.6c0.6-1.1,1.2-2.2,2-3.2c0.4-0.7,0.9-1.3,1.3-1.9
			c0.2-0.1,0.3-0.3,0.4-0.5c0.3-0.4,0.6-0.8,0.9-1.2c0.8-1.1,1.8-2.1,2.7-3.1c8-8,18.9-12.5,30.2-12.5h77.1c5.2,0,10.1-2.4,13.3-6.4
			l23.9-29.9c3.2-4,8.1-6.4,13.3-6.4h264.9C523.3,394.5,530.9,402.1,530.9,411.5z"/>
		<path id="Shape_158_" class="st1" d="M505.3,411.5v93.9c0,9.4-7.7,17-17.1,17.1H121.3c-1.5,0-2.9-0.1-4.4-0.3
			c-1.3-0.1-2.6-0.3-3.8-0.5c-0.1,0-0.3-0.1-0.4-0.1c-0.9-0.2-1.8-0.4-2.7-0.7c-0.6-0.2-1.2-0.3-1.7-0.5c-0.6-0.2-1.2-0.4-1.7-0.6
			c-0.3-0.1-0.4-0.2-0.7-0.3c-0.8-0.3-1.5-0.6-2.2-0.9c-0.5-0.2-1.1-0.4-1.5-0.8c-1.3-0.6-2.5-1.3-3.7-2c-0.2-0.1-0.4-0.2-0.6-0.3
			c-0.7-0.4-1.3-0.9-1.9-1.4c-0.2-0.1-0.4-0.2-0.5-0.3c-0.5-0.3-0.9-0.6-1.3-1c-2.2-1.7-4.1-3.6-5.8-5.8c-0.4-0.4-0.7-0.8-1-1.3
			c-0.1-0.1-0.3-0.3-0.3-0.5c-0.5-0.6-1-1.2-1.4-1.9c-0.1-0.2-0.2-0.4-0.3-0.6c-0.8-1.2-1.4-2.4-2-3.7c-0.3-0.5-0.6-1-0.8-1.5
			c-0.3-0.8-0.7-1.5-0.9-2.2c-0.1-0.3-0.2-0.4-0.3-0.7c-0.2-0.6-0.4-1.1-0.6-1.7c-0.2-0.5-0.3-1.1-0.5-1.7c-0.3-1-0.6-2.1-0.8-3.2
			c-0.3-1.3-0.4-2.6-0.5-3.8c-0.3-2.9-0.3-5.8,0-8.7c0.1-1.2,0.3-2.3,0.5-3.5c0.2-1.2,0.4-2.4,0.8-3.5c0.3-1.1,0.7-2.3,1.1-3.4
			c0.3-0.9,0.7-1.7,1-2.6c0.1-0.1,0.1-0.3,0.2-0.3c0.4-0.9,0.8-1.7,1.3-2.6c0.6-1.1,1.2-2.2,2-3.2c0.4-0.7,0.9-1.3,1.3-1.9
			c0.2-0.1,0.3-0.3,0.4-0.5c0.3-0.4,0.6-0.8,0.9-1.2c0.8-1.1,1.8-2.1,2.7-3.1c8-8,18.9-12.5,30.2-12.5h77.1c5.2,0,10.1-2.4,13.3-6.4
			l23.9-29.9c3.2-4,8.1-6.4,13.3-6.4h239.3C497.7,394.5,505.3,402.1,505.3,411.5z"/>
		<circle id="Oval_8_" class="st0" cx="121.3" cy="479.8" r="17.1"/>
		<g id="Rectangle-path_28_">
			<path class="st0" d="M441.3,428.6h51.2c2.4,0,4.3,1.9,4.3,4.3v51.2c0,2.4-1.9,4.3-4.3,4.3h-51.2c-2.4,0-4.3-1.9-4.3-4.3v-51.2
				C437.1,430.5,439,428.6,441.3,428.6z"/>
		</g>
		<g id="Rectangle-path_27_">
			<path class="st0" d="M441.3,428.6h34.1c2.4,0,4.3,1.9,4.3,4.3v51.2c0,2.4-1.9,4.3-4.3,4.3h-34.1c-2.4,0-4.3-1.9-4.3-4.3v-51.2
				C437.1,430.5,439,428.6,441.3,428.6z"/>
		</g>
		<g id="Rectangle-path_26_">
			<path class="st0" d="M347.5,428.6h51.2c2.4,0,4.3,1.9,4.3,4.3v51.2c0,2.4-1.9,4.3-4.3,4.3h-51.2c-2.4,0-4.3-1.9-4.3-4.3v-51.2
				C343.2,430.5,345.1,428.6,347.5,428.6z"/>
		</g>
		<g id="Rectangle-path_25_">
			<path class="st0" d="M347.5,428.6h34.1c2.4,0,4.3,1.9,4.3,4.3v51.2c0,2.4-1.9,4.3-4.3,4.3h-34.1c-2.4,0-4.3-1.9-4.3-4.3v-51.2
				C343.2,430.5,345.1,428.6,347.5,428.6z"/>
		</g>
		<g id="Rectangle-path_24_">
			<path class="st0" d="M253.6,428.6h51.2c2.4,0,4.3,1.9,4.3,4.3v51.2c0,2.4-1.9,4.3-4.3,4.3h-51.2c-2.4,0-4.3-1.9-4.3-4.3v-51.2
				C249.3,430.5,251.2,428.6,253.6,428.6z"/>
		</g>
		<g id="Rectangle-path_23_">
			<path class="st0" d="M253.6,428.6h34.1c2.4,0,4.3,1.9,4.3,4.3v51.2c0,2.4-1.9,4.3-4.3,4.3h-34.1c-2.4,0-4.3-1.9-4.3-4.3v-51.2
				C249.3,430.5,251.2,428.6,253.6,428.6z"/>
		</g>
		<path id="Shape_157_" class="st1" d="M69.1,389.7c4,3.2,6.4,8.1,6.4,13.3v77.1c0,1.5,0.1,2.9,0.3,4.4c0.1,1.3,0.3,2.6,0.5,3.8
			c0.2,1.1,0.4,2.1,0.8,3.2c0.2,0.6,0.3,1.2,0.5,1.7c0.2,0.6,0.4,1.2,0.6,1.7c0.1,0.3,0.2,0.4,0.3,0.7c0.3,0.8,0.6,1.5,0.9,2.2
			c0.2,0.5,0.4,1.1,0.8,1.5c0.6,1.3,1.3,2.5,2,3.7c0.1,0.2,0.2,0.4,0.3,0.6c0.4,0.7,0.9,1.3,1.4,1.9c0.1,0.2,0.2,0.4,0.3,0.5
			c0.3,0.5,0.6,0.9,1,1.3c1.7,2.2,3.6,4.1,5.8,5.8c0.4,0.4,0.8,0.7,1.3,1c0.1,0.1,0.3,0.3,0.5,0.3c0.6,0.5,1.2,1,1.9,1.4
			c0.2,0.1,0.4,0.2,0.6,0.3c1.2,0.8,2.4,1.4,3.7,2c0.5,0.3,1,0.6,1.5,0.8c0.8,0.3,1.5,0.7,2.2,0.9c0.3,0.1,0.4,0.2,0.7,0.3
			c0.6,0.2,1.1,0.4,1.7,0.6c0.5,0.2,1.1,0.3,1.7,0.5c0.9,0.3,1.8,0.5,2.7,0.7c0.1,0,0.3,0,0.4,0.1c1.3,0.3,2.6,0.4,3.8,0.5
			c1.4,0.2,2.9,0.3,4.4,0.3h25.6c-1.5,0-2.9-0.1-4.4-0.3c-1.3-0.1-2.6-0.3-3.8-0.5c-0.1,0-0.3-0.1-0.4-0.1c-0.9-0.2-1.8-0.4-2.7-0.7
			c-0.6-0.2-1.2-0.3-1.7-0.5c-0.6-0.2-1.2-0.4-1.7-0.6c-0.3-0.1-0.4-0.2-0.7-0.3c-0.8-0.3-1.5-0.6-2.2-0.9c-0.5-0.2-1.1-0.4-1.5-0.8
			c-1.3-0.6-2.5-1.3-3.7-2c-0.2-0.1-0.4-0.2-0.6-0.3c-0.7-0.4-1.3-0.9-1.9-1.4c-0.2-0.1-0.4-0.2-0.5-0.3c-0.5-0.3-0.9-0.6-1.3-1
			c-2.2-1.7-4.1-3.6-5.8-5.8c-0.4-0.4-0.7-0.8-1-1.3c-0.1-0.1-0.3-0.3-0.3-0.5c-0.5-0.6-1-1.2-1.4-1.9c-0.1-0.2-0.2-0.4-0.3-0.6
			c-0.8-1.2-1.4-2.4-2-3.7c-0.3-0.5-0.6-1-0.8-1.5c-0.3-0.8-0.7-1.5-0.9-2.2c-0.1-0.3-0.2-0.4-0.3-0.7c-0.2-0.6-0.4-1.1-0.6-1.7
			c-0.2-0.5-0.3-1.1-0.5-1.7c-0.3-1-0.6-2.1-0.8-3.2c-0.3-1.3-0.4-2.6-0.5-3.8c-0.2-1.4-0.3-2.9-0.3-4.4V403
			c0-5.2-2.4-10.1-6.4-13.3l-29.9-23.9c-4-3.2-6.4-8.1-6.4-13.3V45c0-9.4,7.7-17,17.1-17.1H49.9c-9.4,0-17,7.7-17.1,17.1v307.5
			c0,5.2,2.4,10.1,6.4,13.3L69.1,389.7z"/>
		<polygon id="Shape_156_" class="st1" points="44.5,44.6 44.5,155.5 44.5,352.1 27.5,352.1 27.5,155.5 27.5,44.6 		"/>
		<path id="Shape_155_" class="st4" d="M36,87.3c4.7,0,8.5-3.8,8.5-8.5V44.6H27.5v34.1C27.5,83.4,31.3,87.3,36,87.3z"/>
		<path id="Shape_154_" class="st4" d="M27.5,352.1h17.1V147c0-4.7-3.8-8.5-8.5-8.5s-8.5,3.8-8.5,8.5V352.1z"/>
		<path id="Shape_153_" class="st4" d="M44.5,112.9c0-2.3-0.9-4.4-2.5-6.1l-1.3-1c-0.5-0.3-1-0.6-1.5-0.8c-0.5-0.2-1-0.4-1.5-0.5
			c-0.6-0.1-1.1-0.2-1.7-0.2c-2.3,0-4.4,0.9-6.1,2.5c-0.8,0.8-1.4,1.8-1.8,2.8c-1.3,3.2-0.6,6.8,1.8,9.3c0.8,0.8,1.8,1.4,2.8,1.8
			c1,0.4,2.1,0.7,3.2,0.7c2.3,0,4.4-0.9,6.1-2.5C43.6,117.3,44.5,115.1,44.5,112.9z"/>
		<path id="Shape_152_" class="st4" d="M121.3,531c-1.8,0-3.6-0.1-5.4-0.3c-1.5-0.1-3-0.3-4.5-0.6l-0.3-0.1
			c-1.2-0.2-2.5-0.5-3.7-0.9c-0.6-0.2-1.3-0.4-1.9-0.6c-0.8-0.2-1.6-0.5-2.4-0.9c-0.9-0.3-1.7-0.6-2.6-1c-0.9-0.3-1.8-0.8-2.6-1.3
			c-1.3-0.6-2.6-1.4-3.9-2.2c-0.3-0.2-0.6-0.3-0.9-0.5c-0.8-0.5-1.6-1.1-2.4-1.7c-0.8-0.5-1.6-1.1-2.3-1.7c-2.5-2-4.7-4.2-6.7-6.7
			c-0.7-0.7-1.2-1.5-1.7-2.3c-0.6-0.8-1.2-1.6-1.7-2.5c-0.1-0.2-0.2-0.4-0.3-0.6c-0.8-1.3-1.6-2.7-2.3-4c-0.5-0.8-0.9-1.6-1.2-2.5
			c-0.4-0.9-0.8-1.8-1.1-2.7c-0.4-0.9-0.7-1.9-1-2.8c0,0-0.2-0.6-0.4-1.2c-0.5-1.5-0.8-3-1.1-4.5c-0.3-1.6-0.5-3.1-0.6-4.7
			c-0.2-1.6-0.3-3.3-0.3-4.9v-77.1c0-2.6-1.2-5.1-3.2-6.7L37,372.1c-6-4.9-9.6-12.2-9.6-19.9c0-4.7,3.8-8.5,8.5-8.5s8.5,3.8,8.5,8.5
			c0,2.6,1.2,5.1,3.2,6.7l29.9,23.9c6,4.9,9.6,12.2,9.6,19.9v77.1c0,1.1,0.1,2.2,0.2,3.3c0.1,1.1,0.2,2.1,0.4,3.2
			c0.1,0.7,0.3,1.4,0.5,2.2l0.5,1.6c0.1,0.1,0.5,1.5,0.5,1.6l0.4,1c0.1,0.3,0.2,0.5,0.3,0.8c0.1,0.3,0.5,1.1,0.6,1.5
			c0.9,1.5,1.3,2.4,1.9,3.2c0.1,0.2,0.3,0.5,0.4,0.7c0.1,0.2,0.2,0.3,0.3,0.5c-0.1-0.1,0.1,0,0.3,0.3c0.3,0.4,0.6,0.7,0.9,1.1
			c0.1,0.2,0.2,0.3,0.3,0.5c1.1,1.3,1.7,2,2.5,2.7c0.7,0.7,1.4,1.3,2.2,1.9c0.3,0.2,0.6,0.5,0.9,0.8c0.5,0.3,0.9,0.6,1.3,0.9
			c0.3,0.2,0.5,0.4,0.8,0.6c0.2,0.1,0.5,0.3,0.7,0.4c0.8,0.6,1.7,1.1,2.6,1.5c0.4,0.2,0.8,0.4,1.2,0.7c0.3,0.1,0.6,0.2,0.9,0.3
			c0.3,0.1,0.6,0.3,0.9,0.4l0.9,0.3l1.5,0.5l1.4,0.4c0.6,0.2,1.3,0.4,1.9,0.5c0.2,0,0.4,0.1,0.6,0.1c0.9,0.2,1.8,0.3,2.7,0.4
			c1.2,0.2,2.5,0.2,3.7,0.2c4.7,0,8.5,3.8,8.5,8.5S126,531,121.3,531z"/>
		<path id="Shape_151_" class="st4" d="M164,325c-4.7,0-8.5-3.8-8.5-8.5V44.6c0-4.7-3.8-8.5-8.5-8.5H53.1c-4.7,0-8.5,3.8-8.5,8.5
			s-3.8,8.5-8.5,8.5s-8.5-3.8-8.5-8.5C27.5,30.5,38.9,19,53.1,19h93.9c14.1,0,25.6,11.5,25.6,25.6v271.9
			C172.5,321.2,168.7,325,164,325z"/>
		<path id="Shape_150_" class="st4" d="M121.3,505.4c-14.1,0-25.6-11.5-25.6-25.6c0-14.1,11.5-25.6,25.6-25.6s25.6,11.5,25.6,25.6
			C146.9,493.9,135.5,505.4,121.3,505.4z M121.3,471.3c-4.7,0-8.5,3.8-8.5,8.5s3.8,8.5,8.5,8.5c4.7,0,8.5-3.8,8.5-8.5
			S126,471.3,121.3,471.3z"/>
		<path id="Shape_149_" class="st4" d="M125.6,138.5H74.4c-7.1,0-12.8-5.7-12.8-12.8V74.5c0-7.1,5.7-12.8,12.8-12.8h51.2
			c7.1,0,12.8,5.7,12.8,12.8v51.2C138.4,132.7,132.7,138.5,125.6,138.5z M78.7,121.4h42.7V78.7H78.7V121.4z"/>
		<path id="Shape_148_" class="st4" d="M125.6,232.3H74.4c-7.1,0-12.8-5.7-12.8-12.8v-51.2c0-7.1,5.7-12.8,12.8-12.8h51.2
			c7.1,0,12.8,5.7,12.8,12.8v51.2C138.4,226.6,132.7,232.3,125.6,232.3z M78.7,215.3h42.7v-42.7H78.7V215.3z"/>
		<path id="Shape_147_" class="st4" d="M125.6,326.2H74.4c-7.1,0-12.8-5.7-12.8-12.8v-51.2c0-7.1,5.7-12.8,12.8-12.8h51.2
			c7.1,0,12.8,5.7,12.8,12.8v51.2C138.4,320.5,132.7,326.2,125.6,326.2z M78.7,309.1h42.7v-42.7H78.7V309.1z"/>
		<path id="Shape_146_" class="st4" d="M513.9,531H121.3c-28.3,0-51.2-22.9-51.2-51.2c0-28.3,22.9-51.2,51.2-51.2h77.1
			c2.6,0,5-1.2,6.7-3.2l23.9-29.9c4.8-6.1,12.2-9.6,20-9.6h264.9c14.1,0,25.6,11.5,25.6,25.6v93.9C539.5,519.5,528,531,513.9,531z
			 M121.3,445.7c-18.9,0-34.1,15.3-34.1,34.1c0,18.9,15.3,34.1,34.1,34.1h392.5c4.7,0,8.5-3.8,8.5-8.5v-93.9c0-4.7-3.8-8.5-8.5-8.5
			H249c-2.6,0-5,1.2-6.7,3.2l-23.9,29.9c-4.8,6.1-12.2,9.6-20,9.6H121.3z"/>
		<path id="Shape_145_" class="st4" d="M492.5,496.9h-51.2c-7.1,0-12.8-5.7-12.8-12.8v-51.2c0-7.1,5.7-12.8,12.8-12.8h51.2
			c7.1,0,12.8,5.7,12.8,12.8v51.2C505.3,491.1,499.6,496.9,492.5,496.9z M445.6,479.8h42.7v-42.7h-42.7V479.8z"/>
		<path id="Shape_144_" class="st4" d="M398.7,496.9h-51.2c-7.1,0-12.8-5.7-12.8-12.8v-51.2c0-7.1,5.7-12.8,12.8-12.8h51.2
			c7.1,0,12.8,5.7,12.8,12.8v51.2C411.5,491.1,405.7,496.9,398.7,496.9z M351.7,479.8h42.7v-42.7h-42.7V479.8z"/>
		<path id="Shape_143_" class="st4" d="M304.8,496.9h-51.2c-7.1,0-12.8-5.7-12.8-12.8v-51.2c0-7.1,5.7-12.8,12.8-12.8h51.2
			c7.1,0,12.8,5.7,12.8,12.8v51.2C317.6,491.1,311.9,496.9,304.8,496.9z M257.9,479.8h42.7v-42.7h-42.7V479.8z"/>
		<path id="Shape_142_" class="st4" d="M121.3,531c-1.8,0-3.6-0.1-5.4-0.3c-1.5-0.1-3-0.3-4.5-0.6l-0.3-0.1
			c-1.2-0.2-2.5-0.5-3.7-0.9c-0.6-0.2-1.3-0.4-1.9-0.6c-0.8-0.2-1.6-0.5-2.4-0.9c-0.9-0.3-1.7-0.6-2.6-1c-0.9-0.3-1.8-0.8-2.6-1.3
			c-1.3-0.6-2.6-1.4-3.9-2.2c-0.3-0.2-0.6-0.3-0.9-0.5c-0.8-0.5-1.6-1.1-2.4-1.7c-0.8-0.5-1.6-1.1-2.3-1.7c-2.5-2-4.7-4.2-6.7-6.7
			c-0.7-0.7-1.2-1.5-1.7-2.3c-0.6-0.8-1.2-1.6-1.7-2.5c-0.1-0.2-0.2-0.4-0.3-0.6c-0.8-1.3-1.6-2.7-2.3-4c-0.5-0.8-0.9-1.6-1.2-2.5
			c-0.4-0.9-0.8-1.8-1.1-2.7c-0.4-0.9-0.7-1.9-1-2.8c0,0-0.2-0.6-0.4-1.2c-0.5-1.5-0.8-3-1.1-4.5c-0.3-1.6-0.5-3.1-0.6-4.7
			c-0.2-1.6-0.3-3.3-0.3-4.9c0-1.8,0.1-3.6,0.3-5.4c0.1-1.4,0.3-2.9,0.6-4.3c0.2-1.4,0.5-2.7,0.9-4c0.6-1.9,0.9-3,1.3-4.1l1-2.5
			c0.1-0.4,0.3-0.8,0.5-1.2v-0.1c0.7-1.5,1.1-2.3,1.6-3.1c0.7-1.4,1.6-2.7,2.5-4c0.4-0.6,0.8-1.2,1.2-1.8c0.1-0.2,0.3-0.4,0.5-0.6
			c0.4-0.6,0.8-1.2,1.3-1.7c1-1.2,2-2.4,3.2-3.5l54.6-54.5c1.8-1.8,2.7-4.3,2.4-6.9l-4.3-38.1c-0.8-7.7,1.9-15.4,7.4-20.9
			l217.4-217.4c10.1-9.7,26.1-9.7,36.2,0l66.4,66.3c9.9,10,9.9,26.2,0,36.2L273.1,400.5c-2.1,2.2-5.3,3.1-8.3,2.3
			c-3-0.8-5.3-3.1-6.1-6.1c-0.8-3,0.1-6.2,2.3-8.3l192.2-192.3c1.6-1.6,2.5-3.8,2.5-6.1c0-2.3-0.9-4.5-2.5-6l-66.3-66.3
			c-3.4-3.2-8.7-3.2-12.1,0L157.3,335.2c-1.8,1.9-2.8,4.4-2.5,7l4.3,38c0.9,7.7-1.8,15.4-7.3,20.9l-54.6,54.5
			c-0.7,0.7-1.4,1.5-2,2.3c-0.2,0.2-0.4,0.4-0.6,0.7c-0.2,0.4-0.5,0.7-0.8,1c-0.3,0.4-0.5,0.7-0.8,1.2c-0.6,0.9-1.2,1.8-1.7,2.8
			c-0.2,0.4-0.5,0.8-0.7,1.3l-0.5,1v0.1l-0.8,2.1c-0.3,0.9-0.5,1.6-0.8,2.3c-0.3,1-0.5,1.9-0.7,2.9c-0.2,0.9-0.4,1.9-0.4,2.9
			c-0.2,1.2-0.3,2.5-0.3,3.8c0,1.1,0.1,2.2,0.2,3.3c0.1,1.1,0.2,2.1,0.4,3.2c0.1,0.7,0.3,1.4,0.5,2.2l0.5,1.6
			c0.1,0.1,0.5,1.5,0.5,1.6l0.4,1c0.1,0.3,0.2,0.5,0.3,0.8c0.1,0.3,0.5,1.1,0.6,1.5c0.9,1.5,1.3,2.4,1.9,3.2
			c0.1,0.2,0.3,0.5,0.4,0.7c0.1,0.2,0.2,0.3,0.3,0.5c-0.1-0.1,0.1,0,0.3,0.3c0.3,0.4,0.6,0.7,0.9,1.1c0.1,0.2,0.2,0.3,0.3,0.5
			c1.1,1.3,1.7,2,2.5,2.7c0.7,0.7,1.4,1.3,2.2,1.9c0.3,0.2,0.6,0.5,0.9,0.8c0.5,0.3,0.9,0.6,1.3,0.9c0.3,0.2,0.5,0.4,0.8,0.6
			c0.2,0.1,0.5,0.3,0.7,0.4c0.8,0.6,1.7,1.1,2.6,1.5c0.4,0.2,0.8,0.4,1.2,0.7c0.3,0.1,0.6,0.2,0.9,0.3c0.3,0.1,0.6,0.3,0.9,0.4
			l0.9,0.3l1.5,0.5l1.4,0.4c0.6,0.2,1.3,0.4,1.9,0.5c0.2,0,0.4,0.1,0.6,0.1c0.9,0.2,1.8,0.3,2.7,0.4c1.2,0.2,2.5,0.2,3.7,0.2
			c4.7,0,8.5,3.8,8.5,8.5S126,531,121.3,531z"/>
		<path id="Shape_141_" class="st4" d="M121.3,505.4c-12.2,0-22.7-8.6-25.1-20.6c-2.4-12,4-24,15.3-28.6c11.3-4.7,24.3-0.7,31.1,9.4
			c6.8,10.2,5.4,23.7-3.2,32.3C134.6,502.7,128.1,505.4,121.3,505.4z M121.3,471.3c-3.9,0-7.2,2.6-8.2,6.3c-1,3.7,0.6,7.7,4,9.6
			c3.3,1.9,7.6,1.4,10.3-1.4c2.4-2.4,3.2-6.1,1.8-9.3C127.9,473.3,124.8,471.3,121.3,471.3z"/>
		<path id="Shape_140_" class="st4" d="M374.8,245.2c-3.4,0-6.7-1.3-9-3.7l-36.2-36.2c-5-5-5-13.1,0-18.1l36.2-36.2
			c5-5,13.1-5,18.1,0l36.2,36.2c5,5,5,13.1,0,18.1l-36.2,36.2C381.4,243.9,378.2,245.2,374.8,245.2z M344.6,196.2l30.2,30.2
			l30.2-30.2L374.8,166L344.6,196.2z"/>
		<path id="Shape_139_" class="st4" d="M308.4,311.6c-3.4,0-6.7-1.3-9.1-3.7l-36.2-36.2c-5-5-5-13.1,0-18.1l36.2-36.2
			c5-5,13.1-5,18.1,0l36.2,36.2c2.4,2.4,3.8,5.7,3.8,9.1c0,3.4-1.3,6.7-3.8,9.1l-36.2,36.2C315,310.2,311.8,311.6,308.4,311.6z
			 M278.2,262.6l30.2,30.2l30.2-30.2l-30.2-30.2L278.2,262.6z"/>
		<path id="Shape_138_" class="st4" d="M242,378c-3.4,0-6.6-1.3-9-3.8L196.8,338c-5-5-5-13.1,0-18.1l36.2-36.2
			c2.4-2.4,5.6-3.8,9-3.7c3.4,0,6.7,1.3,9,3.7l36.2,36.2c5,5,5,13.1,0,18.1L251,374.2C248.7,376.6,245.4,378,242,378z M211.8,328.9
			l30.2,30.2l30.2-30.2L242,298.8L211.8,328.9z"/>
	</g>
</g>
</svg>
