<?xml version="1.0" encoding="utf-8"?>
<!-- Generator: Adobe Illustrator 22.0.1, SVG Export Plug-In . SVG Version: 6.00 Build 0)  -->
<svg version="1.1" id="Capa_1" xmlns="http://www.w3.org/2000/svg" xmlns:xlink="http://www.w3.org/1999/xlink" x="0px" y="0px"
	 viewBox="0 0 566.9 566.9" style="enable-background:new 0 0 566.9 566.9;" xml:space="preserve">
<style type="text/css">
	.st0{fill:#FFFFFF;}
	.st1{fill:#192B48;}
	.st2{fill:#E5BD29;}
	.st3{fill:#C85C6E;}
	.st4{fill:#4E78B6;}
	.st5{fill:#AA7D64;}
	.st6{fill:none;}
	.st7{fill:#FAF7F5;}
</style>
<g>
	<g transform="translate(1 1)">
		<path class="st1" d="M529.9,277.9v175.2c0,9.1-3.6,17.7-10,24.1c-6.4,6.4-15.1,10-24.1,10H69.1c-9.1,0-17.7-3.6-24.1-10
			s-10-15.1-10-24.1V277.9l29.1-113c2.7-10.3,11.5-17.8,22.1-18.9c0.9-0.1,1.7-0.2,2.6-0.2h23v-25.6c0-9.4,7.7-17,17.1-17.1h8.5
			V86.2c0-9.4,7.7-17,17.1-17.1h256c9.4,0,17,7.7,17.1,17.1v17.1h8.5c9.4,0,17,7.7,17.1,17.1v25.6h23c11.6,0,21.7,7.8,24.7,19
			L529.9,277.9z"/>
		<path class="st1" d="M504.3,277.9v175.2c0,9.1-3.6,17.7-10,24.1s-15.1,10-24.1,10H69.1c-9.1,0-17.7-3.6-24.1-10s-10-15.1-10-24.1
			V277.9l29.1-113c2.7-10.3,11.5-17.8,22.1-18.9c0.9-0.1,1.7-0.2,2.6-0.2h23v-25.6c0-9.4,7.7-17,17.1-17.1h8.5V86.2
			c0-9.4,7.7-17,17.1-17.1h230.4c9.4,0,17,7.7,17.1,17.1v17.1h8.5c9.4,0,17,7.7,17.1,17.1v25.6h23c0.9,0,1.7,0.1,2.6,0.2
			c10.6,1.1,19.4,8.6,22.1,18.9l21.5,83.5L504.3,277.9z"/>
		<g>
			<path class="st1" d="M504.3,277.9v72.8H35v-68.3c0-9.1,3.6-17.7,10-24.1c6.4-6.4,15.1-10,24.1-10h426.7c0.3,0,0.6,0,0.9,0.1
				L504.3,277.9z"/>
			<path class="st1" d="M436.1,401.9V419H128.9v-17.1c0-9.4,7.7-17,17.1-17.1H419C428.4,384.9,436,392.5,436.1,401.9z"/>
			<polygon class="st1" points="436.1,419 436.1,487.3 411.1,487.3 153.8,487.3 128.9,487.3 128.9,419 			"/>
		</g>
		<g>
			<path class="st0" d="M410.3,529.9H154.6c-2.6,0-5.1-1.1-6.8-3.1s-2.3-4.7-1.7-7.3L169.7,419h225.5l23.6,100.5
				c0.6,2.6,0,5.2-1.7,7.3C415.4,528.8,412.9,530,410.3,529.9z"/>
		</g>
		<path class="st0" d="M384.7,529.9H154.6c-2.6,0-5.1-1.1-6.8-3.1s-2.3-4.7-1.7-7.3L169.7,419h199.9l23.6,100.5
			c0.6,2.6,0,5.2-1.7,7.3C389.8,528.8,387.3,530,384.7,529.9z"/>
		<g>
			<circle class="st0" cx="86.2" cy="299.5" r="17.1"/>
			<path class="st1" d="M453.1,120.3v59.7H111.8v-59.7c0-9.4,7.7-17,17.1-17.1h307.2C445.5,103.3,453.1,110.9,453.1,120.3z"/>
			<path class="st1" d="M427.5,86.2v17.1H137.4V86.2c0-9.4,7.7-17,17.1-17.1h256C419.9,69.2,427.5,76.8,427.5,86.2z"/>
		</g>
		<g>
			<path class="st0" d="M393.4,43.5v136.5H171.5V43.5c0-4.7,3.8-8.5,8.5-8.5h204.8C389.6,35,393.4,38.8,393.4,43.5z"/>
		</g>
		<path class="st0" d="M367.8,43.5v136.5H171.5V43.5c0-4.7,3.8-8.5,8.5-8.5h179.2C364,35,367.8,38.8,367.8,43.5z"/>
		<g>
			<path class="st0" d="M145.9,248.3H419v51.2c0,9.4-7.6,17.1-17.1,17.1H163c-9.4,0-17.1-7.6-17.1-17.1L145.9,248.3L145.9,248.3z"/>
			<path class="st1" d="M239.8,282.5h85.3c9.4,0,17.1,7.6,17.1,17.1v17.1H222.7v-17.1C222.7,290.1,230.4,282.5,239.8,282.5z"/>
		</g>
		<g>
			<path class="st0" d="M419,248.3H145.9l5.3-21.2c1.9-7.6,8.7-12.9,16.6-12.9h229.4c7.8,0,14.7,5.3,16.6,12.9L419,248.3z"/>
		</g>
	</g>
	<path class="st1" d="M172.5,70.1h-17.1c-9.4,0-17,7.7-17.1,17.1v17.1h-8.5c-9.4,0-17,7.7-17.1,17.1v25.6h-23
		c-0.9,0-1.7,0.1-2.6,0.2c-10.6,1.1-19.4,8.6-22.1,18.9L36,278.9v175.2c0,9.1,3.6,17.7,10,24.1s15.1,10,24.1,10h25.6
		c-9.1,0-17.7-3.6-24.1-10s-10-15.1-10-24.1V278.9l29.1-113c2.7-10.3,11.5-17.8,22.1-18.9c0.9-0.1,1.7-0.2,2.6-0.2h23v-25.6
		c0-9.4,7.7-17,17.1-17.1h8.5V87.2c0-9.4,7.7-17,17.1-17.1"/>
	<g>
		<path class="st4" d="M510.1,163.8c-4-14.9-17.5-25.4-32.9-25.4h-14.5v-17.1c0-14.1-11.5-25.6-25.6-25.6v-8.5
			c0-14.1-11.5-25.6-25.6-25.6h-8.5V44.5c0-9.4-7.6-17.1-17.1-17.1H181.1c-9.4,0-17.1,7.6-17.1,17.1v17.1h-8.5
			c-14.1,0-25.6,11.5-25.6,25.6v8.5c-14.1,0-25.6,11.5-25.6,25.6v17.1H89.8c-15.5,0-29,10.5-32.9,25.4l-29.1,113
			c-0.2,0.7-0.3,1.4-0.3,2.1v175.2c0,23.6,19.1,42.6,42.7,42.7h73.8l-5.1,21.7c-1.2,5,0,10.4,3.2,14.4c3.3,4.1,8.3,6.5,13.5,6.5
			h255.7c5.3,0,10.3-2.4,13.5-6.5c3.2-4.1,4.4-9.4,3.2-14.4l-5.1-21.7h73.8c23.6,0,42.6-19.1,42.7-42.7V278.9c0-0.7-0.1-1.4-0.3-2.1
			L510.1,163.8z M445.6,121.3v51.2h-42.7v-59.7h34.1C441.8,112.8,445.6,116.6,445.6,121.3z M411.5,78.7c4.7,0,8.5,3.8,8.5,8.5v8.5
			h-17.1V78.7H411.5z M181.1,44.5h204.8v128H181.1V44.5z M155.5,78.7h8.5v17.1h-17.1v-8.5C146.9,82.5,150.8,78.7,155.5,78.7z
			 M121.3,121.3c0-4.7,3.8-8.5,8.5-8.5H164v59.7h-42.7V121.3z M73.3,168.1c2-7.5,8.7-12.7,16.4-12.7h14.5v17.1h-8.5
			c-4.7,0-8.5,3.8-8.5,8.5s3.8,8.5,8.5,8.5h375.5c4.7,0,8.5-3.8,8.5-8.5s-3.8-8.5-8.5-8.5h-8.5v-17.1h14.5c7.7,0,14.4,5.2,16.4,12.6
			l19.6,76c-5.2-2.2-10.7-3.3-16.3-3.3h-70.1L423,226c-2.8-11.4-13.1-19.4-24.8-19.4H168.8c-11.8,0-22,8-24.8,19.4l-3.7,14.7H70.1
			c-5.6,0-11.2,1.1-16.3,3.3L73.3,168.1z M44.5,283.5c0-14.1,11.5-25.6,25.6-25.6h68.3v42.7c0,14.1,11.5,25.6,25.6,25.6h238.9
			c14.1,0,25.6-11.5,25.6-25.6v-42.7h68.3c14.1,0,25.6,11.5,25.6,25.6v59.7H44.5V283.5z M334.7,309.1H232.3v-8.5
			c0-4.7,3.8-8.5,8.5-8.5h85.3c4.7,0,8.5,3.8,8.5,8.5L334.7,309.1L334.7,309.1z M326.1,274.9h-85.3c-14.1,0-25.6,11.5-25.6,25.6v8.5
			H164c-4.7,0-8.5-3.8-8.5-8.5v-42.7h256v42.7c0,4.7-3.8,8.5-8.5,8.5h-51.2v-8.5C351.7,286.4,340.3,274.9,326.1,274.9z M157.9,240.8
			l2.6-10.6c0.9-3.8,4.4-6.5,8.3-6.5h229.3c3.9,0,7.3,2.7,8.3,6.5l2.6,10.6L157.9,240.8L157.9,240.8z M428.5,411.5H138.4v-8.5
			c0-4.7,3.8-8.5,8.5-8.5H420c4.7,0,8.5,3.8,8.5,8.5L428.5,411.5L428.5,411.5z M138.4,479.7v-51.2H160l-12,51.2H138.4z M411.3,522.4
			l-255.9,0l22-93.9h212l22,93.8C411.4,522.4,411.4,522.4,411.3,522.4z M419,479.7l-12-51.2h21.6v51.2H419z M496.8,479.7h-51.2
			v-76.8c0-14.1-11.5-25.6-25.6-25.6H146.9c-14.1,0-25.6,11.5-25.6,25.6v76.8H70.1c-14.1,0-25.6-11.5-25.6-25.6v-93.9h477.9v93.9
			C522.4,468.3,510.9,479.7,496.8,479.7z"/>
		<path class="st4" d="M87.2,274.9c-14.1,0-25.6,11.5-25.6,25.6s11.5,25.6,25.6,25.6s25.6-11.5,25.6-25.6
			C112.8,286.4,101.3,274.9,87.2,274.9z M87.2,309.1c-4.7,0-8.5-3.8-8.5-8.5s3.8-8.5,8.5-8.5s8.5,3.8,8.5,8.5
			C95.7,305.2,91.9,309.1,87.2,309.1z"/>
	</g>
</g>
</svg>
