<?xml version="1.0" encoding="utf-8"?>
<!-- Generator: Adobe Illustrator 22.0.1, SVG Export Plug-In . SVG Version: 6.00 Build 0)  -->
<svg version="1.1" id="Capa_1" xmlns="http://www.w3.org/2000/svg" xmlns:xlink="http://www.w3.org/1999/xlink" x="0px" y="0px"
	 viewBox="0 0 566.9 566.9" style="enable-background:new 0 0 566.9 566.9;" xml:space="preserve">
<style type="text/css">
	.st0{fill:#FFFFFF;}
	.st1{fill:#192B48;}
	.st2{fill:#E5BD29;}
	.st3{fill:#C85C6E;}
	.st4{fill:#4E78B6;}
	.st5{fill:#AA7D64;}
	.st6{fill:none;}
	.st7{fill:#FAF7F5;}
</style>
<g>
	<g transform="translate(8 8)">
		<path class="st1" d="M164.5,87.7h256c4.7,0,8.5,3.8,8.5,8.5v358.4c0,4.7-3.8,8.5-8.5,8.5h-256c-4.7,0-8.5-3.8-8.5-8.5V96.3
			C156,91.6,159.8,87.7,164.5,87.7z"/>
		<path class="st1" d="M130.4,87.7h256c4.7,0,8.5,3.8,8.5,8.5v358.4c0,4.7-3.8,8.5-8.5,8.5h-256c-4.7,0-8.5-3.8-8.5-8.5V96.3
			C121.9,91.6,125.7,87.7,130.4,87.7z"/>
		<g>
			<path class="st1" d="M156,87.7h238.9c4.7,0,8.5,3.8,8.5,8.5v358.4c0,4.7-3.8,8.5-8.5,8.5H156c-4.7,0-8.5-3.8-8.5-8.5V96.3
				C147.5,91.6,151.3,87.7,156,87.7z"/>
			<path class="st0" d="M360.8,232.8v25.6H190.1v-25.6c0-4.7,3.8-8.5,8.5-8.5h25.6v-34.1c0-9.4,7.7-17,17.1-17.1h68.3
				c9.4,0,17,7.7,17.1,17.1v34.1h25.6C357,224.3,360.8,228.1,360.8,232.8L360.8,232.8z"/>
		</g>
		<path class="st0" d="M352.3,224.3H198.7c-4.7,0-8.5,3.8-8.5,8.5v85.3c0,4.7,3.8,8.5,8.5,8.5h25.6l-25.6,42.7h153.6l-25.6-42.7
			h25.6c4.7,0,8.5-3.8,8.5-8.5v-85.3C360.8,228.1,357,224.3,352.3,224.3z"/>
		<g>
			<g>
				<path class="st0" d="M326.7,301.1v25.6H224.3v-25.6c0-4.7,3.8-8.5,8.5-8.5h85.3C322.8,292.5,326.7,296.4,326.7,301.1
					L326.7,301.1z"/>
			</g>
			<g>
				<polygon class="st0" points="352.3,369.3 198.7,369.3 224.3,326.7 326.7,326.7 				"/>
			</g>
			<g>
				<path class="st0" d="M360.8,232.8v85.3c0,4.7-3.8,8.5-8.5,8.5h-25.6c4.7,0,8.5-3.8,8.5-8.5v-85.3c0-4.7-3.8-8.5-8.5-8.5h25.6
					C357,224.3,360.8,228.1,360.8,232.8L360.8,232.8z"/>
			</g>
			<g>
				<path class="st0" d="M326.7,190.1v34.1h-25.6v-34.1c0-9.4-7.7-17-17.1-17.1h25.6C319,173.1,326.6,180.7,326.7,190.1z"/>
			</g>
		</g>
	</g>
	<g>
		<path class="st4" d="M138.4,479.7h290.1c9.4,0,17.1-7.6,17.1-17.1V104.3c0-9.4-7.6-17.1-17.1-17.1H138.4
			c-9.4,0-17.1,7.6-17.1,17.1v34.1c0,4.7,3.8,8.5,8.5,8.5c4.7,0,8.5-3.8,8.5-8.5v-34.1h290.1v358.4H138.4v-256
			c0-4.7-3.8-8.5-8.5-8.5c-4.7,0-8.5,3.8-8.5,8.5v256C121.3,472.1,129,479.7,138.4,479.7z"/>
		<path class="st4" d="M129.9,78.7c4.7,0,8.5-3.8,8.5-8.5V36c0-4.7-3.8-8.5-8.5-8.5c-4.7,0-8.5,3.8-8.5,8.5v34.1
			C121.3,74.8,125.2,78.7,129.9,78.7z"/>
		<path class="st4" d="M70.1,104.3h34.1c4.7,0,8.5-3.8,8.5-8.5c0-4.7-3.8-8.5-8.5-8.5H70.1c-4.7,0-8.5,3.8-8.5,8.5
			C61.6,100.4,65.4,104.3,70.1,104.3z"/>
		<path class="st4" d="M129.9,539.5c4.7,0,8.5-3.8,8.5-8.5v-34.1c0-4.7-3.8-8.5-8.5-8.5c-4.7,0-8.5,3.8-8.5,8.5v34.1
			C121.3,535.6,125.2,539.5,129.9,539.5z"/>
		<path class="st4" d="M70.1,479.7h34.1c4.7,0,8.5-3.8,8.5-8.5c0-4.7-3.8-8.5-8.5-8.5H70.1c-4.7,0-8.5,3.8-8.5,8.5
			C61.6,475.9,65.4,479.7,70.1,479.7z"/>
		<path class="st4" d="M437.1,78.7c4.7,0,8.5-3.8,8.5-8.5V36c0-4.7-3.8-8.5-8.5-8.5c-4.7,0-8.5,3.8-8.5,8.5v34.1
			C428.5,74.8,432.4,78.7,437.1,78.7z"/>
		<path class="st4" d="M462.7,104.3h34.1c4.7,0,8.5-3.8,8.5-8.5c0-4.7-3.8-8.5-8.5-8.5h-34.1c-4.7,0-8.5,3.8-8.5,8.5
			C454.1,100.4,458,104.3,462.7,104.3z"/>
		<path class="st4" d="M428.5,496.8v34.1c0,4.7,3.8,8.5,8.5,8.5c4.7,0,8.5-3.8,8.5-8.5v-34.1c0-4.7-3.8-8.5-8.5-8.5
			C432.4,488.3,428.5,492.1,428.5,496.8z"/>
		<path class="st4" d="M462.7,479.7h34.1c4.7,0,8.5-3.8,8.5-8.5c0-4.7-3.8-8.5-8.5-8.5h-34.1c-4.7,0-8.5,3.8-8.5,8.5
			C454.1,475.9,458,479.7,462.7,479.7z"/>
		<path class="st4" d="M317.6,172.5h-68.3c-14.1,0-25.6,11.5-25.6,25.6v25.6h-17.1c-9.4,0-17.1,7.6-17.1,17.1v85.3
			c0,9.4,7.6,17.1,17.1,17.1h10.5l-17.8,29.7c-1.6,2.6-1.6,5.9-0.1,8.6c1.5,2.7,4.4,4.3,7.4,4.3h153.6c3.1,0,5.9-1.7,7.4-4.3
			c1.5-2.7,1.5-6-0.1-8.6l-17.8-29.7h10.5c9.4,0,17.1-7.6,17.1-17.1v-85.3c0-9.4-7.6-17.1-17.1-17.1h-17.1v-25.6
			C343.2,184,331.7,172.5,317.6,172.5z M240.8,198.1c0-4.7,3.8-8.5,8.5-8.5h68.3c4.7,0,8.5,3.8,8.5,8.5v25.6h-85.3L240.8,198.1
			L240.8,198.1z M345.2,368.8H221.7l15.4-25.6h92.7L345.2,368.8z M326.1,326.1h-85.3v-17.1h85.3V326.1z M343.2,326.1v-17.1
			c0-9.4-7.6-17.1-17.1-17.1h-85.3c-9.4,0-17.1,7.6-17.1,17.1v17.1h-17.1v-51.2h153.6l0,51.2H343.2z M360.3,257.9H206.7v-17.1h153.6
			L360.3,257.9z"/>
		<circle class="st4" cx="129.9" cy="172.5" r="8.5"/>
	</g>
</g>
</svg>
