<?xml version="1.0" encoding="utf-8"?>
<!-- Generator: Adobe Illustrator 22.0.1, SVG Export Plug-In . SVG Version: 6.00 Build 0)  -->
<svg version="1.1" id="Capa_1" xmlns="http://www.w3.org/2000/svg" xmlns:xlink="http://www.w3.org/1999/xlink" x="0px" y="0px"
	 viewBox="0 0 566.9 566.9" style="enable-background:new 0 0 566.9 566.9;" xml:space="preserve">
<style type="text/css">
	.st0{fill:#FFFFFF;}
	.st1{fill:#192B48;}
	.st2{fill:#E5BD29;}
	.st3{fill:#C85C6E;}
	.st4{fill:#4E78B6;}
	.st5{fill:#AA7D64;}
	.st6{fill:none;}
	.st7{fill:#FAF7F5;}
</style>
<g>
	<path class="st1" d="M420.8,120.1c2.4,2.7,4.7,5.5,7.3,8c5.8,5.4,9,12.1,10.8,19.7c4.6,20.3,3.1,40.8,1.6,61.3
		c-1.3,18.4-4.2,36.5-7,54.7c-1.2,8.1,2.8,12.6,10.7,13c5,0.2,10.1,0,16.3,0c0-3.2,0-5.5,0-7.8c0-8.7-0.2-17.4,0.1-26.1
		c0.2-6.5,3.7-10,9.2-9.8c5.1,0.2,8.2,3.8,8.3,10c0.1,3.8,0,7.6,0,11.4c0,7.3,0,14.6,0,21.8c14,1.5,18.4-3.1,16.6-15.5
		c-4.3-28.9-8.2-57.8-7.8-87.1c0.2-20.3,4.1-38.5,20.3-53.2c14.5-13,17.8-30.6,13.9-49.6C516.2,47.5,496.3,29,472,25.6
		c-23.6-3.4-47.1,8.8-58.8,30.4C401.6,77.2,404.5,101.5,420.8,120.1z"/>
	<path class="st0" d="M117.3,350.3c114.4,0,228.3,0,342.4,0c0-19,0-37.6,0-56.2c-114.5,0-228.4,0-342.4,0
		C117.3,313.1,117.3,331.6,117.3,350.3z"/>
	<path class="st1" d="M309.1,383.4c8.6-0.9,16.7,0.8,22.1,8.2c5.3,7.2,3.6,14.7,0,22.2c-9.9,20.2-19.6,40.4-29.3,60.6
		c-1,2.2-2.8,4.2-2.4,6.9c8.6,3.3,20.3-1.2,25-9.8c2.4-4.5,4.6-9,6.7-13.7c6.2-13.6,17.4-20.5,31.5-22.8c9.1-1.5,18-0.2,24.1,7.8
		c6,7.9,3.4,15.9-0.6,23.9c-7.8,16-15.5,32-23.3,48c-0.7,1.4-2,2.8-1.1,4.6c10.3,3.3,21-1.8,26.4-12.9
		c18.5-38.1,36.9-76.2,55.4-114.3c3.7-7.7,7.4-15.5,11.1-23.1c-2.2-1.8-4.2-1.2-6.1-1.2c-110.6-0.1-221.3-0.2-331.9-0.5
		c-4.3,0-6.3,1.6-8,5.3c-17.3,36.1-34.8,72-52.2,108c-4.1,8.5-8.1,17-12.1,25.5c10.5,3.8,21.8-1.5,26.9-12
		c7.9-16.2,15.7-32.4,23.5-48.6c7.4-15.3,20.2-22.5,36.7-23.1c18.5-0.6,27.3,13.6,19.4,30.3c-4.5,9.4-9.2,18.6-13.5,28
		c-1.6,3.3-4.1,6.4-4.1,10.3c2.7,1.9,5.3,1.8,8.1,1.3c9.8-1.8,15.8-7.7,19.9-16.7c7.6-16.7,24.4-25.7,41.8-23.4
		c13.7,1.8,20.8,13.7,15.6,26.5c-1.4,3.5-3.2,6.9-4.8,10.3c-8.1,16.8-16.2,33.5-24.4,50.6c10.8,4.1,21.8-1.2,27.2-12.2
		c19.5-40.2,39.1-80.3,58.4-120.6C281.9,392.7,293.5,385.1,309.1,383.4z"/>
	<path class="st4" d="M231.2,536.8c8.2-16.7,16.2-33.5,24.3-50.3c11.7-24.2,23.4-48.4,35.2-72.5c5.4-11,17.2-16.2,26.8-11.7
		c-1.1,2.5-2.3,4.9-3.4,7.4c-9.9,20.4-19.8,40.7-29.6,61.2c-6.6,13.8,0.1,26.3,15.1,28.7c14.7,2.3,32.8-6.6,39.8-19.8
		c2.9-5.4,5.3-11.1,8.1-16.5c4.8-8.9,17.1-13.7,25.7-9.7c-1,2.2-1.9,4.5-3,6.8c-7.8,16.2-15.8,32.3-23.5,48.6
		c-6.4,13.6-0.6,25.1,14,28.3c15.4,3.4,34.6-6.5,42.1-21.9c22.1-45.5,43.8-91.2,66.4-136.5c6.2-12.5,9.6-24.8,8.9-38.8
		c-0.8-15.2-0.2-30.4-0.2-46.4c2.9,0,4.8,0,6.7,0c17.9-0.3,30-14.5,27.5-32.1c-1.9-13.2-4.3-26.3-5.7-39.6
		c-2.1-20.6-4.3-41.3-1.8-62.1c1-8.5,3.4-16.1,10.1-22.5c9.5-9.1,17.9-19.4,21.5-32.5c14-50.5-23.2-96.8-71.9-96.8
		c-114.7,0.1-229.4-0.2-344,0.1C74.1,8.4,39.8,50.8,47.5,96.5c2.9,17.1,12.3,30,24.1,41.6c5.5,5.4,8.3,11.6,9.3,18.9
		c0.7,5.5,1.3,11,1.4,16.4c0.5,27-2.9,53.7-7,80.3c-1,6.2-2.9,12.4-1.2,18.9c3.5,13,12.6,19.5,25.9,21.7c0,19.2,0,38.3-0.1,57.3
		c0,1.2-0.7,2.4-1.3,3.5c-13.7,28.2-27.3,56.4-41,84.6c-9.1,18.9-18.4,37.7-27.4,56.6c-6.4,13.4-0.5,25.1,14,28.4
		c15,3.3,34.4-6.3,41.5-20.7c8.3-16.9,16.4-33.9,24.8-50.8c5.3-10.7,16.8-15.7,26.1-11.6c0.3,2.5-1.3,4.4-2.3,6.4
		c-5.4,11.3-11.1,22.4-16.3,33.7c-5.9,12.8-0.6,23.8,13,27.5c7.5,2.1,14.7,0.7,21.8-2c12.1-4.5,19.4-13.6,24.6-25.1
		c4.5-10.2,16.5-15,25.6-11.2c0.4,2.5-1.3,4.4-2.2,6.4c-8.5,17.7-17.2,35.4-25.6,53.2c-6.5,13.8,0.5,26.3,15.7,28.2
		c1.5,0.2,3,0.3,4.6,0.3C210,558.8,224.7,550.1,231.2,536.8z M459.7,350.3c-114.2,0-228.1,0-342.4,0c0-18.8,0-37.2,0-56.2
		c114,0,227.9,0,342.4,0C459.7,312.7,459.7,331.3,459.7,350.3z M472,25.6c24.3,3.5,44.3,21.9,49.1,45.3c3.9,19,0.6,36.5-13.9,49.6
		c-16.3,14.6-20.1,32.9-20.3,53.2c-0.3,29.3,3.5,58.3,7.8,87.1c1.9,12.4-2.6,16.9-16.6,15.5c0-7.1,0-14.5,0-21.8
		c0-3.8,0.1-7.6,0-11.4c-0.1-6.2-3.2-9.8-8.3-10c-5.5-0.2-9,3.3-9.2,9.8c-0.2,8.7-0.1,17.4-0.1,26.1c0,2.3,0,4.6,0,7.8
		c-6.2,0-11.2,0.2-16.3,0c-8-0.4-11.9-4.9-10.7-13c2.7-18.2,5.6-36.4,7-54.7c1.5-20.5,3-41-1.6-61.3c-1.7-7.6-4.9-14.3-10.8-19.7
		c-2.6-2.4-4.9-5.3-7.3-8c-16.3-18.5-19.2-42.8-7.7-64.1C424.9,34.3,448.4,22.2,472,25.6z M90.8,263.7c4.9-30.1,9-60.3,8.4-90.9
		c-0.2-8.1-0.9-16-2.6-23.9c-0.6-2.7-1.3-5.2-2.3-7.6h-9.7l-8.1-17.3l4.9,0c-11.2-11.6-18.8-24.9-18-42.5
		c1.4-30.1,26.2-55.9,55.9-56c97.5-0.2,194.9-0.1,292.4-0.1c0.8,0,1.7,0.1,4.1,0.3c-12.6,11.4-20.7,24.1-24.4,39.3
		c-6.6,27.4-0.2,51.4,20.5,70.7c9.3,8.7,11.9,19.1,12.5,30.7c1.5,32.3-2.7,64.2-8.2,96c-0.8,4.8,0.7,9.2,0.6,13.7
		c-2.1,1.5-4.3,0.9-6.3,0.9c-100.4,0-200.9,0-301.3,0c-2.8,0-5.5,0.1-8.3-0.1C93.5,276.1,89.6,270.9,90.8,263.7z M189.4,540
		c8.3-17.1,16.4-33.9,24.4-50.6c1.7-3.4,3.4-6.8,4.8-10.3c5.1-12.8-1.9-24.7-15.6-26.5c-17.4-2.3-34.3,6.7-41.8,23.4
		c-4.1,9-10.1,14.9-19.9,16.7c-2.8,0.5-5.4,0.6-8.1-1.3c0-3.9,2.5-7,4.1-10.3c4.4-9.4,9.1-18.6,13.5-28c8-16.7-0.8-30.9-19.4-30.3
		c-16.4,0.5-29.2,7.8-36.7,23.1c-7.9,16.2-15.6,32.4-23.5,48.6c-5.1,10.5-16.4,15.7-26.9,12c4.1-8.6,8-17.1,12.1-25.5
		c17.4-36,34.9-72,52.2-108c1.8-3.7,3.7-5.3,8-5.3c110.6,0.3,221.3,0.3,331.9,0.5c1.8,0,3.8-0.6,6.1,1.2
		c-3.7,7.6-7.3,15.4-11.1,23.1c-18.4,38.1-36.9,76.2-55.4,114.3c-5.4,11.1-16.1,16.2-26.4,12.9c-0.8-1.8,0.4-3.2,1.1-4.6
		c7.7-16,15.4-32,23.3-48c3.9-8,6.6-16,0.6-23.9c-6.1-8-15-9.3-24.1-7.8c-14.1,2.3-25.3,9.2-31.5,22.8c-2.1,4.6-4.3,9.2-6.7,13.7
		c-4.7,8.6-16.5,13.1-25,9.8c-0.4-2.7,1.3-4.7,2.4-6.9c9.7-20.2,19.5-40.4,29.3-60.6c3.6-7.5,5.3-15,0-22.2
		c-5.5-7.4-13.5-9.1-22.1-8.2c-15.7,1.7-27.2,9.3-34.2,23.8c-19.3,40.3-38.9,80.4-58.4,120.6C211.2,538.8,200.1,544.1,189.4,540z"/>
	<path class="st4" d="M266.2,132.5c0-4.8-3.9-8.7-8.7-8.7l-176.1,0c1,1.1,2.1,2.1,3.2,3.1c4.4,4.2,7.6,8.9,9.7,14.2h163.2
		C262.3,141.2,266.2,137.3,266.2,132.5z"/>
	<path class="st4" d="M84.6,127c-1.1-1-2.1-2.1-3.2-3.1l-4.9,0l8.1,17.3h9.7C92.2,135.9,88.9,131.2,84.6,127z"/>
</g>
</svg>
