<?xml version="1.0" encoding="utf-8"?>
<!-- Generator: Adobe Illustrator 22.0.1, SVG Export Plug-In . SVG Version: 6.00 Build 0)  -->
<svg version="1.1" id="Capa_1" xmlns="http://www.w3.org/2000/svg" xmlns:xlink="http://www.w3.org/1999/xlink" x="0px" y="0px"
	 viewBox="0 0 566.9 566.9" style="enable-background:new 0 0 566.9 566.9;" xml:space="preserve">
<style type="text/css">
	.st0{fill:#FFFFFF;}
	.st1{fill:#192B48;}
	.st2{fill:#E5BD29;}
	.st3{fill:#C85C6E;}
	.st4{fill:#4E78B6;}
	.st5{fill:#AA7D64;}
	.st6{fill:none;}
	.st7{fill:#FAF7F5;}
</style>
<g transform="translate(0 -1)">
	<g transform="translate(1 1)">
		<g>
			<polyline class="st5" points="171.3,195.3 86.2,232.3 35,275 86.2,297.2 86.2,445.6 282.5,531 478.7,445.6 478.5,445.5 
				478.7,444.9 478.7,296.5 529.9,274.2 478.7,231.5 478.7,232.3 394.8,195.9 			"/>
			<g>
				<g>
					<path class="st0" d="M478.7,232.3l-195.7,85.1l-0.6,0.3L86.2,232.3l85.1-37c25.3,33.5,72.2,65.8,112,88.2
						c39.7-22.3,86.2-54.4,111.5-87.6L478.7,232.3z"/>
				</g>
				<polygon class="st1" points="478.7,444.9 478.5,445.5 478.7,445.6 453.1,456.7 282.5,531 282.5,317.6 283.1,317.4 333.7,359.5 
					478.7,296.5 				"/>
			</g>
			<g>
				<polygon class="st1" points="453.1,309.1 453.1,456.7 282.5,531 282.5,350.8 282.5,317.6 333.7,359.5 				"/>
				<polygon class="st1" points="282.5,317.6 282.5,531 86.2,445.6 86.2,297.2 231.3,360.3 				"/>
				<polygon class="st1" points="282.5,317.6 231.3,360.3 86.2,297.2 35,275 86.2,232.3 				"/>
			</g>
			<polygon class="st1" points="529.9,274.2 478.7,296.5 333.7,359.5 332,358.2 283.1,317.4 454.8,242.7 478.7,232.3 478.7,231.5 
							"/>
			<polygon class="st1" points="503.7,283.5 452.5,305.8 332,358.2 283.1,317.4 454.8,242.7 			"/>
		</g>
		<g>
			<path class="st0" d="M404.7,52.8c-17.4-13.7-39.8-19.5-61.7-15.8c-25.2,3.9-47.2,19.2-59.7,41.5c-3.6-6.1-7.9-11.8-12.8-16.9
				c-18.6-19.7-45.8-28.9-72.5-24.6c-13.2,1.9-25.7,7.3-36.1,15.8c-30.3,25.7-30.3,76.9,0,128.2c2.8,5,5.9,9.7,9.4,14.3
				c22.7,30,62.5,59,99.2,80.8c4.4,2.6,8.6,5,12.8,7.4c39.7-22.3,86.2-54.4,111.5-87.6c3.7-4.7,7-9.6,9.9-14.8
				C435.1,129.7,435.1,78.5,404.7,52.8z"/>
		</g>
		<g>
			<path class="st0" d="M404.7,181c-2.9,5.2-6.2,10.2-9.9,14.8c-25.3,33.3-71.9,65.4-111.5,87.6c-4.2-2.4-8.4-4.9-12.8-7.4
				c36.5-21.7,76-50.4,98.7-80.2c3.7-4.7,7-9.6,9.9-14.8c30.4-51.3,30.4-102.5,0-128.2c-10.4-8.4-22.9-13.9-36.1-15.8
				c21.9-3.7,44.3,2.1,61.7,15.8C435.1,78.5,435.1,129.7,404.7,181z"/>
		</g>
	</g>
	<g>
		<g>
			<path class="st4" d="M87.2,375c3.4,0,6.6-2.1,7.9-5.3c1.3-3.2,0.6-6.9-1.8-9.3l-1.3-1c-0.5-0.3-1-0.6-1.5-0.8
				c-0.5-0.2-1-0.4-1.5-0.5c-0.6-0.1-1.1-0.2-1.7-0.2c-2.3,0-4.4,0.9-6.1,2.5c-2.1,2-3,4.9-2.4,7.7c0.6,2.8,2.5,5.1,5.2,6.2
				C85,374.8,86.1,375,87.2,375z"/>
			<path class="st4" d="M485.2,226c-1.5-1.2-3.3-1.9-5.3-1.9l-71-30.8c1.5-2.3,2.9-4.6,4.2-6.9c32.5-54.8,31.7-110.7-1.8-139
				c-19.7-15.6-45.2-21.9-69.9-17.6c-22.7,3.9-43.1,16.2-57,34.5c-13.9-18.3-34.3-30.7-57-34.5c-24.7-4.4-50.2,2-69.9,17.5
				c-33.6,28.3-34.3,84.2-2,138.8c1.2,2.2,2.6,4.3,3.9,6.4l-75.6,32.9c-0.7,0.3-1.3,0.7-1.8,1.2c-0.1,0.1-0.1,0.1-0.2,0.1
				l-51.2,42.7c-2.3,1.9-3.4,4.8-3,7.8s2.3,5.4,5,6.6l46.1,20v28.5c0,4.7,3.8,8.5,8.5,8.5c4.7,0,8.5-3.8,8.5-8.5v-21.1l133.1,57.9
				c3,1.3,6.4,0.8,8.9-1.3l37.2-31V519L95.7,441v-40.4c0-4.7-3.8-8.5-8.5-8.5c-4.7,0-8.5,3.8-8.5,8.5v46h0c0,3.4,2,6.5,5.1,7.8
				l196.3,85.3l0,0c0.1,0.1,0.3,0.1,0.4,0.1c0.9,0.4,1.9,0.6,2.9,0.6l0,0l0,0l0,0l0,0l0,0l0,0c1,0,2-0.2,2.9-0.6
				c0.1-0.1,0.3-0.1,0.4-0.1l0,0l196.3-85.3c3.3-1.4,5.3-4.7,5.1-8.2l0-0.2c0-0.1,0-0.1,0-0.2V303.1l46.1-20c2.7-1.2,4.6-3.7,5-6.6
				s-0.7-5.9-3-7.8L485.2,226z M168.4,60.4c12.4-9.8,27.8-15.1,43.6-14.8c27,0,51.9,14.6,65,38.3c1.7,2.4,4.4,3.9,7.3,3.9
				s5.7-1.5,7.3-3.9c11.1-19.6,30.3-33.3,52.5-37.2C364,43,384.4,48,400.3,60.4c27,22.8,26.2,69.9-2,117.5
				c-22.6,40.8-84.3,79.8-114,96.8c-29.7-17-91.4-56-114.1-97C142.2,130.3,141.5,83.1,168.4,60.4z M169.7,206.7
				c29.9,36.5,80.1,68.2,110.5,85.2c2.6,1.5,5.8,1.5,8.4,0c30.2-17,80.1-48.4,110-84.6l59.8,26l-174.9,76l-174.9-76L169.7,206.7z
				 M230.8,351.4L52.1,273.7l36.5-30.4l178.7,77.7L230.8,351.4z M471.2,441L292,519V336.1l37.2,31c2.5,2.1,5.9,2.6,8.9,1.3
				l133.1-57.9L471.2,441L471.2,441z M336.1,350.6l-35.9-29.9L478.9,243l35.9,29.9L336.1,350.6z"/>
			<path class="st4" d="M206.7,96.8c2.3,0,4.4-0.9,6-2.5c1.6-1.6,2.5-3.8,2.5-6v-8.5c0-4.7-3.8-8.5-8.5-8.5s-8.5,3.8-8.5,8.5v8.5
				c0,2.3,0.9,4.4,2.5,6C202.2,95.9,204.4,96.8,206.7,96.8z"/>
			<path class="st4" d="M206.7,113.8c-2.3,0-4.4,0.9-6,2.5c-1.6,1.6-2.5,3.8-2.5,6v8.5c0,4.7,3.8,8.5,8.5,8.5s8.5-3.8,8.5-8.5v-8.5
				c0-2.3-0.9-4.4-2.5-6C211.1,114.7,208.9,113.8,206.7,113.8z"/>
			<path class="st4" d="M181.1,113.8h8.5c4.7,0,8.5-3.8,8.5-8.5c0-4.7-3.8-8.5-8.5-8.5h-8.5c-4.7,0-8.5,3.8-8.5,8.5
				S176.3,113.8,181.1,113.8z"/>
			<path class="st4" d="M223.7,113.8h8.5c4.7,0,8.5-3.8,8.5-8.5c0-4.7-3.8-8.5-8.5-8.5h-8.5c-4.7,0-8.5,3.8-8.5,8.5
				C215.2,110,219,113.8,223.7,113.8z"/>
		</g>
	</g>
</g>
</svg>
