<?xml version="1.0" encoding="utf-8"?>
<!-- Generator: Adobe Illustrator 22.0.1, SVG Export Plug-In . SVG Version: 6.00 Build 0)  -->
<svg version="1.1" id="Capa_1" xmlns="http://www.w3.org/2000/svg" xmlns:xlink="http://www.w3.org/1999/xlink" x="0px" y="0px"
	 viewBox="0 0 566.9 566.9" style="enable-background:new 0 0 566.9 566.9;" xml:space="preserve">
<style type="text/css">
	.st0{fill:#FFFFFF;}
	.st1{fill:#192B48;}
	.st2{fill:#E5BD29;}
	.st3{fill:#C85C6E;}
	.st4{fill:#4E78B6;}
	.st5{fill:#AA7D64;}
	.st6{fill:none;}
	.st7{fill:#FAF7F5;}
</style>
<g>
	<g>
		<g>
			<path class="st0" d="M461.3,298.8v210.1c0,11.3-9.1,20.4-20.4,20.4H200.4c-5.4,0-10.6-2.1-14.4-6l-74.4-74.4c-3.8-3.8-6-9-6-14.4
				v-239h355.7v20.9"/>
		</g>
		<g>
			<path class="st1" d="M193.3,527.5v-66c0-11.3-9.1-20.4-20.4-20.4h-66"/>
		</g>
		<path class="st1" d="M461.3,195.5V58c0-11.3-9.1-20.4-20.4-20.4H126c-11.3,0-20.4,9.1-20.4,20.4v137.4H461.3z"/>
		<path class="st0" d="M265.9,416.2c2.5,4.3,7.1,7,12.1,7h29.2c5,0,9.6-2.7,12.1-7l21.6-37.5c2.3-4.1,2.7-9,1.1-13.4l-23.4-63.1h-26
			h-26l-23.4,63.1c-1.6,4.4-1.2,9.3,1.1,13.4L265.9,416.2z"/>
		<path class="st7" d="M334,302.2h-82.8v-31.3H334V302.2z"/>
	</g>
	<g>
		<path class="st4" d="M469.2,252.3c-2.4-3.6-7-5.3-11.2-4.2c-4.1,1.1-7.1,4.8-7.4,9.1c-0.7,9.5,11.3,14.6,17.7,7.6
			C471.3,261.4,471.7,256.1,469.2,252.3z"/>
		<path class="st4" d="M95.4,434.5c0,8.2,3.2,15.9,9,21.6l74.4,74.4c5.8,5.8,13.5,9,21.6,9h240.5c16.9,0,30.6-13.7,30.6-30.6V298.8
			c0-13.1-20.4-13.1-20.4,0v210.1c0,5.6-4.6,10.2-10.2,10.2H203.5v-57.5c0-16.9-13.7-30.6-30.6-30.6h-57.1V205.7h335.3v10.7
			c0,13.1,20.4,13.1,20.4,0V58c0-16.9-13.7-30.6-30.6-30.6H126c-16.9,0-30.6,13.7-30.6,30.6V434.5z M183.1,461.6V506l-54.6-54.6
			h44.4C178.5,451.4,183.1,455.9,183.1,461.6z M115.8,185.3V58c0-5.6,4.6-10.2,10.2-10.2h314.9c5.6,0,10.2,4.6,10.2,10.2v127.2
			H115.8z"/>
		<path class="st4" d="M292.6,459.4c5.6,0,10.2-4.6,10.2-10.2v-15.8h4.4c8.6,0,16.7-4.6,21-12.1l21.6-37.5c3.9-6.7,4.5-14.7,1.8-22
			l-18.3-49.4h0.7c5.6,0,10.2-4.6,10.2-10.2v-31.3c0-5.6-4.6-10.2-10.2-10.2h-82.8c-5.6,0-10.2,4.6-10.2,10.2v31.3
			c0,5.6,4.6,10.2,10.2,10.2h0.7l-18.3,49.4c-2.7,7.3-2,15.3,1.8,22l21.6,37.5c4.3,7.5,12.3,12.1,21,12.1h4.4v15.8
			C282.4,454.9,287,459.4,292.6,459.4L292.6,459.4z M261.4,281.1h62.4V292c-20.8,0-41.6,0-62.4,0V281.1z M278,413
			c-1.4,0-2.6-0.7-3.3-1.9l-21.6-37.5c-0.8-1.4-1-3.2-0.4-4.7l21-56.5h37.8l21,56.5c0.6,1.6,0.4,3.3-0.4,4.7l-21.6,37.5
			c-1.2,2.2-5.6,2.3-7.7,1.9v-26.5c0-13.1-20.4-13.1-20.4,0V413L278,413L278,413z"/>
		<g>
			<path class="st0" d="M338.3,83.1c-2.4-3.6-7-5.3-11.2-4.2c-4.1,1.1-7.1,4.8-7.4,9.1c-0.7,9.5,11.3,14.6,17.7,7.6
				C340.5,92.2,340.9,87,338.3,83.1z"/>
			<path class="st0" d="M278.8,75.8c-3.1-9.6-24.1-9.6-27.2,0L226.9,157c-2.2,8.7,17.5,14.7,19.8,6.1l4.5-16.7h28.1l4.5,16.7
				c2.4,8.6,22,2.5,19.8-6.1L278.8,75.8z M255.5,130.5l9.7-35.7l9.7,35.7H255.5z"/>
			<path class="st0" d="M340.2,117.7v-6.3c0-8.9-20.8-8.9-20.8,0v3.5v38.4v6.6c0,8.9,20.8,8.9,20.8,0v-3.5v-38.4
				C340.2,117.9,340.2,117.8,340.2,117.7z"/>
		</g>
	</g>
</g>
</svg>
