<?xml version="1.0" encoding="utf-8"?>
<!-- Generator: Adobe Illustrator 22.0.1, SVG Export Plug-In . SVG Version: 6.00 Build 0)  -->
<svg version="1.1" id="Capa_1" xmlns="http://www.w3.org/2000/svg" xmlns:xlink="http://www.w3.org/1999/xlink" x="0px" y="0px"
	 viewBox="0 0 566.9 566.9" style="enable-background:new 0 0 566.9 566.9;" xml:space="preserve">
<style type="text/css">
	.st0{fill:#FFFFFF;}
	.st1{fill:#192B48;}
	.st2{fill:#E5BD29;}
	.st3{fill:#C85C6E;}
	.st4{fill:#4E78B6;}
	.st5{fill:#AA7D64;}
	.st6{fill:none;}
	.st7{fill:#FAF7F5;}
</style>
<g id="Page-1_6_">
	<g id="_x30_13---Creative-Idea" transform="translate(0.000000, -1.000000)">
		<path id="Shape_235_" class="st1" d="M305.4,486.3l-15.9,37.5c-1.6,4.8-6.2,8.1-11.3,8.1s-9.6-3.3-11.3-8.1l-15.9-37.5
			c7.1-4.6,16-6.6,27.1-6.6S298.3,481.7,305.4,486.3z"/>
		<rect id="Rectangle-path_38_" x="227.1" y="293" class="st1" width="102.4" height="136.5"/>
		<rect id="Rectangle-path_37_" x="227.1" y="293" class="st1" width="76.8" height="136.5"/>
		<path id="Shape_230_" class="st0" d="M397,80.7c-9.5,1.7-18.4,6-25.5,12.6c-0.6,0.5-1.1,1-1.6,1.5c-7.3,7.5-12.3,16.9-14.3,27.1
			c-0.1,0.4-0.4,0.6-0.8,0.6s-0.7-0.2-0.8-0.6c-0.5-3-1.3-6-2.4-8.8c-5.2-13.9-16.2-24.9-30.1-30.1c-2.8-1.1-5.8-1.9-8.8-2.4
			c-0.4-0.1-0.6-0.4-0.6-0.8c0-0.4,0.2-0.7,0.6-0.8c6.3-1.2,12.4-3.5,17.8-6.8c4-2.5,7.7-5.5,10.8-9c6.6-7.1,11-16,12.6-25.5
			c0.1-0.4,0.4-0.6,0.8-0.6s0.7,0.2,0.8,0.6c1.8,10.3,6.8,19.8,14.3,27.1c7.3,7.5,16.8,12.5,27.1,14.3c0.4,0.1,0.6,0.4,0.6,0.8
			C397.6,80.2,397.4,80.6,397,80.7z"/>
		<rect id="Rectangle-path_36_" x="227.1" y="267.4" class="st0" width="102.4" height="42.7"/>
		<rect id="Rectangle-path_35_" x="227.1" y="267.4" class="st0" width="76.8" height="42.7"/>
		<path id="Shape_227_" class="st4" d="M278.3,540.5c-8.8,0-16.6-5.6-19.4-13.9l-39.7-93.7c-0.4-1.1-0.7-2.2-0.7-3.3V268
			c0-4.7,3.8-8.5,8.5-8.5c4.7,0,8.5,3.8,8.5,8.5v159.8l39.3,92.7c0.3,1.5,1.5,2.7,3,2.8c1.5,0.1,3-0.8,3.5-2.2l39.5-93.3V268
			c0-4.7,3.8-8.5,8.5-8.5s8.5,3.8,8.5,8.5v161.5c0,1.1-0.2,2.3-0.7,3.3l-39.9,94.3C294.5,535.2,286.8,540.5,278.3,540.5z"/>
		<path id="Shape_226_" class="st4" d="M329.5,438.1H227.1c-4.7,0-8.5-3.8-8.5-8.5s3.8-8.5,8.5-8.5h102.4c4.7,0,8.5,3.8,8.5,8.5
			S334.2,438.1,329.5,438.1z"/>
		<path id="Shape_225_" class="st4" d="M301,498c-2.1,0-4.2-0.8-5.8-2.2c-4.6-4.3-10.7-6.6-16.9-6.5c-4.7,0-8.5-3.8-8.5-8.5
			s3.8-8.5,8.5-8.5c10.5-0.1,20.7,3.8,28.5,10.9c2.6,2.4,3.5,6.1,2.2,9.4C307.6,495.8,304.5,498,301,498z"/>
		<path id="Shape_224_" class="st4" d="M255.6,498c-3.5,0-6.7-2.2-8-5.4c-1.3-3.3-0.4-7,2.2-9.4c7.7-7.1,17.9-11.1,28.5-10.9
			c4.7,0,8.5,3.8,8.5,8.5s-3.8,8.5-8.5,8.5c-6.3-0.1-12.3,2.2-16.9,6.5C259.8,497.2,257.7,498,255.6,498z"/>
		<path id="Shape_223_" class="st4" d="M329.5,318.6H227.1c-4.7,0-8.5-3.8-8.5-8.5v-42.7c0-4.7,3.8-8.5,8.5-8.5h102.4
			c4.7,0,8.5,3.8,8.5,8.5v42.7C338,314.8,334.2,318.6,329.5,318.6z M235.6,301.5h85.3v-25.6h-85.3V301.5z"/>
		<path id="Shape_221_" class="st4" d="M237.4,47.6c2.1,4,6.8,5.7,11,4.1c9.4-4,19.6-6.1,29.9-6.1V28.5c-12.6,0-25,2.6-36.6,7.5
			c-2.2,0.9-3.9,2.6-4.7,4.9C236.1,43,236.3,45.5,237.4,47.6z"/>
		<path id="Shape_220_" class="st4" d="M189.8,157.3l16.3-5.1c-5.5-16.2-6.1-33.6-1.7-50.1c0.7-2.5,1.5-4.9,2.4-7.3
			c1.4-4.2-0.5-8.9-4.5-10.9c-2.1-1-4.6-1.1-6.8-0.2c-2.2,0.9-3.9,2.7-4.7,4.9c-1.2,2.9-2.2,5.9-3,8.9
			C182.7,117.2,183.4,138,189.8,157.3z"/>
		<path id="Shape_219_" class="st4" d="M223.3,69.1c1.4-1.5,2.2-3.5,2.3-5.6l-0.1-1.6c-0.1-0.6-0.2-1.1-0.5-1.7
			c-0.1-0.5-0.4-1-0.6-1.5c-0.3-0.5-0.6-1-1-1.4c-1.5-1.7-3.6-2.7-5.9-2.8c-5.1,0.1-9.1,4.2-9,9.3c0.1,1.1,0.4,2.2,1,3.2
			c0.5,1,1.2,1.9,2.1,2.6c1.8,1.3,4,2,6.2,2C219.9,71.4,221.9,70.6,223.3,69.1z"/>
		<path id="Shape_218_" class="st4" d="M340.5,72.8c-2.4,0-4.6-1-6.2-2.7c-14.4-15.7-34.7-24.5-56-24.5c-4.7,0-8.5-3.8-8.5-8.5
			s3.8-8.5,8.5-8.5c26,0.1,50.7,10.9,68.4,29.9c2.3,2.5,2.9,6.1,1.6,9.2C347,70.7,343.9,72.8,340.5,72.8z"/>
		<path id="Shape_217_" class="st4" d="M329.5,275.9H227.1c-2.5,0-4.9-1.1-6.5-3s-2.3-4.4-1.9-6.9c-0.2-5.8-3.7-34.3-4.3-37.5
			c-2.3-12.1-5.6-24.1-9.9-35.7c-1.8-4.9-4-9.7-6.1-14.4c-3.3-6.8-6.1-13.9-8.5-21c-1.2-4.4,1.3-9,5.7-10.4s9,0.9,10.6,5.2
			c2.2,6.5,4.8,12.9,7.8,19.2c2.3,5.1,4.6,10.2,6.6,15.5c4.6,12.5,8.2,25.3,10.6,38.3c2.1,11.1,3.5,22.4,4.3,33.7h85.8
			c0.8-11.3,2.2-22.6,4.3-33.8c2.5-13,6-25.8,10.6-38.2c2-5.3,4.3-10.4,6.6-15.5c3-6.2,5.6-12.6,7.8-19.2c3-9.3,4.6-19,4.6-28.8
			c0-5.4-0.5-10.8-1.6-16.1c-1-4.6,2-9.1,6.6-10.1c4.6-1,9.1,2,10.1,6.6c1.3,6.4,2,13,2,19.6c-0.1,11.5-1.9,23-5.4,34
			c-2.4,7.2-5.3,14.2-8.5,21.1c-2.2,4.8-4.3,9.5-6.2,14.5c-4.3,11.6-7.6,23.4-9.8,35.5c-0.6,3.3-4.1,31.8-4.3,37.6
			c0.4,2.5-0.3,5-1.9,6.9C334.3,274.8,332,275.9,329.5,275.9z"/>
		<path id="Shape_212_" class="st4" d="M235.6,113.8c-0.7,0-1.4-0.1-2.1-0.3c-4.6-1.1-7.3-5.8-6.2-10.4c8.1-32.5,33.2-32,34.1-32.1
			c4.7,0.1,8.5,3.9,8.4,8.7c-0.1,4.7-3.9,8.5-8.7,8.4h-0.1c-1.4,0-12.6,0.9-17.2,19.1C242.9,111.1,239.5,113.8,235.6,113.8z"/>
		<path id="Shape_211_" class="st4" d="M295.3,275.9c-4.7,0-8.5-3.8-8.5-8.5V222c0-0.9,0.1-1.8,0.4-2.7l20.9-62.9l-26.6,5.3
			c-2.2,0.4-4.5,0.4-6.7,0l-26.6-5.3l20.9,62.9c0.3,0.9,0.4,1.8,0.4,2.7v45.4c0,4.7-3.8,8.5-8.5,8.5c-4.7,0-8.5-3.8-8.5-8.5v-44
			l-20.5-61.5c-1.9-5.8-0.6-12.1,3.4-16.7c4-4.6,10.2-6.6,16.1-5.4l26.5,5.3l26.6-5.3c6-1.2,12.1,0.9,16.1,5.4
			c4,4.6,5.3,10.9,3.4,16.7l-20.5,61.5v44C303.9,272.1,300,275.9,295.3,275.9z"/>
		<path id="Shape_210_" class="st4" d="M354.9,131.3c-4.5,0-8.4-3.3-9.2-7.8c-3.2-17.5-16.9-31.2-34.4-34.4
			c-4.5-0.8-7.7-4.7-7.7-9.2s3.3-8.4,7.7-9.2c17.5-3.2,31.3-16.9,34.4-34.4c0.8-4.5,4.6-7.8,9.2-7.8s8.4,3.3,9.2,7.8
			c1.5,8.6,5.6,16.5,11.8,22.6c6.1,6.2,14,10.4,22.6,11.9c4.5,0.8,7.7,4.7,7.7,9.2s-3.3,8.4-7.7,9.2C381,92.3,367.3,106,364,123.5
			C363.3,128,359.4,131.2,354.9,131.3z M334.4,79.8c4.2,2.5,8,5.6,11.5,9c3.4,3.4,6.5,7.2,9,11.4C360,92,367,85,375.3,79.9
			c-4.2-2.5-8-5.6-11.4-9c-3.5-3.4-6.5-7.3-9-11.4C349.8,67.8,342.8,74.8,334.4,79.8z"/>
		<path id="Shape_209_" class="st4" d="M141.7,199.1c-4.7,0-8.5-3.8-8.5-8.5v-17.1c0-4.7,3.8-8.5,8.5-8.5s8.5,3.8,8.5,8.5v17.1
			C150.3,195.3,146.4,199.1,141.7,199.1z"/>
		<path id="Shape_208_" class="st4" d="M124.7,216.2h-17.1c-4.7,0-8.5-3.8-8.5-8.5c0-4.7,3.8-8.5,8.5-8.5h17.1
			c4.7,0,8.5,3.8,8.5,8.5C133.2,212.4,129.4,216.2,124.7,216.2z"/>
		<path id="Shape_207_" class="st4" d="M141.7,250.3c-4.7,0-8.5-3.8-8.5-8.5v-17.1c0-4.7,3.8-8.5,8.5-8.5s8.5,3.8,8.5,8.5v17.1
			C150.3,246.5,146.4,250.3,141.7,250.3z"/>
		<path id="Shape_206_" class="st4" d="M175.9,216.2h-17.1c-4.7,0-8.5-3.8-8.5-8.5c0-4.7,3.8-8.5,8.5-8.5h17.1
			c4.7,0,8.5,3.8,8.5,8.5C184.4,212.4,180.6,216.2,175.9,216.2z"/>
		<path id="Shape_205_" class="st4" d="M411.3,255.3c-3.5,0-6.6-2.1-7.9-5.3s-0.6-6.9,1.8-9.3l12.1-12.1c3.3-3.2,8.7-3.2,12,0.1
			c3.3,3.3,3.3,8.6,0.1,12l-12.1,12.1C415.7,254.4,413.5,255.3,411.3,255.3z"/>
		<path id="Shape_204_" class="st4" d="M387.1,255.3c-2.3,0-4.4-0.9-6-2.5L369,240.8c-3.2-3.3-3.2-8.7,0.1-12
			c3.3-3.3,8.6-3.3,12-0.1l12.1,12.1c2.4,2.4,3.2,6.1,1.8,9.3S390.6,255.3,387.1,255.3z"/>
		<path id="Shape_203_" class="st4" d="M375.1,291.5c-3.5,0-6.6-2.1-7.9-5.3c-1.3-3.2-0.6-6.9,1.8-9.3l12.1-12.1
			c3.3-3.2,8.7-3.2,12,0.1c3.3,3.3,3.3,8.6,0.1,12L381.1,289C379.5,290.6,377.3,291.5,375.1,291.5z"/>
		<path id="Shape_202_" class="st4" d="M423.3,291.5c-2.3,0-4.4-0.9-6-2.5L405.2,277c-3.2-3.3-3.2-8.7,0.1-12
			c3.3-3.3,8.6-3.3,12-0.1l12.1,12.1c2.4,2.4,3.2,6.1,1.8,9.3S426.8,291.5,423.3,291.5z"/>
	</g>
</g>
</svg>
