<?xml version="1.0" encoding="utf-8"?>
<!-- Generator: Adobe Illustrator 22.0.1, SVG Export Plug-In . SVG Version: 6.00 Build 0)  -->
<svg version="1.1" id="Capa_1" xmlns="http://www.w3.org/2000/svg" xmlns:xlink="http://www.w3.org/1999/xlink" x="0px" y="0px"
	 viewBox="0 0 566.9 566.9" style="enable-background:new 0 0 566.9 566.9;" xml:space="preserve">
<style type="text/css">
	.st0{fill:#FFFFFF;}
	.st1{fill:#192B48;}
	.st2{fill:#E5BD29;}
	.st3{fill:#C85C6E;}
	.st4{fill:#4E78B6;}
	.st5{fill:#AA7D64;}
	.st6{fill:none;}
	.st7{fill:#FAF7F5;}
</style>
<g id="Page-1_7_">
	<g id="_x30_05---Truck">
		<g id="Oval_13_">
			<circle class="st0" cx="402.9" cy="420" r="51.2"/>
		</g>
		<g id="Oval_12_">
			<circle class="st0" cx="121.3" cy="420" r="51.2"/>
		</g>
		<path id="Shape_251_" class="st1" d="M121.3,368.8c-28.3,0-51.2,22.9-51.2,51.2h-8.5C47.5,420,36,408.5,36,394.4
			c0-14.1,11.5-25.6,25.6-25.6H121.3z"/>
		<path id="Shape_250_" class="st1" d="M402.9,368.8c-28.3,0-51.2,22.9-51.2,51.2H172.5c0-28.3-22.9-51.2-51.2-51.2H402.9z"/>
		<path id="Shape_248_" class="st1" d="M530.9,310.7v92.2c0,9.4-7.7,17-17.1,17.1h-59.7c0-28.3-22.9-51.2-51.2-51.2h-51.2V155.5
			h51.2V292c0,9.4,7.7,17,17.1,17.1h110.8C530.9,309.6,530.9,310.2,530.9,310.7L530.9,310.7z"/>
		<path id="Shape_245_" class="st0" d="M530.8,309.1H420c-9.4,0-17-7.7-17.1-17.1V155.5h56.8c6.9,0,13.2,4.2,15.8,10.6l51.5,125.1
			C529.4,296.8,530.7,302.9,530.8,309.1L530.8,309.1z"/>
		<g id="Shape_244_">
			<path class="st0" d="M351.7,112.8v256H53.1c-9.4,0-17-7.7-17.1-17.1V112.8c0-9.4,7.7-17,17.1-17.1h281.6
				C344.1,95.8,351.7,103.4,351.7,112.8z"/>
		</g>
		<circle id="Oval_11_" class="st4" cx="402.9" cy="420" r="17.1"/>
		<circle id="Oval_10_" class="st4" cx="121.3" cy="420" r="17.1"/>
		<g>
			<path id="Shape_241_" class="st1" d="M402.9,394.4c-14.1,0-25.6,11.5-25.6,25.6s11.5,25.6,25.6,25.6c14.1,0,25.6-11.5,25.6-25.6
				S417.1,394.4,402.9,394.4z M402.9,428.5c-4.7,0-8.5-3.8-8.5-8.5s3.8-8.5,8.5-8.5c4.7,0,8.5,3.8,8.5,8.5S407.6,428.5,402.9,428.5z
				"/>
			<path id="Shape_240_" class="st1" d="M121.3,394.4c-14.1,0-25.6,11.5-25.6,25.6s11.5,25.6,25.6,25.6s25.6-11.5,25.6-25.6
				S135.5,394.4,121.3,394.4z M121.3,428.5c-4.7,0-8.5-3.8-8.5-8.5s3.8-8.5,8.5-8.5c4.7,0,8.5,3.8,8.5,8.5S126,428.5,121.3,428.5z"
				/>
			<path id="Shape_239_" class="st4" d="M483.4,162.8c-3.9-9.6-13.3-15.9-23.7-15.8h-99.5v-34.1c0-14.1-11.5-25.6-25.6-25.6H53.1
				c-14.1,0-25.6,11.5-25.6,25.6v170.7c0,4.7,3.8,8.5,8.5,8.5s8.5-3.8,8.5-8.5V112.8c0-4.7,3.8-8.5,8.5-8.5h281.6
				c4.7,0,8.5,3.8,8.5,8.5v247.5H53.1c-4.7,0-8.5-3.8-8.5-8.5s-3.8-8.5-8.5-8.5s-8.5,3.8-8.5,8.5c0,7.5,3.4,14.7,9.2,19.5
				c-9.2,9.9-11.7,24.4-6.3,36.8s17.7,20.5,31.2,20.5h0.7c4.2,29.4,29.4,51.2,59.1,51.2s54.8-21.8,59.1-51.2h163.5
				c4.2,29.4,29.4,51.2,59.1,51.2c29.7,0,54.8-21.8,59.1-51.2h51.9c14.1,0,25.6-11.5,25.6-25.6v-92.3c0-7.8-1.5-15.5-4.5-22.7
				L483.4,162.8z M467.7,169.3l51.5,125.1c0.8,2,1.4,4,1.9,6.1H420c-4.7,0-8.5-3.8-8.5-8.5V164h48.3
				C463.2,164,466.3,166.1,467.7,169.3L467.7,169.3z M351.7,377.3h9.5c-9.4,9.2-15.5,21.2-17.3,34.1H180.4c-1.9-13-8-25-17.3-34.1
				H351.7z M49.5,406.5c-4.9-4.9-6.3-12.2-3.7-18.6s8.9-10.5,15.7-10.5h18c-9.4,9.2-15.5,21.2-17.3,34.1h-0.7
				C57.1,411.5,52.7,409.7,49.5,406.5z M121.3,462.7c-23.6,0-42.7-19.1-42.7-42.7s19.1-42.7,42.7-42.7S164,396.4,164,420
				C164,443.6,144.9,462.6,121.3,462.7z M402.9,462.7c-23.6,0-42.7-19.1-42.7-42.7s19.1-42.7,42.7-42.7c23.6,0,42.7,19.1,42.7,42.7
				C445.6,443.6,426.5,462.6,402.9,462.7z M513.9,411.5H462c-4.2-29.4-29.4-51.2-59.1-51.2h-42.7V164h34.1v128
				c0,14.1,11.5,25.6,25.6,25.6h102.4v17.1h-8.5c-4.7,0-8.5,3.8-8.5,8.5c0,4.7,3.8,8.5,8.5,8.5h8.5v17.1h-8.5
				c-4.7,0-8.5,3.8-8.5,8.5c0,4.7,3.8,8.5,8.5,8.5h8.5v17.1C522.4,407.7,518.6,411.5,513.9,411.5z"/>
			<path id="Shape_238_" class="st4" d="M36.2,326.1c-4.7,0-8.6-3.8-8.6-8.5c0-4.7,3.8-8.6,8.5-8.6h0.1c4.7,0,8.5,3.8,8.5,8.5
				S40.9,326.1,36.2,326.1z"/>
			<path id="Shape_237_" class="st4" d="M95.7,138.4c4.7,0,8.5-3.8,8.5-8.5s-3.8-8.5-8.5-8.5H70.1c-4.7,0-8.5,3.8-8.5,8.5
				s3.8,8.5,8.5,8.5H95.7z"/>
			<path id="Shape_236_" class="st4" d="M317.6,138.4c4.7,0,8.5-3.8,8.5-8.5s-3.8-8.5-8.5-8.5H129.9c-4.7,0-8.5,3.8-8.5,8.5
				s3.8,8.5,8.5,8.5H317.6z"/>
		</g>
	</g>
</g>
</svg>
