<?xml version="1.0" encoding="utf-8"?>
<!-- Generator: Adobe Illustrator 22.0.1, SVG Export Plug-In . SVG Version: 6.00 Build 0)  -->
<svg version="1.1" id="Capa_1" xmlns="http://www.w3.org/2000/svg" xmlns:xlink="http://www.w3.org/1999/xlink" x="0px" y="0px"
	 viewBox="0 0 200 200" style="enable-background:new 0 0 200 200;" xml:space="preserve">
<style type="text/css">
	.st0{fill:#192B48;}
	.st1{fill:#FFFFFF;}
	.st2{fill:#4E78B6;}
</style>
<g>
	<rect x="83.3" y="62.4" class="st0" width="17.4" height="5.8"/>
	<path class="st1" d="M71.8,111.6h81V82.7h-81V111.6z M100.7,85.6h23.1c1.6,0,2.9,1.3,2.9,2.9c0,1.6-1.3,2.9-2.9,2.9h-23.1
		c-1.6,0-2.9-1.3-2.9-2.9C97.8,86.9,99.1,85.6,100.7,85.6z"/>
	<path class="st1" d="M71.8,146.3h81v-28.9h-81V146.3z M100.7,120.3h23.1c1.6,0,2.9,1.3,2.9,2.9c0,1.6-1.3,2.9-2.9,2.9h-23.1
		c-1.6,0-2.9-1.3-2.9-2.9C97.8,121.6,99.1,120.3,100.7,120.3z"/>
	<rect x="42.8" y="30.6" class="st0" width="23.1" height="150.4"/>
	<path class="st1" d="M71.8,181h81v-28.9h-81V181z M100.7,155h23.1c1.6,0,2.9,1.3,2.9,2.9s-1.3,2.9-2.9,2.9h-23.1
		c-1.6,0-2.9-1.3-2.9-2.9S99.1,155,100.7,155z"/>
	<rect x="83.3" y="19" class="st0" width="23.1" height="5.8"/>
	<rect x="71.8" y="30.6" class="st0" width="81" height="5.8"/>
	<rect x="158.6" y="65.3" class="st0" width="23.1" height="115.7"/>
	<rect x="71.8" y="42.2" class="st0" width="81" height="5.8"/>
	<path class="st0" d="M71.8,76.9h81V53.7h-81V76.9z M138.3,56.7h5.8v5.8h-5.8V56.7z M138.3,65.3h5.8v5.8h-5.8V65.3z M129.6,56.7h5.8
		v5.8h-5.8V56.7z M129.6,65.3h5.8v5.8h-5.8V65.3z M120.9,56.7h5.8v5.8h-5.8V56.7z M120.9,65.3h5.8v5.8h-5.8V65.3z M112.3,56.7h5.8
		v5.8h-5.8V56.7z M112.3,65.3h5.8v5.8h-5.8V65.3z M77.5,56.7h28.9V74H77.5V56.7z"/>
	<path class="st2" d="M187.5,45.1c0-1.6-1.3-2.9-2.9-2.9h-26V27.7c0-1.6-1.3-2.9-2.9-2.9h-43.4V13.3H77.5v11.6H39.9
		c-1.6,0-2.9,1.3-2.9,2.9v45.1L17.4,53.2c-1.2-1.1-3-1.1-4.1,0.1c-1.1,1.1-1.1,2.9,0,4L37,81v26.6L17.4,87.9c-1.2-1.1-3-1.1-4.1,0.1
		c-1.1,1.1-1.1,2.9,0,4L37,115.7v68.2c0,1.6,1.3,2.9,2.9,2.9h144.7c1.6,0,2.9-1.3,2.9-2.9V62.4c0-1.6-1.3-2.9-2.9-2.9h-26V47.9h26v0
		C186.2,48,187.5,46.7,187.5,45.1z M83.3,19h23.1v5.8H83.3V19z M66,181H42.8V30.6H66V181z M152.8,181h-81v-28.9h81V181z
		 M152.8,146.3h-81v-28.9h81V146.3z M152.8,111.6h-81V82.7h81V111.6z M152.8,76.9h-81V53.7h81V76.9z M152.8,48h-81v-5.8h81V48z
		 M152.8,36.4h-81v-5.8h81V36.4z M181.7,65.3v115.7h-23.1V65.3H181.7z"/>
	<path class="st2" d="M106.5,56.7H77.5V74h28.9V56.7z M100.7,68.2H83.3v-5.8h17.4V68.2z"/>
	<rect x="112.3" y="56.7" class="st2" width="5.8" height="5.8"/>
	<rect x="112.3" y="65.3" class="st2" width="5.8" height="5.8"/>
	<rect x="120.9" y="56.7" class="st2" width="5.8" height="5.8"/>
	<rect x="120.9" y="65.3" class="st2" width="5.8" height="5.8"/>
	<rect x="129.6" y="56.7" class="st2" width="5.8" height="5.8"/>
	<rect x="129.6" y="65.3" class="st2" width="5.8" height="5.8"/>
	<rect x="138.3" y="56.7" class="st2" width="5.8" height="5.8"/>
	<rect x="138.3" y="65.3" class="st2" width="5.8" height="5.8"/>
	<path class="st2" d="M100.7,91.4h23.1c1.6,0,2.9-1.3,2.9-2.9c0-1.6-1.3-2.9-2.9-2.9h-23.1c-1.6,0-2.9,1.3-2.9,2.9
		C97.8,90.1,99.1,91.4,100.7,91.4z"/>
	<path class="st2" d="M100.7,126.1h23.1c1.6,0,2.9-1.3,2.9-2.9c0-1.6-1.3-2.9-2.9-2.9h-23.1c-1.6,0-2.9,1.3-2.9,2.9
		C97.8,124.8,99.1,126.1,100.7,126.1z"/>
	<path class="st2" d="M100.7,160.8h23.1c1.6,0,2.9-1.3,2.9-2.9s-1.3-2.9-2.9-2.9h-23.1c-1.6,0-2.9,1.3-2.9,2.9
		S99.1,160.8,100.7,160.8z"/>
</g>
</svg>
