<?xml version="1.0" encoding="utf-8"?>
<!-- Generator: Adobe Illustrator 22.0.1, SVG Export Plug-In . SVG Version: 6.00 Build 0)  -->
<svg version="1.1" id="Capa_1" xmlns="http://www.w3.org/2000/svg" xmlns:xlink="http://www.w3.org/1999/xlink" x="0px" y="0px"
	 viewBox="0 0 566.9 566.9" style="enable-background:new 0 0 566.9 566.9;" xml:space="preserve">
<style type="text/css">
	.st0{fill:#FFFFFF;}
	.st1{fill:#192B48;}
	.st2{fill:#E5BD29;}
	.st3{fill:#C85C6E;}
	.st4{fill:#4E78B6;}
	.st5{fill:#AA7D64;}
	.st6{fill:none;}
	.st7{fill:#FAF7F5;}
</style>
<g>
	<rect x="224.7" y="217.2" class="st1" width="165.7" height="127.8"/>
	<g>
		<path class="st6" d="M309.5,325.9c-0.3-0.2-0.6-0.4-0.7-0.7c-0.7-2.6-2.9-3.9-4.7-5.5c-1.9-1.7-2.7-4-4.5-5.7
			c-4.7-4.5-8.8-9.6-12.8-14.7c-0.9-1.2-1.9-2.8-3.3-2.9c-2.6,1.4-3.4,3.9-5.1,5.5c-4.2,3.8-7,8.7-11.3,12.4
			c-0.4,0.3-0.8,0.7-1.1,1.1c-2.9,4.7-7.2,8.3-10.7,12.5c-3.2,3.8-6,7.9-10.4,11.4c25.9,0,51.1,0,77.2,0
			C316.9,335.1,314,329.7,309.5,325.9z"/>
		<path class="st6" d="M354.4,310.4c-7.5,5.6-14.6,10.9-22.1,16.6c2.6,1.5,3.3,4.2,5.2,6c2,1.9,4.4,3.5,5.3,6.1
			c12.3,0,24.5,0,36.7,0c0-3.9,0-7.6,0-11.5c-7.5-5.6-15.1-11.4-22.9-17.2C355.8,310.4,354.9,310.4,354.4,310.4z"/>
		<path class="st6" d="M156.7,155.4c97.9,0,195.7,0,293.6,0c1.3,0,2.5,0.1,3.8,0.1V43.3c-99.1,0.1-198.3,0.1-297.4,0.1V155.4z"/>
		<path class="st6" d="M418.5,523.4c2.8,0,5.7-0.3,8.5,0.1c3,0.4,5.7-0.9,8.6-1.1c4.2-0.4,8-2.4,10.7-5.4c3.6-4.1,4.5-9.5,5.1-14.8
			c0.4-3.4,0.1-6.9,0.1-10.6c-64.3,0-128.1,0-192,0c0,4.8,0,9.5,0,14.1c0,1.1,0.1,2.3-0.2,3.4c-1.3,4.9-2.9,9.7-5.9,14.3
			c1.9,0,3.6,0,5.2,0C311.9,523.4,365.2,523.4,418.5,523.4z"/>
		<path class="st6" d="M261,296.6c3.8-4.1,6.9-8.8,11.2-12.4c0.4-0.3,0.9-0.6,1-1.1c1.6-3.6,4.7-5.6,7.8-7.7c1.6,0,3.3,0,4.5,0
			c2.5,1,4,2.7,5.7,4.2c1.6,1.3,2.1,3.2,3.5,4.6c5,4.9,9.1,10.6,13.9,15.7c4.5,4.8,8.2,10.4,13.3,14.3c10.4-7.3,20.3-15.6,31.1-22.8
			c2.4,0.1,5-0.4,7.3,1.4c5.7,4.4,11.4,8.7,17.1,13.1c0.6,0.4,1,0.7,1.9,0.3c0-26.1,0-52.4,0-78.5c-48,0-95.9,0-143.7,0
			c0,32.7,0,65.1,0,98.1c0.7-0.7,1.3-1.1,1.5-1.6c2.3-4.4,6.3-7.3,9.4-11.1C251.2,307.5,256,301.9,261,296.6z M332.7,235.1
			c10.7,0.5,24.2,12,22.8,24.6c0.8,6.3-2,11.8-6.2,16.1c-4.9,5.1-11.1,8.1-18.8,7.7c-6.4-0.3-11.8-2.7-16.1-6.9
			c-5-4.9-7.1-11.2-7.1-18.6C307.4,247.5,318.4,234.5,332.7,235.1z"/>
		<path class="st6" d="M336.7,265.3c3.9-4.2,3.1-8.1,0.3-11.8c-2-0.2-3.3-2.3-5.6-2.1c-2.3,0.3-3.9,1.8-5.2,2.3
			c-3.4,4.1-3.2,7.9,0.1,11.6C329.5,267.8,333.2,268.2,336.7,265.3z"/>
		<path class="st1" d="M90.4,82.9c-2-1.8-0.2-4.2-1.1-6c-1-2-1.3-4.2-1.8-6.2c-1.4-5.9-3.9-11.4-6.9-16.6c-2.2-3.7-5.6-6.4-8.7-9.7
			c-1.7,1.3-2.5-1.1-4.3-1c-1.7,0.1-2.8,1.9-4.5,1.1c-1.5,1-2.2,2.9-4.2,3.1c-0.4,2.1-2.3,3-3.4,4.6c-2.4,3.8-4.2,7.9-6,12
			c-1.9,4.3-2.3,9-4,13.3c0.7,2.8-1.2,5.3-1,8.1c0.2,2.8-0.6,5.4-1,8.1c-0.9,7.2,1,14.3,0.9,21.6c0,0.2-0.1,0.4,0,0.5
			c1.8,3.9,1.6,8.2,2.9,12.3c1.3,4.4,4.7,13.2,7.1,17c2.3,3.7,5.7,6.3,8.5,9.4c0.6,0,1.2-0.2,1.6,0c3.5,2.1,6.2,0.3,9.1-1.5
			c1.9-1.2,3.1-3,4.5-4.6c4.8-5.9,7.5-12.8,9.4-20c1-3.7,2.5-7.2,2-11.2c1.8-1.8,1.1-4.1,0.9-6.1c-0.3-2.4,1.1-4.3,1.2-6.6
			c0.4-6.9-1.2-13.7-1.1-20.6C90.5,83.5,90.6,83,90.4,82.9z"/>
		<path class="st1" d="M130.6,89.7c-0.8-2.8-0.6-6-1-9.1c-0.6-4.9-1.8-9.6-3.3-14.2c-3-9.1-6.6-15.2-12.8-20.6
			c-1.8-1.6-3.9-2.3-6-2.4c-4.6-0.3-9.2-0.1-14-0.1c2.6,5.5,5.2,10.7,7.6,16c2.6,5.9,3.1,12.3,5.4,18.3c-0.3,4.7,1.4,9.3,1.1,14.1
			c-0.4,6.5-0.1,13-0.1,19.5c0,1,0.3,2.2-0.1,3c-1.3,2.5-0.4,5.2-1.1,7.6c-0.7,2.6-1.5,5-2,7.7c-0.5,2.7-1.5,5.4-2.4,8
			c-2.3,6.1-5.4,11.9-8.6,18c3.3,0,6.3,0,9.3,0c3.1,0,6.2,0.4,9.3-0.9c1.2-0.8,2-2.7,3.1-2.9c2-0.3,1.7-2.1,2.6-3.1
			c4.6-4.8,8.2-14,9.8-20.4c0.9-3.7,2.4-7.2,2-11.2c1.8-2,1-4.4,0.9-6.6c-0.1-2.3,1.5-4.2,1.2-6.6C131,99.2,131.9,94.4,130.6,89.7z"
			/>
		<path class="st1" d="M130.7,217.6c-0.4-5.1-1.1-10.2-2.2-15.2c-1.1-4.8-2.5-9.6-4.5-14.1c-2.7-6.4-7-11.5-11.9-15.7
			c-6.1-2.2-12.2-0.8-18.4-1.3c1.8,5.7,5.3,10.1,7,15.6c1,3.1,1.8,6.3,3.2,9.2c1.5,3.1,0.8,6.6,2.6,9.4c-0.5,4.4,1.3,8.6,1.1,13.1
			c-0.4,7-0.1,14-0.1,21c0,1,0.3,2.1,0,3c-1.5,4.5-1.2,9.3-2.9,13.8c-1.1,2.9-1.4,6.1-2.5,9c-2.4,6.1-5.4,12-8.6,18.1
			c3.4,0,6.6-0.1,9.7,0c3.1,0.1,6.1-0.2,8.6-1.2c8.4-6.1,12.4-14.7,15.2-23.9c1.3-4.2,2.9-8.4,2.6-12.9c1.9-3,0-6.6,1.2-9.5
			c1.3-3.3,0.5-6.5,0.7-9.7C131.6,223.3,130.9,220.4,130.7,217.6z"/>
		<path class="st1" d="M90.6,218.1c-0.9-3-0.6-6.3-1-9.6c-0.6-4.7-1.8-9.3-3.3-13.7c-3-9.5-6.9-15.8-13-21c-3.6-3.1-8.2-3-12,0.1
			c-1.7,1.4-3.2,2.9-4.5,4.6c-4.7,6-7.8,12.7-9.4,20.1c-0.8,3.7-2.5,7.2-2,11.2c-1.8,2-1,4.4-0.9,6.6c0.1,2.5-1.4,4.6-1.1,7.1
			c0.4,4.7,0.2,9.4,0.8,14.1c0.7,5.1,1.2,10.1,2.3,15.1c0.9,4.1,1.9,8.1,3.6,12c3,6.9,6.8,13.3,13.3,17.9c1.5-1.2,2.2,1.1,3.9,1
			c1.7-0.1,2.8-1.8,4.6-1.1c1.5-1.2,2.5-3,4.6-3.5c2.3-3.7,5.1-7.2,6.9-11.1c2.2-4.9,4.3-10,5-15.4c0.2-1.2,1-2,1.1-3.1
			c0.1-1.3-0.5-2.9,0.1-3.9c1.6-2.8,0.1-5.9,1-8.6c1.1-3.1,0.9-6.1,0.8-9.1C91.4,224.5,91.6,221.3,90.6,218.1z"/>
		<path class="st1" d="M496.5,257c-1.5,5.9-3.6,11.5-6.1,16.9c-1.4,3.1-3.2,6.1-5.1,9.5c6.5-0.5,12.6,0.9,19-1.5
			c1.1-0.8,2-2.6,4.1-3.1c1.1-2.8,3.7-4.7,5-7.4c2-3.8,3.8-7.8,5-11.9c1.4-4.7,3.2-9.2,3-14.2c1.7-2.7,0.3-5.8,1.1-8.5
			c0.9-2.9,0.9-5.7,0.8-8.6c-0.1-3,0-6-0.8-9.1c-0.9-3.3-0.5-7-1-10.6c-0.7-4.9-1.8-9.6-3.3-14.2c-2.9-8.8-6.7-15.2-12.8-20.6
			c-1.7-1.5-3.7-2.1-5.5-2.3c-4.8-0.4-9.6-0.1-14.6-0.1c1.6,2.4,2.1,5,4.1,6.6c-0.1,3.5,2.4,6,3.5,9.1c1.2,3.2,2.2,6.4,3.2,9.6
			c1.1,3.2,2,6.7,2.2,10c0.1,3.6,1.5,6.9,1.2,10.6c-0.7,9.5,0.7,19-1,28.6C497.9,249.6,497.4,253.3,496.5,257z"/>
		<path class="st1" d="M496.6,127.7c-1.5,6.6-3.7,12.7-6.7,18.7c-1.4,2.9-2.9,5.9-4.4,9c2.4,0,4.4,0,6.4,0c2.2,0,4.4-0.2,6.5,0.1
			c2,0.2,3.6-1.4,5.6-1.1c1.3-1.3,2.5-2.7,3.9-3.9c5-3.9,10.1-16,11.6-22.7c0.8-3.5,2.3-6.9,2-10.7c1.8-2.3,0.6-5.1,1-7.6
			c0.4-2.5,1.2-4.9,1-7.6c-0.3-4.2-0.3-8.4-0.8-12.6c-0.6-5.1-1.1-10.1-2.2-15.1c-1.1-4.8-2.4-9.6-4.6-14.1
			c-2.9-6.2-6.5-11.7-12.1-15.5c-2.7-1.8-5.6-1.3-8.5-1.3c-3.1,0-6.3,0-9.7,0c2.1,5.5,5.8,9.9,6.9,15.5c3.1,4,2.7,9.2,5,13.4
			c0.4,6.6,2.4,13,2,19.6c-0.2,3.6,0.1,7.3-0.1,11c-0.2,4.2,0.4,8.4-0.6,12.7C498,119.6,497.5,123.7,496.6,127.7z"/>
		<g>
			<path class="st4" d="M538.6,208.7c0.4-2.1-1-3.7-1.2-5.6c-0.4-3.7-1.5-7.3-2.6-10.9c-0.9-3.1-2.2-6.1-3.3-9.1
				c-1.4-3.6-3.2-7-5.2-10.4c-2-3.5-5.7-5.7-6.9-9.8c1.8-0.7,1.8-2.9,3.2-4c3.2-2.8,5-6.6,6.8-10.2c2.7-5.5,4.6-11.4,6.4-17.4
				c1.9-6.6,2.2-13.4,3.8-19.9c-0.5-9.2,0.7-18.4-0.8-27.6c-0.7-4.4-1.2-8.8-2.2-13.1c-1.4-6.5-3.5-12.8-6.3-18.9
				c-2-4.3-4.5-8.2-7.6-11.9c-3.7-4.3-4.7-5.4-9.5-8.4c-2.5-1.5-5.4-2-7.6-3.9c-17.1,0-34.2,0-51.3,0c-99.1,0-198.3,0-297.4,0
				c-31.8,0-63.5,0-95.3,0c-2.2,1.9-5.1,2.4-7.6,3.9c-4.9,3-6,4.1-9.5,8.4c-3.3,4.1-5.9,8.5-8,13.2c-2.6,5.8-4.6,11.8-6,18
				c-1,4.5-2.2,9-2,13.7c0,0.5-0.3,0.9-1,0.8c0,9.3,0,18.7,0,28c1-0.1,1,0.6,1,1.3c0,2-0.6,4.3,0.2,5.9c0.8,1.8,0.1,4,1,5
				c1.5,1.7-0.2,4.1,1.8,5.3c0.8,7.1,4,13.3,7,19.5c1.4,2.9,2.9,5.7,5.3,7.7c1.7,1.4,1.8,3.8,3.8,4.7c-1.2,3.9-4.4,6.1-6.4,9.1
				c-3.9,5.9-6.8,12.1-8.7,18.9c-1.3,4.3-2.4,8.7-3.2,13.2c-0.5,2.7-0.8,5.4-0.8,8.1c0,0.7,0,1.4-1,1.3c0,9.3,0,18.7,0,28
				c0.6-0.1,1,0.3,1,0.8c0.1,2.9,0.4,5.7,0.8,8.6c1,5.9,2.7,11.6,4.4,17.2c1.7,5.8,5.2,10.9,8.1,16.1c1.1,1.9,3.2,3.1,4.2,5.3
				c1.1,2.2,3.7,3.1,5.6,4.6c4.2,3.1,8.7,5.5,14.2,5.4c30.3,0,60.6,0,90.9,0c1.4,0,2.8,0,4.1,0c3.1,0,6.1,0.1,8.5-2.4
				c2.3-2.4,2.1-5.3,2-7.7c-1.9-4.7-5.1-6.1-9.7-6c-1.7,0-3.3,0.1-5,0.1c-6.5,0.1-13,0-19.5-0.1c-1.3,0-2.6,0.5-3.5-0.2
				c1.9-5.4,5.7-9.7,6.8-15.3c3.7-5.6,3.4-12.5,5.9-18.5c-0.5-4.4,1.3-8.6,1.1-13.1c-0.3-7-0.1-14-0.1-21c0-1,0.3-2.1,0-3
				c-1.5-4.5-1.2-9.3-2.9-13.8c-1.1-2.9-1.4-6.1-2.5-9c-2.3-6.1-5.3-12-8.6-18.1c3.6,0,6.9-0.1,10.2,0c4.4,0.1,8.7-0.2,13.1,0.1
				c2.2,0.1,4.3,0.4,6.5,0.9c6.2,1.4,12,4.1,14.2,11.8c1.1,3.7,2,7.3,2,11.2c0,100.7,0,201.3,0,302c0,4.2-0.2,8.4,0.8,12.6
				c1.3,5.8,4.9,14.7,9,18.8c3.2,3.1,6.9,5.4,11,7.2c5,2.2,10.1,3.5,15.5,3.5c71.2,0,142.3,0,213.5,0c2.7,0,5.6,0.8,8.1-1
				c5.4,0.1,10-2.3,14.4-5.1c2.7-1.7,5.7-3.5,7.3-6.3c1.9-3.2,4-6.2,5.4-9.8c1.5-3.9,2.6-7.8,2.8-11.8c0.4-7.5,0.1-15,0.1-22.5
				c0-4.2-3.3-7.5-7.5-7.6c-4.3-0.1-8.7,0-13,0c-66,0-132,0-197.5,0c-4.8,1.9-6.1,5.2-6.1,9.7c0,7.4,0.8,14.8-0.9,22.1
				c-1.4,6.1-4.1,12-11.8,14.2c-3.7,1.1-7.3,1.8-11.2,2.1c-2.7,0.3-5.1-0.9-7.6-1.2c-6.1-0.8-12.4-4-14.6-11.9
				c-1-3.7-1.9-7.3-1.9-11.2c0-103,0-206,0-309c0-3.2-1-6.2-1.8-9.3c-0.8-3.4-3.2-6.1-4-9.6c64.4,0,128.6,0,192.7,0
				c6.9,0,13.7-0.7,20.6,0.9c5.8,1.3,12.4,4.1,14.5,12.1c1,3.7,1.9,7.3,1.9,11.2c0,84,0,168,0,252c0,2.1,0,4.3,0,6.4
				c1.1,2.8,3.4,4.2,5.4,5.1c5.2,0.9,8.6-0.8,10.6-5.7c0-87.9,0-176.2,0-264.5c0-2.7-1.2-5.2-1.7-7.8c-0.7-3.5-3-6.2-4.2-9.7
				c7.7,0,15.2,0,22.6,0c0.6,0,1.3,0,1.9,0c3.3-0.1,6.6-0.2,9.8,1c0.9,0.6,1.7,1.5,2.4,2.4c0.6,0.9,2.6,0.1,2.2,2
				c4,4.2,6.3,9.2,8.6,14.4c2,4.6,2.5,9.6,4.4,14.2c-0.7,2.8,1.2,5.3,1,8.1c-0.2,2.8,0.6,5.4,1,8.1c0.9,7.2-1,14.4-0.9,21.6
				c0,0.2,0.1,0.4,0,0.5c-1.8,3.9-1.7,8.2-2.9,12.3c-1.7,5.8-3.9,11.4-6.9,16.7c-2.2,3.9-5.8,6.6-8.3,9.3c-3.5,1.5-7,1.5-10.3,1.5
				c-1.8,0-3.5,0-5.2,0.2c-2.9,0.8-4.3,3.1-5.4,5.5c-0.6,4.8,0.9,8.4,6,10.3c1.5,0,3.1,0,4.6,0c15.7,0,31.7,0,47.8,0
				c1.1,0,2.2,0.2,3.4-0.3c3.8-1.7,7.7-3.1,11.1-5.9c2.2-1.9,4.1-3.8,6-6c2.9-3.4,5-7.2,7.1-11.1c3.2-5.9,5.3-12.2,6.8-18.6
				c1-4.1,2.4-8.3,2.2-12.6c-0.1-1.4-0.3-3,1-4.1c0-8.8,0-17.7,0-26.5C538,212.6,538.2,210.5,538.6,208.7z M90.6,236.8
				c-0.9,2.7,0.6,5.8-1,8.6c-0.6,1,0,2.6-0.1,3.9c-0.1,1.1-0.9,1.9-1.1,3.1c-0.7,5.4-2.8,10.5-5,15.4c-1.8,4-4.6,7.4-6.9,11.1
				c-2,0.5-3,2.3-4.6,3.5c-1.7-0.7-2.9,1-4.6,1.1c-1.6,0.1-2.4-2.2-3.9-1c-6.5-4.6-10.3-11-13.3-17.9c-1.7-3.9-2.7-7.9-3.6-12
				c-1.1-5-1.6-10.1-2.3-15.1c-0.6-4.7-0.4-9.4-0.8-14.1c-0.2-2.5,1.2-4.6,1.1-7.1c-0.1-2.2-0.9-4.6,0.9-6.6
				c-0.5-3.9,1.2-7.5,2-11.2c1.7-7.4,4.8-14.1,9.4-20.1c1.3-1.7,2.8-3.2,4.5-4.6c3.7-3,8.4-3.1,12-0.1c6.1,5.2,10,11.6,13,21
				c1.4,4.4,2.6,9,3.3,13.7c0.4,3.2,0.1,6.6,1,9.6c0.9,3.3,0.7,6.4,0.8,9.6C91.5,230.7,91.6,233.7,90.6,236.8z M91.6,104.4
				c-0.1,2.3-1.5,4.2-1.2,6.6c0.2,2,0.9,4.3-0.9,6.1c0.4,3.9-1.1,7.5-2,11.2c-1.9,7.2-4.6,14.2-9.4,20c-1.3,1.6-2.6,3.4-4.5,4.6
				c-2.9,1.8-5.6,3.7-9.1,1.5c-0.4-0.2-1,0-1.6,0c-2.8-3.1-6.1-5.7-8.5-9.4c-2.4-3.8-5.8-12.6-7.1-17c-1.2-4.1-1.1-8.4-2.9-12.3
				c-0.1-0.1,0-0.3,0-0.5c0.1-7.2-1.8-14.3-0.9-21.6c0.3-2.7,1.2-5.3,1-8.1c-0.2-2.8,1.7-5.3,1-8.1c1.7-4.3,2.1-9,4-13.3
				c1.8-4.1,3.6-8.2,6-12c1-1.6,3-2.5,3.4-4.6c2-0.2,2.8-2.1,4.2-3.1c1.7,0.8,2.8-1.1,4.5-1.1c1.8-0.1,2.6,2.4,4.3,1
				c3.1,3.3,6.5,6,8.7,9.7c3.1,5.2,5.5,10.7,6.9,16.6c0.5,2.1,0.8,4.2,1.8,6.2c0.9,1.8-0.8,4.3,1.1,6c0.2,0.2,0,0.6,0,1
				C90.4,90.7,92,97.5,91.6,104.4z M130.7,235.9c-1.2,2.9,0.7,6.5-1.2,9.5c0.4,4.6-1.3,8.8-2.6,12.9c-2.8,9.2-6.8,17.8-15.2,23.9
				c-2.5,1-5.5,1.3-8.6,1.2c-3.1-0.1-6.3,0-9.7,0c3.2-6.1,6.2-12,8.6-18.1c1.1-2.9,1.4-6.1,2.5-9c1.7-4.5,1.4-9.3,2.9-13.8
				c0.3-0.9,0-2,0-3c0-7-0.3-14,0.1-21c0.2-4.5-1.6-8.7-1.1-13.1c-1.8-2.9-1.1-6.3-2.6-9.4c-1.3-2.8-2.2-6.1-3.2-9.2
				c-1.7-5.4-5.2-9.9-7-15.6c6.1,0.5,12.2-0.9,18.4,1.3c4.9,4.2,9.1,9.3,11.9,15.7c2,4.6,3.4,9.3,4.5,14.1c1.2,5,1.8,10,2.2,15.2
				c0.2,2.8,1,5.7,0.8,8.6C131.2,229.4,132,232.6,130.7,235.9z M130.4,110.4c0.1,2.2,0.9,4.6-0.9,6.6c0.4,3.9-1.1,7.5-2,11.2
				c-1.6,6.3-5.2,15.6-9.8,20.4c-0.9,0.9-0.6,2.7-2.6,3.1c-1.1,0.2-1.9,2.1-3.1,2.9c-3.1,1.3-6.2,0.9-9.3,0.9c-3,0-5.9,0-9.3,0
				c3.2-6.1,6.2-11.9,8.6-18c1-2.6,2-5.2,2.4-8c0.5-2.6,1.3-5.1,2-7.7c0.7-2.4-0.3-5.1,1.1-7.6c0.4-0.8,0.1-2,0.1-3
				c0-6.5-0.3-13,0.1-19.5c0.3-4.8-1.4-9.3-1.1-14.1c-2.3-5.9-2.8-12.4-5.4-18.3c-2.3-5.3-5-10.5-7.6-16c4.8,0,9.4-0.2,14,0.1
				c2.1,0.1,4.2,0.8,6,2.4c6.2,5.4,9.8,11.5,12.8,20.6c1.5,4.6,2.7,9.3,3.3,14.2c0.4,3,0.2,6.2,1,9.1c1.3,4.7,0.4,9.4,0.9,14.1
				C131.8,106.2,130.3,108.1,130.4,110.4z M259.2,509.1c0.3-1.1,0.2-2.3,0.2-3.4c0-4.6,0-9.3,0-14.1c63.9,0,127.7,0,192,0
				c0,3.6,0.3,7.1-0.1,10.6c-0.6,5.3-1.5,10.7-5.1,14.8c-2.7,3-6.5,5-10.7,5.4c-2.9,0.3-5.6,1.5-8.6,1.1c-2.8-0.3-5.7-0.1-8.5-0.1
				c-53.3,0-106.6,0-160,0c-1.6,0-3.3,0-5.2,0C256.3,518.7,257.9,514,259.2,509.1z M482.6,109.2c-0.8,2.5,0.7,5.5-1.1,8.1
				c0.2,5.2-1.5,10-3.1,14.7c-1.3,3.9-3.2,7.7-4.9,11.4c-1.2,2.7-3.9,4.6-5,7.4c-2,0.6-3.1,2.2-4.1,3.1c-3.5,1.5-6.9,1.5-10.2,1.4
				c-1.3,0-2.5-0.1-3.8-0.1c-97.9,0-195.7,0-293.6,0c-6.1,0-12.2,0-18.3,0c-1.6,0-3.3,0-5,0c3.5-7.1,7.2-13.6,9.4-20.9
				c1-3.3,2-6.6,2.5-9.9c0.3-2,1.7-3.9,1.1-6.1c-0.6-2.3,1.4-4.2,1.1-6.6c-0.3-2.1-0.1-4.3-0.1-6.5c0-5.5-0.2-11,0.1-16.5
				c0.2-4-1.8-7.6-1.1-11.6c-2.5-5.9-2.9-12.3-5.5-18.2c-2.3-5.2-5.2-10.1-7.2-15.5c1-0.6,2.4-0.2,3.7-0.2c6.5,0,12.9,0,19.4,0
				c99.1,0,198.3,0,297.4-0.1c0.9,0,1.8,0,2.6,0c2.5,0,4.7,0.9,7,1.1c5.6,4.1,9.1,9.7,12.1,15.8c2.1,4.4,3.4,9,4.5,13.6
				c1.2,5.3,1.9,10.7,2.3,16.1c0.2,3.5,0.8,7,0.8,10.6C483.5,103.5,483.5,106.3,482.6,109.2z M499.4,102.9c0.2-3.7-0.1-7.3,0.1-11
				c0.4-6.7-1.6-13.1-2-19.6c-2.3-4.2-1.9-9.5-5-13.4c-1.1-5.6-4.8-10-6.9-15.5c3.4,0,6.5,0,9.7,0c2.9,0,5.9-0.5,8.5,1.3
				c5.6,3.8,9.2,9.3,12.1,15.5c2.1,4.5,3.5,9.3,4.6,14.1c1.1,5,1.6,10.1,2.2,15.1c0.5,4.2,0.5,8.4,0.8,12.6c0.2,2.6-0.6,5.1-1,7.6
				c-0.4,2.5,0.8,5.2-1,7.6c0.4,3.7-1.2,7.1-2,10.7c-1.5,6.7-6.6,18.7-11.6,22.7c-1.4,1.1-2.6,2.6-3.9,3.9c-2-0.3-3.5,1.3-5.6,1.1
				c-2.1-0.3-4.3-0.1-6.5-0.1c-2,0-4,0-6.4,0c1.5-3.1,3-6,4.4-9c3-6,5.2-12.2,6.7-18.7c0.9-4,1.4-8.1,2.3-12
				C499.9,111.4,499.2,107.2,499.4,102.9z M522.6,236.9c-0.8,2.7,0.6,5.8-1.1,8.5c0.1,5-1.6,9.6-3,14.2c-1.2,4.1-3,8.1-5,11.9
				c-1.4,2.7-3.9,4.6-5,7.4c-2,0.4-3,2.3-4.1,3.1c-6.4,2.3-12.5,0.9-19,1.5c1.8-3.4,3.6-6.4,5.1-9.5c2.5-5.5,4.7-11.1,6.1-16.9
				c0.9-3.7,1.5-7.4,2.1-11.1c1.7-9.5,0.3-19.1,1-28.6c0.3-3.7-1.1-7-1.2-10.6c-0.1-3.4-1.1-6.8-2.2-10c-1.1-3.2-2.1-6.5-3.2-9.6
				c-1.1-3-3.6-5.6-3.5-9.1c-2-1.6-2.5-4.2-4.1-6.6c5,0,9.9-0.3,14.6,0.1c1.8,0.2,3.8,0.8,5.5,2.3c6.2,5.4,9.9,11.8,12.8,20.6
				c1.5,4.6,2.6,9.3,3.3,14.2c0.5,3.6,0.1,7.2,1,10.6c0.8,3.1,0.7,6.1,0.8,9.1C523.5,231.1,523.5,234,522.6,236.9z"/>
			<path class="st4" d="M391.1,212.4c-0.4-0.2-0.7-0.6-1.1-1c-55,0-110,0-164.1,0c-5.6,1.8-6.5,5.5-6.5,10.1
				c0.1,27.3,0.1,54.7,0.1,82c0,15.5,0,31,0,45.1c1,4.2,3.3,5.6,5.6,6.7c55.2,0,110.1,0,164,0c3.7-1,5.2-2.9,6.4-6.1
				c0-0.9,0-2.6,0-4.2c0-34.7,0-69.3,0-104c0-7.2,0-14.3,0-21.5C395.5,216.2,394.4,213.6,391.1,212.4z M235.6,325.7
				c0-33,0-65.4,0-98.1c47.7,0,95.6,0,143.7,0c0,26.2,0,52.4,0,78.5c-0.9,0.4-1.3,0.1-1.9-0.3c-5.7-4.4-11.4-8.7-17.1-13.1
				c-2.3-1.8-4.9-1.2-7.3-1.4c-10.8,7.2-20.7,15.5-31.1,22.8c-5.1-4-8.8-9.5-13.3-14.3c-4.8-5.1-8.9-10.8-13.9-15.7
				c-1.4-1.4-1.9-3.3-3.5-4.6c-1.7-1.4-3.2-3.2-5.7-4.2c-1.2,0-2.9,0-4.5,0c-3.1,2.1-6.2,4.1-7.8,7.7c-0.2,0.4-0.7,0.7-1,1.1
				c-4.3,3.6-7.4,8.3-11.2,12.4c-5,5.3-9.8,10.9-14.4,16.5c-3.1,3.7-7.1,6.7-9.4,11.1C236.9,324.6,236.4,325,235.6,325.7z
				 M244.9,339.3c4.4-3.5,7.2-7.7,10.4-11.4c3.5-4.2,7.8-7.8,10.7-12.5c0.3-0.4,0.7-0.7,1.1-1.1c4.2-3.7,7.1-8.6,11.3-12.4
				c1.7-1.6,2.5-4.2,5.1-5.5c1.4,0.2,2.4,1.7,3.3,2.9c4,5.1,8.1,10.2,12.8,14.7c1.8,1.7,2.6,4,4.5,5.7c1.8,1.6,4,3,4.7,5.5
				c0.1,0.3,0.4,0.5,0.7,0.7c4.6,3.8,7.4,9.2,12.6,13.4C296,339.3,270.9,339.3,244.9,339.3z M379.5,339.1c-12.2,0-24.4,0-36.7,0
				c-0.9-2.6-3.3-4.2-5.3-6.1c-1.9-1.8-2.6-4.6-5.2-6c7.5-5.6,14.6-11,22.1-16.6c0.5,0,1.5,0,2.2,0c7.8,5.8,15.4,11.6,22.9,17.2
				C379.5,331.6,379.5,335.2,379.5,339.1z"/>
			<path class="st4" d="M225.5,387.4c38.5,0,77.5,0,115.6,0c5.8-1.9,6.9-5.8,6.1-10.4c-0.6-3.2-3.1-4.3-5.3-5.5
				c-39.1,0-78.1,0-116,0c-3.6,1-5.2,2.9-6.4,6.1C218.8,381.6,220.2,385.4,225.5,387.4z"/>
			<path class="st4" d="M395.2,409c-0.6-3.2-3.1-4.3-5.4-5.5c-39.1,0-78.1,0-116,0c-3.6,1-5.2,2.9-6.4,6.1c-0.6,4,0.8,7.8,6,9.8
				c38.5,0,77.5,0,115.6,0C394.9,417.5,396,413.6,395.2,409z"/>
			<path class="st4" d="M225,451.4c39,0,78,0,116.5,0c5.3-2,6.6-5.8,5.8-10.4c-0.6-3.2-3.1-4.3-5.3-5.5c-39.1,0-78.1,0-116,0
				c-3.7,1-5.2,2.9-6.4,5.9C219.4,447.5,219.7,448,225,451.4z"/>
			<path class="st4" d="M389.4,371.4c-6.5,0-13.5,0-20,0c-5.3,2-6.6,5.8-5.8,10.5c0.8,2.9,3.1,4.3,5.4,5.4c7.1,0,14.1,0,20,0
				c3.6-1,5.2-2.9,6.4-6.1C396.1,377.2,394.7,373.4,389.4,371.4z"/>
			<path class="st4" d="M225.5,419.4c6.3,0,13.2,0,20.5,0c5.3-3.4,5.6-3.9,5.4-10.6c-2-3.3-2-3.3-5.5-5.3c-7.1,0-14.1,0-20,0
				c-3.7,1-5.2,2.9-6.4,6.1C218.9,413.6,220.2,417.4,225.5,419.4z"/>
			<path class="st4" d="M369.3,451.4c6.2,0,12.3-0.1,18.5,0c2.5,0,4.2-1.2,5.9-2.7c0.9-0.8,0.5-2.3,1.8-2.8c0-0.6,0-1.3,0-2
				c0-5.5-3-8.5-8.6-8.5c-6,0-12,0-17.4,0c-5.4,2.1-6.7,5.8-5.8,10.5C364.5,448.9,366.8,450.2,369.3,451.4z"/>
			<path class="st4" d="M330.5,283.5c7.7,0.3,13.9-2.6,18.8-7.7c4.1-4.3,7-9.8,6.2-16.1c1.4-12.5-12-24.1-22.8-24.6
				c-14.3-0.6-25.3,12.4-25.4,22.9c0,7.3,2,13.6,7.1,18.6C318.7,280.8,324.1,283.2,330.5,283.5z M326.1,253.7c1.3-0.5,3-2,5.2-2.3
				c2.3-0.3,3.6,1.9,5.6,2.1c2.8,3.7,3.7,7.6-0.3,11.8c-3.4,3-7.2,2.6-10.4,0C322.9,261.5,322.7,257.8,326.1,253.7z"/>
		</g>
	</g>
</g>
</svg>
