<?xml version="1.0" encoding="utf-8"?>
<!-- Generator: Adobe Illustrator 22.0.1, SVG Export Plug-In . SVG Version: 6.00 Build 0)  -->
<svg version="1.1" id="Capa_1" xmlns="http://www.w3.org/2000/svg" xmlns:xlink="http://www.w3.org/1999/xlink" x="0px" y="0px"
	 viewBox="0 0 566.9 566.9" style="enable-background:new 0 0 566.9 566.9;" xml:space="preserve">
<style type="text/css">
	.st0{fill:#FFFFFF;}
	.st1{fill:#192B48;}
	.st2{fill:#E5BD29;}
	.st3{fill:#C85C6E;}
	.st4{fill:#4E78B6;}
	.st5{fill:#AA7D64;}
	.st6{fill:none;}
	.st7{fill:#FAF7F5;}
</style>
<g id="Page-1_8_">
	<g id="_x30_25---Parcel-and-Tape">
		<path id="Shape_269_" class="st2" d="M451.3,199.3l-48.4-20.1l-69-0.1l-169.1-0.3l-0.8,0.3l-128,53v190.6c0,3.5,2.1,6.6,5.3,7.9
			l242.2,100.2l242.2-100.2c3.2-1.3,5.3-4.4,5.3-7.9V232.3L451.3,199.3z"/>
		<polygon id="Shape_268_" class="st1" points="530.9,232.3 392,289.8 385.9,292.3 283.5,334.7 206.7,302.9 121.3,267.6 36,232.3 
			164,179.3 164.8,178.9 333.9,179.2 402.9,179.3 451.3,199.3 		"/>
		<path id="Shape_267_" class="st1" d="M283.5,334.7v196.3L41.3,430.7c-3.2-1.3-5.3-4.4-5.3-7.9V232.3L283.5,334.7z"/>
		<path id="Shape_266_" class="st1" d="M530.9,232.3l0,190.5c0,3.5-2.1,6.6-5.3,7.9L283.5,530.9V334.7l102.5-42.4l6.1-2.5
			l113.3-46.9L530.9,232.3z"/>
		<path id="Shape_265_" class="st1" d="M505.3,242.8l0,188.5c0,3.5-2.1,6.6-5.3,7.9l-216.6,89.6V334.7l102.5-42.4l6.1-2.5
			L505.3,242.8z"/>
		<g id="Shape_264_">
			<path class="st0" d="M451.3,199.3L206.7,302.9v53.8c0,3.5-2.1,6.6-5.3,7.9s-6.9,0.6-9.3-1.9l-24.8-24.8c-2-2-4.9-2.9-7.7-2.4
				l-28,5.6c-2.5,0.5-5.1-0.1-7.1-1.8s-3.1-4-3.1-6.6v-65.2l212.6-88.4l69,0.1L451.3,199.3z"/>
		</g>
		<g id="Shape_263_">
			<polygon class="st0" points="451.3,199.3 206.7,302.9 121.3,267.6 333.9,179.2 402.9,179.3 			"/>
		</g>
		<path id="Shape_262_" class="st1" d="M283.5,36C217.5,36,164,62.7,164,95.7c0,14.7,10.5,28,28,38.4c5.9,3.5,12.1,6.5,18.5,8.9
			c0.3,0.1,0.6,0.3,0.9,0.3c1.9,0.8,3.8,1.5,5.8,2.1c4.7,1.5,9.7,3,14.9,4.2c1.7,0.4,3.4,0.9,5.2,1.2c0.7,0.2,1.5,0.3,2.2,0.4
			c2.7,0.6,5.5,1,8.4,1.5c4.9,0.9,10.1,1.5,15.4,1.9l7.1,0.5c4.3,0.3,8.6,0.3,13.1,0.3c4.4,0,8.8-0.1,13.1-0.3l7.1-0.5
			c5.3-0.4,10.4-1,15.4-1.9c2.8-0.4,5.6-0.9,8.4-1.5c0.7-0.1,1.5-0.2,2.2-0.4c1.8-0.3,3.5-0.8,5.2-1.2c5.2-1.2,10.2-2.6,14.9-4.2
			c2-0.7,3.9-1.4,5.8-2.1c0.3-0.1,0.6-0.3,0.9-0.3c6.4-2.5,12.6-5.4,18.5-8.9c17.5-10.4,28-23.7,28-38.4
			C402.9,62.7,349.4,36,283.5,36z M322.6,106.7c-12.6,4.3-25.9,6.4-39.2,6.1c-13.3,0.3-26.6-1.8-39.2-6.1c-7.5-3-12-6.8-12-11
			c0-9.5,23-17.1,51.2-17.1c28.2,0,51.2,7.6,51.2,17.1C334.7,99.9,330.1,103.8,322.6,106.7z"/>
		<path id="Shape_261_" class="st0" d="M283.5,36C217.5,36,164,62.7,164,95.7c0,14.7,10.5,28,28,38.4c5.9,3.5,12.1,6.5,18.5,8.9
			c0.3,0.1,0.6,0.3,0.9,0.3c1.9,0.8,3.8,1.5,5.8,2.1c4.7,1.5,9.7,3,14.9,4.2c1.7,0.4,3.4,0.9,5.2,1.2c0.7,0.2,1.5,0.3,2.2,0.4
			c2.7,0.6,5.5,1,8.4,1.5c4.9,0.9,10.1,1.5,15.4,1.9l7.1,0.5c4.3,0.3,8.6,0.3,13.1,0.3c4.4,0,8.8-0.1,13.1-0.3l7.1-0.5
			c5.3-0.4,10.4-1,15.4-1.9c2.8-0.4,5.6-0.9,8.4-1.5c0.7-0.1,1.5-0.2,2.2-0.4c1.8-0.3,3.5-0.8,5.2-1.2c5.2-1.2,10.2-2.6,14.9-4.2
			c2-0.7,3.9-1.4,5.8-2.1c0.3-0.1,0.6-0.3,0.9-0.3c6.4-2.5,12.6-5.4,18.5-8.9c17.5-10.4,28-23.7,28-38.4
			C402.9,62.7,349.4,36,283.5,36z M322.6,106.7c-12.6,4.3-25.9,6.4-39.2,6.1c-13.3,0.3-26.6-1.8-39.2-6.1c-7.5-3-12-6.8-12-11
			c0-9.5,23-17.1,51.2-17.1c28.2,0,51.2,7.6,51.2,17.1C334.7,99.9,330.1,103.8,322.6,106.7z"/>
		<path id="Shape_259_" class="st1" d="M334.7,95.7c0,4.2-4.5,8-12,11c-12.6,4.3-25.9,6.4-39.2,6.1c-13.3,0.3-26.6-1.8-39.2-6.1
			c-7.5-3-12-6.8-12-11c0-9.5,23-17.1,51.2-17.1C311.7,78.7,334.7,86.3,334.7,95.7z"/>
		<path id="Shape_258_" class="st0" d="M385.9,223.7l0,51.2l-51.2-17.1l-51.2,17.1v-18.3c0-13.1-10-24.1-23-25.4
			c-55-5.4-96.4-29.5-96.4-58.6V95.7c0,14.7,10.5,28,28,38.4c5.9,3.5,12.1,6.5,18.5,8.9c0.3,0.1,0.6,0.3,0.9,0.3
			c1.9,0.8,3.8,1.5,5.8,2.1c4.7,1.5,9.7,3,14.9,4.2c1.7,0.4,3.4,0.9,5.2,1.2c0.7,0.2,1.5,0.3,2.2,0.4c2.7,0.6,5.5,1,8.4,1.5
			c4.9,0.9,10.1,1.5,15.4,1.9l7.1,0.5c4.3,0.3,8.6,0.3,13.1,0.3h34.1c30.6,0,57.5,20.4,65.7,49.8C385,211.3,385.9,217.5,385.9,223.7
			z"/>
		<g id="Shape_257_">
			<path class="st0" d="M402.9,95.7v76.8c-1,13.4-8.3,25.6-19.6,32.8c-8.2-29.5-35.1-49.8-65.7-49.8h-34.1c4.4,0,8.8-0.1,13.1-0.3
				l7.1-0.5c5.3-0.4,10.4-1,15.4-1.9c2.8-0.4,5.6-0.9,8.4-1.5c0.7-0.1,1.5-0.2,2.2-0.4c1.8-0.3,3.5-0.8,5.2-1.2
				c5.2-1.2,10.2-2.6,14.9-4.2c2-0.7,3.9-1.4,5.8-2.1c0.3-0.1,0.6-0.3,0.9-0.3c6.4-2.5,12.6-5.4,18.5-8.9
				C392.4,123.7,402.9,110.4,402.9,95.7z"/>
		</g>
		<path id="Shape_254_" class="st4" d="M32.8,368.1c0.5,0.2,1,0.4,1.5,0.5c0.6,0.1,1.1,0.2,1.7,0.2c2.3,0,4.4-0.9,6.1-2.5
			c0.8-0.8,1.4-1.8,1.8-2.8c1.3-3.2,0.6-6.8-1.8-9.3c-0.8-0.8-1.8-1.4-2.8-1.8c-1-0.4-2.1-0.7-3.2-0.7c-2.3,0-4.4,0.9-6.1,2.5
			c-3.3,3.4-3.3,8.8,0,12.1l1.3,1C31.7,367.7,32.2,367.9,32.8,368.1z"/>
		<path id="Shape_253_" class="st4" d="M538.5,228.5c-0.3-0.6-0.7-1.2-1.2-1.8c-0.2-0.2-0.4-0.5-0.6-0.7c-0.7-0.6-1.4-1.1-2.2-1.5
			c-0.1,0-0.1-0.1-0.2-0.1l-121.6-50.3l-1.2-0.5c0-0.3,0.1-0.7,0.1-1V95.7c0-38.3-56.2-68.3-128-68.3s-128,30-128,68.3v76.8
			c0,0.3,0.1,0.7,0.1,1L32.7,224.4c-3.2,1.3-5.3,4.4-5.3,7.9v93.9c0,4.7,3.8,8.5,8.5,8.5s8.5-3.8,8.5-8.5v-81.1l68.3,28.2v69.9
			c0,2.6,1.2,5,3.1,6.6c2,1.6,4.6,2.3,7.1,1.8l38.2-7.6l39.4,39.4c2.4,2.4,6.1,3.1,9.3,1.8c3.2-1.3,5.2-4.4,5.3-7.8v-61.7l59.7,24.7
			v177.7L44.5,422.8v-28.4c0-4.7-3.8-8.5-8.5-8.5s-8.5,3.8-8.5,8.5v34.1c0,3.5,2.1,6.6,5.3,7.9l247.4,102.4c2.1,0.9,4.4,0.9,6.5,0
			L534,436.4c1.6-0.5,2.9-1.6,3.6-3.1c1.2-1.3,1.9-3,1.8-4.8V232.3c0-1-0.2-2-0.6-3C538.7,229,538.6,228.7,538.5,228.5z
			 M172.5,172.5v-42.1c0.2,0.2,0.4,0.3,0.6,0.5c1.4,1.2,2.9,2.4,4.4,3.6c0.8,0.6,1.5,1.3,2.3,1.9c2.3,1.7,4.7,3.3,7.3,4.8
			c0.1,0.1,0.3,0.2,0.4,0.3c0.3,0.2,0.6,0.3,1,0.5c4.5,2.6,9.1,4.9,13.9,6.9c6.5,2.8,13.2,5.1,20,7c1.6,0.5,3.2,0.9,4.8,1.3
			c4.4,1.1,9,2.1,13.7,3c1.6,0.3,3.2,0.6,4.8,0.9c3.5,0.6,7,1.1,10.6,1.5c1.3,0.1,2.6,0.2,3.9,0.3c1.8,0.2,3.6,0.3,5.4,0.4
			c5.9,0.4,11.9,0.7,17.9,0.7h34.1c26.5,0,49.9,17.5,57.3,43c0.1,0.4,0.2,0.9,0.4,1.3c1.3,5,2,10.2,2,15.5l0,39.4l-40-13.3
			c-1.8-0.6-3.6-0.6-5.4,0l-40,13.3v-6.5c0-9.5-4-18.5-11-25c-0.1-0.1-0.3-0.3-0.5-0.4c-5.4-4.8-12.1-7.8-19.3-8.5
			C210.7,217.8,172.5,196.2,172.5,172.5z M387,136.4c0.9-0.6,1.6-1.3,2.4-1.9c1.5-1.2,3-2.3,4.3-3.5c0.2-0.2,0.4-0.3,0.6-0.5v42.1
			c-0.3,6.7-3,13.1-7.6,17.9c-7.7-15.9-20.6-28.7-36.5-36.2c2.2-0.7,4.4-1.5,6.5-2.3c0.9-0.3,1.8-0.6,2.6-0.9
			c6.8-2.6,13.4-5.7,19.6-9.4c0.1-0.1,0.2-0.1,0.3-0.2c0.3-0.2,0.5-0.4,0.9-0.5C382.6,139.4,384.9,137.9,387,136.4z M250.3,238.5
			l-88.4,36.6l-19.6-8.1l81.7-33.8C232.6,235.5,241.4,237.3,250.3,238.5z M269.7,249l2.8-1.2c1.6,2.7,2.4,5.7,2.4,8.8v6.5
			l-71.1,29.4l-19.6-8.1L269.7,249z M277.1,280.6c0.4,0.5,0.8,0.9,1.3,1.2c2.2,1.6,5.1,2,7.7,1.2l48.5-16.2l48.5,16.2
			c0.7,0.2,1.3,0.3,2,0.3l-101.7,42l-57.3-23.7L277.1,280.6z M292,340.4l230.4-95.3v41.3l-97.1,40.2c-2.9,1.1-5,3.7-5.4,6.8
			c-0.4,3.1,0.8,6.1,3.3,8c2.5,1.9,5.8,2.2,8.6,1l90.6-37.5V329l-37.2,15.4c-2.8,1.2-4.8,3.7-5.2,6.8c-0.4,3,0.8,6,3.3,7.9
			s5.6,2.3,8.5,1.1l30.7-12.7v24.2l-62.7,25.9c-4.4,1.8-6.4,6.8-4.6,11.2c1.8,4.4,6.8,6.4,11.2,4.6l56.1-23.2v32.7L292,518.1V340.4z
			 M392.4,280.3c1.3-1.5,1.9-3.4,2-5.4v-51.2c0-5.1-0.5-10.2-1.5-15.2c5.3-4.5,9.8-10,13.2-16.1l3.2-1.3l99.3,41.1L392.4,280.3z
			 M283.5,44.5c66.4,0,110.9,26.5,110.9,51.2c0,1.4-0.1,2.7-0.4,4.1c-3.7,11.9-12.2,21.6-23.4,27h-0.1c-5.5,3.2-11.2,5.9-17.2,8.2
			c-4.5,1.8-9.4,3.3-14.3,4.7c-1.1,0.3-2.2,0.6-3.3,0.9c-4.5,1.1-9.1,2.1-13.8,3c-0.7,0.1-1.3,0.3-2,0.4c-4.9,0.9-10,1.4-15.2,1.9
			c-1.5,0.1-3.1,0.3-4.6,0.4c-5.5,0.4-11,0.7-16.6,0.7c-5.6,0-11.2-0.3-16.6-0.7c-1.5-0.1-3.1-0.2-4.6-0.4
			c-5.3-0.5-10.4-1.1-15.5-1.9c-0.6-0.1-1.1-0.2-1.6-0.3c-4.8-0.9-9.5-1.9-14.1-3.1c-1-0.3-2.1-0.5-3.1-0.9c-5-1.4-9.8-2.9-14.4-4.7
			c-3-1.1-5.9-2.4-8.7-3.7c-3-1.4-5.8-2.9-8.5-4.5c-15.4-9.1-23.8-20.1-23.8-31C172.5,71,217.1,44.5,283.5,44.5z M159.7,190.3
			c9,15.7,23.2,27.9,40.2,34.4l-79.9,33.1l-61.6-25.5L159.7,190.3z M198.1,356.7L170,328.6c-2-2-4.9-2.9-7.7-2.3l-32.4,6.5v-52.4
			l68.3,28.2L198.1,356.7z"/>
		<path id="Shape_252_" class="st4" d="M241.1,114.6c13.6,4.7,28,7,42.4,6.7c14.4,0.3,28.7-2,42.4-6.7c14.4-5.7,17.4-13.4,17.4-18.9
			c0-17.7-30-25.6-59.7-25.6c-29.7,0-59.7,7.9-59.7,25.6C223.7,101.2,226.8,108.9,241.1,114.6z M283.5,87.2
			c23.5,0,37.8,5.3,41.9,8.5c-1.8,1.3-3.7,2.3-5.8,3.1c-23.5,6.9-48.6,6.9-72.1,0c-2-0.8-4-1.8-5.8-3.1
			C245.7,92.5,259.9,87.2,283.5,87.2z"/>
	</g>
</g>
</svg>
