<?xml version="1.0" encoding="utf-8"?>
<!-- Generator: Adobe Illustrator 22.0.1, SVG Export Plug-In . SVG Version: 6.00 Build 0)  -->
<svg version="1.1" id="Capa_1" xmlns="http://www.w3.org/2000/svg" xmlns:xlink="http://www.w3.org/1999/xlink" x="0px" y="0px"
	 viewBox="0 0 566.9 566.9" style="enable-background:new 0 0 566.9 566.9;" xml:space="preserve">
<style type="text/css">
	.st0{fill:#FFFFFF;}
	.st1{fill:#192B48;}
	.st2{fill:#E5BD29;}
	.st3{fill:#C85C6E;}
	.st4{fill:#4E78B6;}
	.st5{fill:#AA7D64;}
	.st6{fill:none;}
	.st7{fill:#FAF7F5;}
</style>
<g id="Page-1_5_">
	<g id="_x30_16---Paint-Bucket">
		<path id="Shape_201_" class="st1" d="M530.9,204.5c0,66-38.2,119.5-85.3,119.5H266.4c47.1,0,85.3-51.3,85.3-117.3
			c0-63.5-35.4-117.6-80-121.4c-1.7-0.2-3.5-0.3-5.3-0.3h179.2C492.7,85,530.9,138.5,530.9,204.5z"/>
		<path id="Shape_200_" class="st1" d="M505.3,204.5c0,66-38.2,119.5-85.3,119.5H266.4c47.1,0,85.3-51.3,85.3-117.3
			c0-63.5-35.4-117.6-80-121.4c-1.7-0.2-3.5-0.3-5.3-0.3H420C467.1,85,505.3,138.5,505.3,204.5z"/>
		<path id="Shape_197_" class="st0" d="M377.3,456.2c0,35.3-76.4,64-170.7,64c-4.4,0-8.6-0.1-12.8-0.2
			C105.5,517.6,36,489.9,36,456.2c0-31.1,58.9-56.9,137.1-62.8l37.6-0.2l23.2-0.2h0.5C315.5,398,377.3,424.5,377.3,456.2z"/>
		<path id="Shape_196_" class="st0" d="M351.7,456.2c0,33.7-69.5,61.4-157.9,63.8C105.5,517.6,36,489.9,36,456.2
			c0-31.1,58.9-56.9,137.1-62.8l37.6-0.2C290.9,398.4,351.7,424.7,351.7,456.2z"/>
		<path id="Shape_195_" class="st1" d="M317.6,204.5c0,5.3-0.3,10.7-1,16c-0.4,3.7-1,7.3-1.7,10.7c-22.9,8-55.4,15.7-81.7,37
			c-1.9-2.7-3.6-5.5-5.2-8.4c-8.7-17.1-13.1-36-12.8-55.2c0-44.4,21-76.9,42.7-83.9c2.7-0.9,5.6-1.4,8.5-1.5
			C290.6,119.1,317.6,154.2,317.6,204.5z"/>
		<path id="Shape_194_" class="st1" d="M300.5,204.5c0,5.3-0.3,10.7-1,16c-0.4,3.7-1,7.3-1.7,10.7c-19.5,6.8-46.1,13.5-69.8,28.6
			c-8.7-17.1-13.1-36-12.8-55.2c0-44.4,21-76.9,42.7-83.9C279.5,127.6,300.5,160.1,300.5,204.5z"/>
		<path id="Shape_193_" class="st0" d="M314.9,231.1c-2.9,15.4-9.4,29.9-19.1,42.2h-0.1c-4,5-9,9.2-14.5,12.5
			c-10.9,5.4-19.9,13.9-25.9,24.5c-1.9,3.6-3.6,7.3-5.3,11.5c-5.1,13.1-8.9,26.7-11.3,40.6c-2.1,10.2-3.7,20.4-4.7,30.7
			c-0.9,8.7-0.2,17.5,2,25.9c2,7.7,6.4,14.5,12.6,19.5c1.4,1,2.1,2.7,1.7,4.3c-0.3,1.7-1.6,2.9-3.3,3.3c-18.3,3.9-37,5.4-55.6,4.6
			c-4.2-0.3-8.4-0.6-12.6-1.2c-13.5-1.7-26.9-4.4-40-8.2c-1.8-0.6-3-2.3-3-4.2c0-1.9,1.3-3.5,3.2-4c11.3-4,20.7-12.1,26.5-22.5
			c3.2-5.4,5.8-11.2,7.8-17.2c6.1-17.6,7.9-36.6,12.5-54.6c4.4-16.8,12.4-32.5,23.3-46.1c7.2-9,15.3-17.3,24.2-24.6
			c18.8-14,40-24.4,62.5-30.7C302.6,235.2,309.1,233.2,314.9,231.1z"/>
		<path id="Shape_192_" class="st0" d="M295.8,237.4c-3.5,9.9-8.7,19.1-15.3,27.3h-0.1c-4.2,5.2-9.4,9.7-15.2,13.1
			c-11.4,5.7-20.8,14.6-27.1,25.7c-2,3.8-3.8,7.7-5.5,12c-5.4,13.8-9.4,28-11.9,42.6c-1.9,10.4-4.1,21.3-4.9,32.2
			c-0.9,9.1-0.2,18.3,2,27.2c2.2,8,6.8,15.2,13.3,20.4c3.1,2.3,8.8,9.6,0.8,10.9c-13.4,2.1-26.9,2.8-40.5,1.9
			c-4.2-0.3-8.4-0.6-12.6-1.2c-13.5-1.7-26.9-4.4-40-8.2c-1.8-0.6-3-2.3-3-4.2c0-1.9,1.3-3.5,3.2-4c11.3-4,20.7-12.1,26.5-22.5
			c3.2-5.4,5.8-11.2,7.8-17.2c6.1-17.6,7.9-36.6,12.5-54.6c4.4-16.8,12.4-32.5,23.3-46.1c7.2-9,15.3-17.3,24.2-24.6
			C252,254.1,273.2,243.7,295.8,237.4z"/>
		<circle id="Oval_9_" class="st1" cx="420" cy="204.5" r="17.1"/>
		<path id="Shape_191_" class="st1" d="M276.1,322.9c-1.3-0.3-2.5-0.5-3.7-0.9c-0.3,0.7-0.5,1.5-0.9,2.2h17.2
			C284.5,324.3,280.3,323.9,276.1,322.9L276.1,322.9z"/>
		<path id="Shape_190_" class="st1" d="M255.6,268.5c-1.6-2.4-3.1-4.8-4.5-7.3C252.5,263.7,254,266.1,255.6,268.5z"/>
		<path id="Shape_189_" class="st1" d="M267.4,260.1c-0.9,0.6-1.7,1.1-2.6,1.7C265.7,261.2,266.5,260.6,267.4,260.1z"/>
		<path id="Shape_188_" class="st1" d="M245.2,248.5c1.3,3.4,2.8,6.8,4.5,10.1C248,255.3,246.5,251.9,245.2,248.5z"/>
		<path id="Shape_185_" class="st4" d="M226.8,98.7c2.6,3.6,7.5,4.8,11.4,2.7c8.6-5.1,18.3-7.8,28.3-7.9V76.5
			c-12.9,0.1-25.6,3.6-36.8,10.2c-2.1,1.1-3.6,3.1-4.1,5.4S225.4,96.8,226.8,98.7z"/>
		<path id="Shape_184_" class="st4" d="M202.3,298l13.4-10.5c-13.6-18.3-22.2-39.9-24.7-62.5c-3-22.8-0.9-46,6.2-67.9
			c0.9-2.6,1.6-5.1,2.7-7.6c1.6-4.3-0.4-9.1-4.5-11c-2.1-0.9-4.5-1-6.7-0.1c-2.1,0.9-3.8,2.6-4.7,4.8c-1.2,2.8-2,5.7-3,8.5
			c-7.9,24.3-10.2,50.1-6.9,75.5C177,252.9,186.7,277.3,202.3,298z"/>
		<path id="Shape_183_" class="st4" d="M215.4,121.9c1.3-1.7,1.8-3.9,1.6-6l-0.3-1.5c-0.1-0.5-0.4-1.1-0.6-1.6
			c-0.2-0.5-0.5-1-0.8-1.4c-0.4-0.5-0.7-0.9-1.1-1.3c-1.7-1.5-4-2.3-6.3-2.2c-1.2,0.1-2.3,0.5-3.3,1.2c-3.2,1.8-5,5.3-4.5,9
			c0.2,1.1,0.7,2.2,1.3,3.1c0.6,0.9,1.4,1.7,2.3,2.4c1.9,1.2,4.1,1.7,6.3,1.4C212.1,124.6,214,123.5,215.4,121.9z"/>
		<path id="Shape_182_" class="st4" d="M266.4,332.5c-6.3,0-12.6-0.9-18.6-2.6c-2.4-0.6-4.3-2.3-5.4-4.4s-1.2-4.7-0.3-7
			c1.8-4.3,3.6-8.4,5.6-12.2c6.7-12.1,16.9-21.9,29.3-28.1c4.6-2.7,8.7-6.2,12.1-10.4c0.2-0.3,0.5-0.5,0.7-0.8
			c10.4-13.9,16.7-30.3,18.3-47.6c0.3-3.1,2.2-5.8,5-7.1c2.8-1.3,6.1-0.9,8.6,1c2.5,1.9,3.7,5,3.3,8c-1.9,20.9-9.8,40.8-22.7,57.4
			c-0.2,0.3-0.5,0.6-0.8,0.9c-4.5,5.5-10,10.1-16.2,13.7c-9.4,4.6-17.2,11.9-22.4,21c-0.2,0.4-0.4,0.7-0.5,1.1
			c1.4,0.1,2.7,0.2,4.1,0.2c42.4,0,76.8-49.8,76.8-110.9s-34.5-111-76.8-111c-4.7,0-8.5-3.8-8.5-8.5c0-4.7,3.8-8.5,8.5-8.5
			c51.8,0,93.9,57.4,93.9,128S318.2,332.5,266.4,332.5z"/>
		<path id="Shape_181_" class="st4" d="M209,301.3c-3.3,0-6.3-1.9-7.7-4.8s-1-6.4,1-9c7.6-9.5,16.1-18.2,25.5-25.9
			c2.3-2,5.6-2.7,8.5-1.6c2.9,1.1,5,3.6,5.5,6.7c0.5,3.1-0.7,6.2-3.2,8.1c-8.5,6.9-16.2,14.8-23,23.3
			C214,300.1,211.6,301.3,209,301.3z"/>
		<path id="Shape_180_" class="st4" d="M295.8,281.8c-3.5,0-6.6-2.1-8-5.3s-0.6-6.9,1.9-9.4c10.4-13.9,16.8-30.4,18.4-47.7
			c0.7-5,1-10,1-15c0-47.6-24.8-76.8-42.7-76.8s-42.7,29.2-42.7,76.8c-0.6,20.8,5.2,41.3,16.5,58.8c2.7,3.9,1.8,9.2-2.1,11.9
			c-3.9,2.7-9.2,1.8-11.9-2.1c-13.3-20.4-20.1-44.3-19.5-68.6c0-56.1,30.9-93.9,59.7-93.9c28.9,0,59.7,37.7,59.7,93.9
			c0,5.7-0.4,11.4-1.1,17.1c-2,20.8-9.8,40.7-22.7,57.2C300.7,280.7,298.3,281.8,295.8,281.8z"/>
		<path id="Shape_179_" class="st4" d="M445.6,93.5H263.3c-4.7,0-8.5-3.8-8.5-8.5c0-4.7,3.8-8.5,8.5-8.5h182.3
			c4.7,0,8.5,3.8,8.5,8.5C454.1,89.7,450.3,93.5,445.6,93.5z"/>
		<path id="Shape_178_" class="st4" d="M445.6,332.5H266.4c-4.7,0-8.5-3.8-8.5-8.5s3.8-8.5,8.5-8.5h179.2c4.7,0,8.5,3.8,8.5,8.5
			S450.3,332.5,445.6,332.5z"/>
		<path id="Shape_177_" class="st4" d="M445.6,332.5c-4.7,0-8.5-3.8-8.5-8.5s3.8-8.5,8.5-8.5c42.4,0,76.8-49.8,76.8-110.9
			S487.9,93.5,445.6,93.5c-4.7,0-8.5-3.8-8.5-8.5c0-4.7,3.8-8.5,8.5-8.5c51.8,0,93.9,57.4,93.9,128S497.4,332.5,445.6,332.5z"/>
		<path id="Shape_176_" class="st4" d="M419.6,195.9c-4.6,0-8.3-3.6-8.5-8.2c-0.9-34.1-8.1-67.8-21.4-99.3
			c-15.5-34.8-37.1-54.7-59.3-54.7c-22.2,0-43.8,19.9-59.3,54.7c-1.2,2.8-3.9,4.7-6.9,5c-3,0.3-6-1-7.8-3.5
			c-1.8-2.5-2.1-5.7-0.9-8.5c18.4-41.2,45.7-64.8,74.9-64.8c29.2,0,56.5,23.6,74.9,64.8c14.2,33.4,22,69.2,22.9,105.5
			c0.1,2.3-0.7,4.5-2.2,6.1c-1.5,1.7-3.7,2.7-5.9,2.7H419.6z"/>
		<path id="Shape_175_" class="st4" d="M420,230.1c-10.4,0-19.7-6.2-23.7-15.8c-4-9.6-1.8-20.6,5.5-27.9c7.3-7.3,18.3-9.5,27.9-5.5
			c9.6,4,15.8,13.3,15.8,23.7C445.6,218.6,434.1,230.1,420,230.1z M420,195.9c-4.7,0-8.5,3.8-8.5,8.5c0,4.7,3.8,8.5,8.5,8.5
			c4.7,0,8.5-3.8,8.5-8.5C428.5,199.8,424.7,195.9,420,195.9z"/>
		<path id="Shape_174_" class="st4" d="M206.7,528.7c-102.2,0-179.2-31.2-179.2-72.5c0-41.7,72.8-65.9,145.1-71.3
			c4.6-0.3,8.7,3.2,9,7.9c0.4,4.6-3.1,8.7-7.7,9.1C92.9,408,44.5,434.3,44.5,456.2c0,26.2,66.6,55.5,162.1,55.5
			s162.1-29.2,162.1-55.5c0-22.3-51.5-49.5-134.8-54.6c-4.7-0.3-8.3-4.3-8-9s4.3-8.3,9-8c88.8,5.4,150.9,34.9,150.9,71.7
			C385.9,497.6,308.8,528.7,206.7,528.7z"/>
		<path id="Shape_173_" class="st4" d="M257.9,451.9c-0.9,0-1.8-0.1-2.7-0.4c-13.6-4.9-24-16.2-27.5-30.2c-3.6-18.8-3-38.1,1.9-56.6
			l0.7-3.9c2.5-14.4,6.5-28.6,11.8-42.2c1.8-4.4,6.8-6.5,11.1-4.7c4.4,1.8,6.5,6.8,4.7,11.1c-4.9,12.6-8.6,25.6-10.9,38.9l-0.7,4
			c-4.3,16-5,32.7-2.2,48.9c2.1,8.5,8.2,15.4,16.4,18.6c4,1.3,6.4,5.3,5.7,9.5C265.6,448.9,262.1,452,257.9,451.9z"/>
		<path id="Shape_172_" class="st4" d="M295.8,281.8L295.8,281.8c-4.8,0-8.6-3.9-8.6-8.6c0-4.7,3.8-8.5,8.5-8.5s8.5,3.8,8.5,8.5
			S300.5,281.8,295.8,281.8z"/>
		<path id="Shape_171_" class="st4" d="M126.1,443.7c-1.9,0-3.8-0.1-5.7-0.3c-4.7-0.5-8.1-4.7-7.6-9.4c0.2-2.3,1.3-4.3,3.1-5.8
			c1.8-1.4,4-2.1,6.3-1.8c14.9,1.1,29-6.9,35.8-20.2c2.9-4.9,5.2-10.1,7-15.5c3.2-10.2,5.7-20.7,7.5-31.3c1.4-7.5,2.9-15.2,4.9-22.8
			c4.7-18,13.2-34.8,24.9-49.2c7.6-9.5,16.1-18.1,25.5-25.8c21.4-15.8,45.5-27.4,71.2-34.2c4.6-1.5,9-2.9,13.1-4.3
			c4.4-1.6,9.3,0.8,10.9,5.2c1.6,4.4-0.8,9.3-5.2,10.9c-4.2,1.5-8.7,2.9-13.5,4.5c-23.6,6.2-45.9,16.8-65.7,31.1
			c-8.4,6.9-16.1,14.7-22.9,23.2c-10.2,12.6-17.6,27.3-21.7,42.9c-1.8,7-3.2,14.1-4.6,21.7c-1.9,11.4-4.6,22.6-8.1,33.6
			c-2.2,6.5-5,12.8-8.5,18.7C163.6,432.3,145.7,443.3,126.1,443.7z"/>
		<path id="Shape_170_" class="st4" d="M184.2,496.4c-58.7,0-91.3-19.1-92.9-20c-4-2.4-5.2-7.6-2.8-11.6c2.4-4,7.6-5.3,11.6-3
			c0.4,0.2,41.6,24,114.2,15.9c4.7-0.5,8.9,2.9,9.4,7.5c0.5,4.7-2.9,8.9-7.5,9.4C205.5,495.8,194.9,496.4,184.2,496.4z"/>
	</g>
</g>
</svg>
