<?xml version="1.0" encoding="utf-8"?>
<!-- Generator: Adobe Illustrator 22.0.1, SVG Export Plug-In . SVG Version: 6.00 Build 0)  -->
<svg version="1.1" id="Capa_1" xmlns="http://www.w3.org/2000/svg" xmlns:xlink="http://www.w3.org/1999/xlink" x="0px" y="0px"
	 viewBox="0 0 566.9 566.9" style="enable-background:new 0 0 566.9 566.9;" xml:space="preserve">
<style type="text/css">
	.st0{fill:#FFFFFF;}
	.st1{fill:#192B48;}
	.st2{fill:#E5BD29;}
	.st3{fill:#C85C6E;}
	.st4{fill:#4E78B6;}
	.st5{fill:#AA7D64;}
	.st6{fill:none;}
	.st7{fill:#FAF7F5;}
</style>
<g>
	<g>
		<g>
			<path class="st0" d="M461.3,298.8v210.1c0,11.3-9.1,20.4-20.4,20.4H200.4c-5.4,0-10.6-2.1-14.4-6l-74.4-74.4c-3.8-3.8-6-9-6-14.4
				v-239h355.7v20.9"/>
		</g>
		<g>
			<path class="st1" d="M193.3,527.5v-66c0-11.3-9.1-20.4-20.4-20.4h-66"/>
		</g>
		<path class="st1" d="M461.3,195.5V58c0-11.3-9.1-20.4-20.4-20.4H126c-11.3,0-20.4,9.1-20.4,20.4v137.4H461.3z"/>
		<path class="st7" d="M176.5,247.6h90.4V338h-90.4V247.6z"/>
	</g>
	<g>
		<path class="st4" d="M458.7,247.9c-4.2,0.8-7.4,4.2-8.1,8.4c-0.7,4.5,1.8,9,5.9,10.9c8.5,3.8,17.4-5.5,13.3-13.8
			C467.8,249.4,463.2,247,458.7,247.9L458.7,247.9z"/>
		<path class="st4" d="M95.4,434.5c0,8.2,3.2,15.9,9,21.6l74.4,74.4c5.8,5.8,13.5,9,21.6,9h240.5c16.9,0,30.6-13.7,30.6-30.6V298.8
			c0-13.1-20.4-13.1-20.4,0v210.1c0,5.6-4.6,10.2-10.2,10.2H203.5v-57.5c0-16.9-13.7-30.6-30.6-30.6h-57.1V205.7h335.3v10.7
			c0,13.1,20.4,13.1,20.4,0V58c0-16.9-13.7-30.6-30.6-30.6H126c-16.9,0-30.6,13.7-30.6,30.6V434.5z M183.1,461.6V506l-54.6-54.6
			h44.4C178.5,451.4,183.1,455.9,183.1,461.6z M115.8,185.3V58c0-5.6,4.6-10.2,10.2-10.2h314.9c5.6,0,10.2,4.6,10.2,10.2v127.2
			H115.8z"/>
		<path class="st0" d="M231.4,76.3c-12.8-11-34.7-7.4-50.4-7.4c-3.6,0-7.7,2.2-7.7,6.3v84.7c0,8.9,20.8,8.9,20.8,0v-28.8
			c12.7,0,26.5,1.2,37-7.5C243.3,113.3,243.6,86.8,231.4,76.3z M219.2,101.8c0,8.9-4,13.3-12,13.3H194V87h13.2
			C216,87,219.5,93.8,219.2,101.8z"/>
		<path class="st0" d="M312.2,76.5c-6-5.1-13.9-7.6-23.8-7.6h-23.6c-3.6,0-9.1,1.8-9.1,6.3V160c0,4.5,5.5,6.3,9.1,6.3
			c15.2,0,35,3,47.4-7.6c11.4-9.7,10.2-27.6,10.2-41.1C322.4,104.1,323.6,86.2,312.2,76.5L312.2,76.5z M300.3,134.8
			c0,8.9-4,13.3-12,13.3h-11.9V87h11.9c8,0,12,4.4,12,13.3V134.8z"/>
		<path class="st0" d="M396.2,68.9H350c-3.9,0-9.1,1.7-9.1,6.4v84.6c0,8.9,20.8,8.9,20.8,0v-34.4h20.1c8.4,0,8.4-16,0-16h-20.1V87
			h34.5C404.7,87,404.8,68.9,396.2,68.9z"/>
		<path class="st4" d="M176.5,348.1h90.4c5.6,0,10.2-4.6,10.2-10.2v-90.4c0-5.6-4.6-10.2-10.2-10.2h-90.4c-5.6,0-10.2,4.6-10.2,10.2
			V338C166.3,343.6,170.9,348.1,176.5,348.1z M186.7,257.7h70v70h-70V257.7z"/>
		<path class="st4" d="M389,247.7h-69.2c-13.1,0-13.1,20.4,0,20.4H389C402.1,268.1,402.1,247.7,389,247.7L389,247.7z"/>
		<path class="st4" d="M389,282.6h-69.2c-13.1,0-13.1,20.4,0,20.4H389C402.1,302.9,402.1,282.6,389,282.6L389,282.6z"/>
		<path class="st4" d="M389,434.1h-69.2c-13.1,0-13.1,20.4,0,20.4H389C402.1,454.5,402.1,434.1,389,434.1L389,434.1z"/>
		<path class="st4" d="M389,317.4h-69.2c-13.1,0-13.1,20.4,0,20.4H389C402.1,337.8,402.1,317.4,389,317.4L389,317.4z"/>
		<path class="st4" d="M389,364.5H176.5c-13.1,0-13.1,20.4,0,20.4H389C402.1,384.9,402.1,364.5,389,364.5z"/>
		<path class="st4" d="M389,399.3H176.5c-13.1,0-13.1,20.4,0,20.4H389C402.1,419.7,402.1,399.3,389,399.3z"/>
	</g>
</g>
</svg>
