<?xml version="1.0" encoding="utf-8"?>
<!-- Generator: Adobe Illustrator 22.0.1, SVG Export Plug-In . SVG Version: 6.00 Build 0)  -->
<svg version="1.1" id="Capa_1" xmlns="http://www.w3.org/2000/svg" xmlns:xlink="http://www.w3.org/1999/xlink" x="0px" y="0px"
	 viewBox="0 0 566.9 566.9" style="enable-background:new 0 0 566.9 566.9;" xml:space="preserve">
<style type="text/css">
	.st0{fill:#FFFFFF;}
	.st1{fill:#192B48;}
	.st2{fill:#E5BD29;}
	.st3{fill:#C85C6E;}
	.st4{fill:#4E78B6;}
	.st5{fill:#AA7D64;}
	.st6{fill:none;}
	.st7{fill:#FAF7F5;}
</style>
<g>
	<g>
		<g>
			<path class="st1" d="M461.3,195.5V58.1c0-11.3-9.1-20.4-20.4-20.4H126c-11.3,0-20.4,9.1-20.4,20.4v137.4H461.3z"/>
			<g>
				<path class="st0" d="M461.3,298.8v210.1c0,11.3-9.1,20.4-20.4,20.4H200.4c-5.4,0-10.6-2.1-14.4-6l-74.4-74.4
					c-3.8-3.8-6-9-6-14.4v-239h355.7v20.9"/>
			</g>
			<g>
				<path class="st1" d="M193.9,527.5v-66c0-11.3-9.1-20.4-20.4-20.4h-66"/>
			</g>
			<g>
				<path class="st7" d="M221.7,282.2h38.4v38.4h-38.4V282.2z"/>
				<path class="st7" d="M307.3,282.2h38.4v38.4h-38.4L307.3,282.2z"/>
				<path class="st7" d="M221.7,367.8h38.4v38.4h-38.4V367.8z"/>
			</g>
		</g>
		<path class="st7" d="M307.3,367.8h38.4v38.4h-38.4L307.3,367.8z"/>
	</g>
	<g>
		<path class="st4" d="M95.4,434.5c0,8.2,3.2,15.8,9,21.6l74.4,74.4c5.8,5.8,13.5,9,21.6,9h240.5c16.9,0,30.6-13.7,30.6-30.6V298.8
			c0-13.1-20.4-13.1-20.4,0v210.1c0,5.6-4.6,10.2-10.2,10.2H204.1v-57.5c0-16.9-13.7-30.6-30.6-30.6h-57.7V205.7h335.3v10.7
			c0,13.1,20.4,13.1,20.4,0V58.1c0-16.9-13.7-30.6-30.6-30.6H126c-16.9,0-30.6,13.7-30.6,30.6L95.4,434.5z M183.7,461.6v45
			l-55.2-55.2h45C179.1,451.4,183.7,455.9,183.7,461.6z M115.8,185.3V58.1c0-5.6,4.6-10.2,10.2-10.2h314.9c5.6,0,10.2,4.6,10.2,10.2
			v127.2H115.8z"/>
		<path class="st0" d="M230.3,76.3c-5.7-4.9-13.3-7.4-22.8-7.4h-27.6c-3.6,0-7.7,2.2-7.7,6.3v84.7c0,8.9,20.8,8.9,20.8,0v-28.8
			c12.7,0,26.5,1.2,37-7.5C242.2,113.3,242.6,86.8,230.3,76.3z M218.2,101.8c0,8.9-4,13.3-12,13.3H193V87h13.2
			C215,87,218.4,93.8,218.2,101.8L218.2,101.8z"/>
		<path class="st0" d="M304.5,115c-3.1-2.3-6.5-4.4-10.2-6.3c-6.1-3.2-22.8-6.8-20.7-16.1c2.2-9.4,18.3-6.9,24.4-3.9
			c6.7,3.3,14.1,3.1,14.8-6.8c0.8-10.3-10.8-12.6-19-13.5c-10.9-1.2-22.2,0.2-31.4,6.6c-11,7.7-13.2,25.1-5.7,36
			c5.6,8,14.4,12,23,15.8c6.3,2.8,18.7,8.8,13.8,17.6c-4.7,8.4-19.8,5.3-25.5-0.2c-13.9-13.2-25.1,8.7-8.5,18
			c13.6,7.5,34.3,8,46.6-2.3C319.4,149,318.3,125.1,304.5,115z"/>
		<path class="st0" d="M388.8,76.5c-12.5-10.6-32.2-7.6-47.4-7.6c-3.6,0-9.1,1.8-9.1,6.3V160c0,4.5,5.5,6.3,9.1,6.3
			c15.2,0,35,3,47.4-7.6c5.9-5.1,8.9-13,8.9-23.8v-34.5C397.7,89.5,394.7,81.5,388.8,76.5z M376.9,134.8c0,8.9-4,13.3-12,13.3h-11.9
			V87h11.9c8,0,12,4.4,12,13.3V134.8z"/>
		<path class="st4" d="M469.8,252.3c-5.1-7.6-17.2-4.9-18.6,4.2c-1.4,9.2,9.7,15.2,16.7,9.2C471.8,262.3,472.5,256.5,469.8,252.3z"
			/>
		<path class="st4" d="M345.7,330.8c5.6,0,10.2-4.6,10.2-10.2v-38.4c0-5.6-4.6-10.2-10.2-10.2h-38.4c-5.6,0-10.2,4.6-10.2,10.2v9
			h-26.8v-9c0-5.6-4.6-10.2-10.2-10.2h-38.4c-5.6,0-10.2,4.6-10.2,10.2v38.4c0,5.6,4.6,10.2,10.2,10.2h8.8v26.8h-8.8
			c-5.6,0-10.2,4.6-10.2,10.2v38.4c0,5.6,4.6,10.2,10.2,10.2h38.4c5.6,0,10.2-4.6,10.2-10.2v-9h26.8v9c0,5.6,4.6,10.2,10.2,10.2
			h38.4c5.6,0,10.2-4.6,10.2-10.2v-38.4c0-5.6-4.6-10.2-10.2-10.2h-9.2v-26.8H345.7z M317.5,292.4h18v18h-18V292.4z M231.9,292.4h18
			v18h-18V292.4z M249.9,396h-18v-18h18V396z M335.5,396h-18v-18h18V396z M316.1,357.6h-8.8c-5.6,0-10.2,4.6-10.2,10.2v9h-26.8v-9
			c0-5.6-4.6-10.2-10.2-10.2h-9.2v-26.8h9.2c5.6,0,10.2-4.6,10.2-10.2v-9h26.8v9c0,5.6,4.6,10.2,10.2,10.2h8.8V357.6z"/>
	</g>
</g>
</svg>
