<?xml version="1.0" encoding="utf-8"?>
<!-- Generator: Adobe Illustrator 22.0.1, SVG Export Plug-In . SVG Version: 6.00 Build 0)  -->
<svg version="1.1" id="Capa_1" xmlns="http://www.w3.org/2000/svg" xmlns:xlink="http://www.w3.org/1999/xlink" x="0px" y="0px"
	 viewBox="0 0 566.9 566.9" style="enable-background:new 0 0 566.9 566.9;" xml:space="preserve">
<style type="text/css">
	.st0{fill:#FFFFFF;}
	.st1{fill:#192B48;}
	.st2{fill:#E5BD29;}
	.st3{fill:#C85C6E;}
	.st4{fill:#4E78B6;}
	.st5{fill:#AA7D64;}
	.st6{fill:none;}
	.st7{fill:#FAF7F5;}
</style>
<g id="Page-1_3_">
	<g id="_x30_25---Design">
		<g id="Shape_137_">
			<path class="st0" d="M168.2,424.4l-39.9,20c-1.6,0.8-3.6,0.5-4.9-0.8c-1.3-1.3-1.6-3.3-0.8-4.9l20-39.9
				c6.4,1.5,26.1-5.7,30.6-1.3C177.5,401.9,166.7,418,168.2,424.4z"/>
		</g>
		<path id="Shape_134_" class="st1" d="M340,340l-15.4-15.4l23.2-23.2C353.9,314.6,350.7,330.2,340,340z"/>
		<path id="Shape_133_" class="st2" d="M340,340c-9.8,10.7-25.4,13.8-38.7,7.8l23.2-23.2L340,340z"/>
		<path id="Shape_132_" class="st1" d="M340,340c-7.3,7.6-17.6,11.5-28.1,10.8c-3.7-0.3-7.3-1.3-10.6-3c-2.4-1.2-4.7-2.8-6.6-4.8
			l-35.4-35.4l-24.1-24.1l-112-112c-10-10-10-26.2,0-36.2l12-12c10-10,26.2-10,36.2,0L343,294.8c1.9,1.9,3.5,4.1,4.8,6.6
			C353.9,314.6,350.7,330.2,340,340z"/>
		<path id="Rectangle-path_22_" class="st1" d="M44.5,36h34.1c4.7,0,8.5,3.8,8.5,8.5v34.1c0,4.7-3.8,8.5-8.5,8.5H44.5
			c-4.7,0-8.5-3.8-8.5-8.5V44.5C36,39.8,39.8,36,44.5,36z"/>
		<path id="Rectangle-path_21_" class="st1" d="M266.4,36h34.1c4.7,0,8.5,3.8,8.5,8.5v34.1c0,4.7-3.8,8.5-8.5,8.5h-34.1
			c-4.7,0-8.5-3.8-8.5-8.5V44.5C257.9,39.8,261.7,36,266.4,36z"/>
		<path id="Rectangle-path_20_" class="st1" d="M488.3,36h34.1c4.7,0,8.5,3.8,8.5,8.5v34.1c0,4.7-3.8,8.5-8.5,8.5h-34.1
			c-4.7,0-8.5-3.8-8.5-8.5V44.5C479.7,39.8,483.6,36,488.3,36z"/>
		<path id="Rectangle-path_19_" class="st1" d="M44.5,257.9h34.1c4.7,0,8.5,3.8,8.5,8.5v34.1c0,4.7-3.8,8.5-8.5,8.5H44.5
			c-4.7,0-8.5-3.8-8.5-8.5v-34.1C36,261.7,39.8,257.9,44.5,257.9z"/>
		<path id="Rectangle-path_18_" class="st1" d="M488.3,257.9h34.1c4.7,0,8.5,3.8,8.5,8.5v34.1c0,4.7-3.8,8.5-8.5,8.5h-34.1
			c-4.7,0-8.5-3.8-8.5-8.5v-34.1C479.7,261.7,483.6,257.9,488.3,257.9z"/>
		<path id="Rectangle-path_17_" class="st1" d="M44.5,479.7h34.1c4.7,0,8.5,3.8,8.5,8.5v34.1c0,4.7-3.8,8.5-8.5,8.5H44.5
			c-4.7,0-8.5-3.8-8.5-8.5v-34.1C36,483.6,39.8,479.7,44.5,479.7z"/>
		<path id="Rectangle-path_16_" class="st1" d="M44.5,36h17.1c4.7,0,8.5,3.8,8.5,8.5v34.1c0,4.7-3.8,8.5-8.5,8.5H44.5
			c-4.7,0-8.5-3.8-8.5-8.5V44.5C36,39.8,39.8,36,44.5,36z"/>
		<path id="Rectangle-path_7_" class="st1" d="M44.5,257.9h17.1c4.7,0,8.5,3.8,8.5,8.5v34.1c0,4.7-3.8,8.5-8.5,8.5H44.5
			c-4.7,0-8.5-3.8-8.5-8.5v-34.1C36,261.7,39.8,257.9,44.5,257.9z"/>
		<path id="Rectangle-path_8_" class="st1" d="M44.5,479.7h17.1c4.7,0,8.5,3.8,8.5,8.5v34.1c0,4.7-3.8,8.5-8.5,8.5H44.5
			c-4.7,0-8.5-3.8-8.5-8.5v-34.1C36,483.6,39.8,479.7,44.5,479.7z"/>
		<path id="Rectangle-path_9_" class="st1" d="M266.4,479.7h34.1c4.7,0,8.5,3.8,8.5,8.5v34.1c0,4.7-3.8,8.5-8.5,8.5h-34.1
			c-4.7,0-8.5-3.8-8.5-8.5v-34.1C257.9,483.6,261.7,479.7,266.4,479.7z"/>
		<path id="Rectangle-path_10_" class="st1" d="M266.4,36h17.1c4.7,0,8.5,3.8,8.5,8.5v34.1c0,4.7-3.8,8.5-8.5,8.5h-17.1
			c-4.7,0-8.5-3.8-8.5-8.5V44.5C257.9,39.8,261.7,36,266.4,36z"/>
		<path id="Rectangle-path_11_" class="st1" d="M266.4,479.7h17.1c4.7,0,8.5,3.8,8.5,8.5v34.1c0,4.7-3.8,8.5-8.5,8.5h-17.1
			c-4.7,0-8.5-3.8-8.5-8.5v-34.1C257.9,483.6,261.7,479.7,266.4,479.7z"/>
		<path id="Rectangle-path_12_" class="st1" d="M488.3,479.7h34.1c4.7,0,8.5,3.8,8.5,8.5v34.1c0,4.7-3.8,8.5-8.5,8.5h-34.1
			c-4.7,0-8.5-3.8-8.5-8.5v-34.1C479.7,483.6,483.6,479.7,488.3,479.7z"/>
		<path id="Rectangle-path_13_" class="st1" d="M488.3,36h17.1c4.7,0,8.5,3.8,8.5,8.5v34.1c0,4.7-3.8,8.5-8.5,8.5h-17.1
			c-4.7,0-8.5-3.8-8.5-8.5V44.5C479.7,39.8,483.6,36,488.3,36z"/>
		<path id="Rectangle-path_14_" class="st1" d="M488.3,257.9h17.1c4.7,0,8.5,3.8,8.5,8.5v34.1c0,4.7-3.8,8.5-8.5,8.5h-17.1
			c-4.7,0-8.5-3.8-8.5-8.5v-34.1C479.7,261.7,483.6,257.9,488.3,257.9z"/>
		<path id="Rectangle-path_15_" class="st1" d="M488.3,479.7h17.1c4.7,0,8.5,3.8,8.5,8.5v34.1c0,4.7-3.8,8.5-8.5,8.5h-17.1
			c-4.7,0-8.5-3.8-8.5-8.5v-34.1C479.7,483.6,483.6,479.7,488.3,479.7z"/>
		<g id="Shape_130_">
			<path class="st0" d="M442.6,172.5l-53.3,53.4l-16.7-17.4L342,176.8l52.4-52.5c9-9,23.3-10,33.5-2.3c1,0.7,1.9,1.4,2.7,2.3l12,12
				C452.6,146.3,452.6,162.5,442.6,172.5z"/>
		</g>
		<g id="Shape_129_">
			<path class="st0" d="M425.5,155.5l-53,53.1L342,176.8l52.4-52.5c9-9,23.3-10,33.5-2.3C435.5,132.2,434.6,146.5,425.5,155.5z"/>
		</g>
		<path id="Shape_126_" class="st3" d="M341.1,177.7c-0.4,0.2-0.7,0.5-1,0.9"/>
		<path id="Shape_125_" class="st1" d="M389.3,225.9l-0.9,0.9l-175,174.9c-7.6-22.7-25.5-40.6-48.2-48.2l176-175.9
			c0.3-0.4,0.6-0.7,0.9-0.9c10.2-8.3,25-7.5,34.2,1.8l6.1,6.1l6.1,6.1C398,200.3,398.4,215.8,389.3,225.9z"/>
		<path id="Shape_124_" class="st1" d="M389.3,225.9l-0.9,0.9l-175,174.9c-3.7-11.2-10-21.4-18.4-29.8l187.4-187.4l6.1,6.1
			C398,200.3,398.4,215.8,389.3,225.9z"/>
		<path id="Shape_123_" class="st1" d="M41.3,531.3h25.6c-4.7,0-8.5-3.8-8.5-8.5v-34.1c0-4.7,3.8-8.5,8.5-8.5H41.3
			c-4.7,0-8.5,3.8-8.5,8.5v34.1C32.8,527.5,36.6,531.3,41.3,531.3z"/>
		<path id="Shape_122_" class="st1" d="M41.3,309.4h25.6c-4.7,0-8.5-3.8-8.5-8.5v-34.1c0-4.7,3.8-8.5,8.5-8.5H41.3
			c-4.7,0-8.5,3.8-8.5,8.5v34.1C32.8,305.6,36.6,309.4,41.3,309.4z"/>
		<path id="Shape_121_" class="st1" d="M41.3,87.6h25.6c-4.7,0-8.5-3.8-8.5-8.5V44.9c0-4.7,3.8-8.5,8.5-8.5H41.3
			c-4.7,0-8.5,3.8-8.5,8.5V79C32.8,83.7,36.6,87.6,41.3,87.6z"/>
		<path id="Shape_120_" class="st4" d="M340,348.6c-2.3,0-4.4-0.9-6-2.5l-22.4-22.4c-3.2-3.3-3.2-8.7,0.1-12c3.3-3.3,8.6-3.3,12-0.1
			l22.4,22.4c2.4,2.4,3.2,6.1,1.8,9.3C346.6,346.5,343.5,348.6,340,348.6z"/>
		<path id="Shape_119_" class="st4" d="M78.7,95.7H44.5c-9.4,0-17.1-7.6-17.1-17.1V44.5c0-9.4,7.6-17.1,17.1-17.1h34.1
			c9.4,0,17.1,7.6,17.1,17.1v34.1C95.7,88.1,88.1,95.7,78.7,95.7z M44.5,44.5v34.1h34.1V44.5H44.5z"/>
		<path id="Shape_118_" class="st4" d="M300.5,95.7h-34.1c-9.4,0-17.1-7.6-17.1-17.1V44.5c0-9.4,7.6-17.1,17.1-17.1h34.1
			c9.4,0,17.1,7.6,17.1,17.1v34.1C317.6,88.1,310,95.7,300.5,95.7z M266.4,44.5v34.1h34.1V44.5H266.4z"/>
		<path id="Shape_117_" class="st4" d="M522.4,95.7h-34.1c-9.4,0-17.1-7.6-17.1-17.1V44.5c0-9.4,7.6-17.1,17.1-17.1h34.1
			c9.4,0,17.1,7.6,17.1,17.1v34.1C539.5,88.1,531.8,95.7,522.4,95.7z M488.3,44.5v34.1h34.1V44.5H488.3z"/>
		<path id="Shape_116_" class="st4" d="M78.7,317.6H44.5c-9.4,0-17.1-7.6-17.1-17.1v-34.1c0-9.4,7.6-17.1,17.1-17.1h34.1
			c9.4,0,17.1,7.6,17.1,17.1v34.1C95.7,310,88.1,317.6,78.7,317.6z M44.5,266.4v34.1h34.1v-34.1H44.5z"/>
		<path id="Shape_115_" class="st4" d="M522.4,317.6h-34.1c-9.4,0-17.1-7.6-17.1-17.1v-34.1c0-9.4,7.6-17.1,17.1-17.1h34.1
			c9.4,0,17.1,7.6,17.1,17.1v34.1C539.5,310,531.8,317.6,522.4,317.6z M488.3,266.4v34.1h34.1v-34.1H488.3z"/>
		<path id="Shape_114_" class="st4" d="M78.7,539.5H44.5c-9.4,0-17.1-7.6-17.1-17.1v-34.1c0-9.4,7.6-17.1,17.1-17.1h34.1
			c9.4,0,17.1,7.6,17.1,17.1v34.1C95.7,531.8,88.1,539.5,78.7,539.5z M44.5,488.3v34.1h34.1v-34.1H44.5z"/>
		<path id="Shape_113_" class="st4" d="M300.5,539.5h-34.1c-9.4,0-17.1-7.6-17.1-17.1v-34.1c0-9.4,7.6-17.1,17.1-17.1h34.1
			c9.4,0,17.1,7.6,17.1,17.1v34.1C317.6,531.8,310,539.5,300.5,539.5z M266.4,488.3v34.1h34.1v-34.1H266.4z"/>
		<path id="Shape_112_" class="st4" d="M522.4,539.5h-34.1c-9.4,0-17.1-7.6-17.1-17.1v-34.1c0-9.4,7.6-17.1,17.1-17.1h34.1
			c9.4,0,17.1,7.6,17.1,17.1v34.1C539.5,531.8,531.8,539.5,522.4,539.5z M488.3,488.3v34.1h34.1v-34.1H488.3z"/>
		<path id="Shape_111_" class="st4" d="M61.6,266.4c-4.7,0-8.5-3.8-8.5-8.5V87.2c0-4.7,3.8-8.5,8.5-8.5s8.5,3.8,8.5,8.5v170.7
			C70.1,262.6,66.3,266.4,61.6,266.4z"/>
		<path id="Shape_110_" class="st4" d="M61.6,488.3c-4.7,0-8.5-3.8-8.5-8.5V309.1c0-4.7,3.8-8.5,8.5-8.5s8.5,3.8,8.5,8.5v170.7
			C70.1,484.4,66.3,488.3,61.6,488.3z"/>
		<path id="Shape_109_" class="st4" d="M505.3,266.4c-4.7,0-8.5-3.8-8.5-8.5V87.2c0-4.7,3.8-8.5,8.5-8.5s8.5,3.8,8.5,8.5v170.7
			C513.9,262.6,510,266.4,505.3,266.4z"/>
		<path id="Shape_108_" class="st4" d="M505.3,488.3c-4.7,0-8.5-3.8-8.5-8.5V309.1c0-4.7,3.8-8.5,8.5-8.5s8.5,3.8,8.5,8.5v170.7
			C513.9,484.4,510,488.3,505.3,488.3z"/>
		<path id="Shape_107_" class="st4" d="M479.7,70.1H309.1c-4.7,0-8.5-3.8-8.5-8.5s3.8-8.5,8.5-8.5h170.7c4.7,0,8.5,3.8,8.5,8.5
			S484.4,70.1,479.7,70.1z"/>
		<path id="Shape_106_" class="st4" d="M257.9,70.1H87.2c-4.7,0-8.5-3.8-8.5-8.5s3.8-8.5,8.5-8.5h170.7c4.7,0,8.5,3.8,8.5,8.5
			S262.6,70.1,257.9,70.1z"/>
		<path id="Shape_105_" class="st4" d="M479.7,513.9H309.1c-4.7,0-8.5-3.8-8.5-8.5s3.8-8.5,8.5-8.5h170.7c4.7,0,8.5,3.8,8.5,8.5
			S484.4,513.9,479.7,513.9z"/>
		<path id="Shape_104_" class="st4" d="M257.9,513.9H87.2c-4.7,0-8.5-3.8-8.5-8.5s3.8-8.5,8.5-8.5h170.7c4.7,0,8.5,3.8,8.5,8.5
			S262.6,513.9,257.9,513.9z"/>
		<path id="Shape_103_" class="st4" d="M116.8,458.7c-3,0-5.7-1.5-7.3-4c-1.6-2.5-1.7-5.7-0.4-8.3l48.3-96.5
			c0.4-0.8,0.9-1.6,1.6-2.2l229.3-229.3c13.5-12.9,34.8-12.9,48.3,0l12.1,12.1c13.3,13.3,13.3,34.9,0,48.3L219.4,407.9
			c-0.6,0.6-1.4,1.2-2.2,1.6l-96.5,48.3C119.4,458.4,118.1,458.7,116.8,458.7z M172.1,358.6l-36.2,72.4l72.4-36.2l228.3-228.3
			c6.7-6.7,6.7-17.5,0-24.1l-12.1-12.1c-6.8-6.4-17.4-6.4-24.1,0L172.1,358.6z"/>
		<path id="Shape_102_" class="st4" d="M388.3,235.4c-3.5,0-6.6-2.1-7.9-5.3c-1.3-3.2-0.6-6.9,1.8-9.3c6.7-6.7,6.7-17.5,0-24.1
			l-12.1-12.1c-6.7-6.7-17.5-6.7-24.1,0c-3.3,3.3-8.8,3.3-12.1,0s-3.3-8.8,0-12.1c13.3-13.3,34.9-13.3,48.3,0l12.1,12.1
			c13.3,13.3,13.3,34.9,0,48.3C392.8,234.5,390.6,235.4,388.3,235.4z"/>
		<path id="Shape_100_" class="st4" d="M153.4,201.6c3.3-3.3,3.3-8.7,0-12.1l-24.1-24.1l-12.1,12.1l24.1,24.1
			C144.7,204.9,150,204.9,153.4,201.6z"/>
		<path id="Shape_99_" class="st4" d="M229.2,289.5l12.1-12.1l-39.6-39.6c-2.1-2.3-5.3-3.3-8.4-2.5s-5.4,3.1-6.2,6.2
			c-0.8,3,0.2,6.3,2.5,8.4L229.2,289.5z"/>
		<path id="Shape_98_" class="st4" d="M177.5,213.7c-1.6-1.6-3.8-2.5-6-2.6l-1.6,0.2c-0.6,0.1-1.1,0.3-1.6,0.5
			c-0.5,0.2-1,0.4-1.5,0.7c-0.5,0.3-0.9,0.7-1.3,1.1c-1.6,1.6-2.5,3.8-2.6,6c-0.1,2.9,1.4,5.6,3.8,7.2c2.4,1.6,5.4,1.8,8.1,0.7
			c1-0.4,2-1,2.8-1.8c1.6-1.6,2.5-3.8,2.5-6C180,217.4,179.1,215.2,177.5,213.7L177.5,213.7z"/>
		<path id="Shape_97_" class="st4" d="M283.5,243.8c-2.3,0-4.4-0.9-6-2.5l-112-112c-6.8-6.4-17.4-6.4-24.1,0l-12,12
			c-6.7,6.7-6.7,17.5,0,24.1c3.2,3.3,3.2,8.7-0.1,12s-8.6,3.3-12,0.1c-13.3-13.3-13.3-34.9,0-48.2l12-12c13.3-13.3,34.9-13.3,48.2,0
			l112,112c2.4,2.4,3.2,6.1,1.8,9.3C290,241.7,286.9,243.8,283.5,243.8z"/>
		<path id="Shape_96_" class="st4" d="M348.7,309c-2.2,0-4.4-0.9-6-2.4l-17.1-17.1c-3.2-3.3-3.2-8.7,0.1-12c3.3-3.3,8.6-3.3,12-0.1
			l17,16.9c2.5,2.4,3.2,6.1,1.9,9.3S352.2,308.9,348.7,309L348.7,309z"/>
		<path id="Shape_95_" class="st4" d="M300.4,357.3c-2.3,0-4.5-0.9-6.1-2.6l-16.9-17c-3.2-3.3-3.2-8.7,0.1-12
			c3.3-3.3,8.6-3.3,12-0.1l17.1,17.1c2.4,2.5,3.1,6.1,1.8,9.3C307,355.2,303.9,357.2,300.4,357.3L300.4,357.3z"/>
		<path id="Shape_94_" class="st4" d="M213.3,410.4c-3.7,0-6.9-2.4-8.1-5.8c-6.8-20.2-22.7-36.1-42.9-42.9c-2.9-1-5.1-3.4-5.7-6.4
			c-0.6-3,0.4-6.1,2.7-8.1c2.3-2,5.5-2.7,8.4-1.7c25.3,8.5,45.2,28.4,53.7,53.7c0.9,2.6,0.4,5.5-1.2,7.7
			C218.7,409.1,216.1,410.4,213.3,410.4L213.3,410.4z"/>
		<path id="Shape_93_" class="st4" d="M168.2,433c-4,0-7.4-2.8-8.3-6.6c-2.2-9.6-9.7-17.1-19.3-19.3c-4.5-1.1-7.3-5.6-6.2-10.2
			c1-4.5,5.5-7.4,10-6.5c16,3.7,28.5,16.2,32.1,32.2c0.6,2.5,0,5.2-1.7,7.2C173.2,431.8,170.8,433,168.2,433L168.2,433z"/>
		<path id="Shape_92_" class="st4" d="M195.2,380.2c-3.5,0-6.6-2.1-7.9-5.3c-1.3-3.2-0.6-6.9,1.8-9.3l90.5-90.5
			c3.3-3.2,8.7-3.2,12,0.1c3.3,3.3,3.3,8.6,0.1,12l-90.5,90.5C199.7,379.3,197.5,380.2,195.2,380.2z"/>
		<path id="Shape_91_" class="st4" d="M309.9,265.5c-3.5,0-6.6-2.1-7.9-5.3s-0.6-6.9,1.8-9.3l72.4-72.4c3.3-3.2,8.7-3.2,12,0.1
			s3.3,8.6,0.1,12l-72.5,72.4C314.3,264.7,312.2,265.5,309.9,265.5z"/>
		<path id="Shape_90_" class="st4" d="M433.2,441.7h-0.7l-78.4-6c-3-0.2-5.6-2-7-4.7c-14.1-27.6-31.8-53.3-52.7-76.2
			c-2.2-2.2-3-5.3-2.2-8.3s3.1-5.3,6.1-6.1c3-0.8,6.1,0.1,8.3,2.2c21.2,22.9,39.3,48.6,53.7,76.3l63.8,4.9l-4.9-63.8
			c-27.7-14.4-53.4-32.4-76.4-53.6c-3.3-3.3-3.3-8.7,0-12.1c3.3-3.3,8.7-3.3,12.1,0c23,20.9,48.6,38.6,76.2,52.7
			c2.7,1.3,4.5,4,4.7,7l6,78.4c0.2,2.4-0.6,4.7-2.3,6.5C437.8,440.8,435.5,441.8,433.2,441.7L433.2,441.7z"/>
		<path id="Shape_89_" class="st4" d="M437.7,446.2c-2.3,0-4.4-0.9-6-2.5l-36.2-36.2c-3.2-3.3-3.2-8.7,0.1-12
			c3.3-3.3,8.6-3.3,12-0.1l36.2,36.2c2.4,2.4,3.2,6.1,1.8,9.3C444.3,444.2,441.2,446.2,437.7,446.2z"/>
		<circle id="Oval_7_" class="st4" cx="372.8" cy="372.8" r="8.5"/>
	</g>
</g>
</svg>
